<svg version="1.1" xmlns="http://www.w3.org/2000/svg" xmlns:xlink="http://www.w3.org/1999/xlink" x="0px" y="0px" viewBox="0 0 200 160" style="enable-background:new 0 0 200 160;" xml:space="preserve" width="200px" height="160px" role="img"><g><path d="M199.2,0.8v58.9l-19.8,19.8l-0.5,0.5l0.5,0.5l19.8,19.8v58.9H0.8v-58.9l19.8-19.8l0.5-0.5l-0.5-0.5L0.8,59.7V0.8H199.2 M200,0H0v60l20,20L0,100v60h200v-60l-20-20l20-20V0L200,0z"/></g><g><path d="M179.2,20.8v18.5H160h-1.8l1.3,1.3L198.9,80l-39.5,39.5l-1.3,1.3h1.8h19.2v18.5H20.8v-18.5H40h1.8l-1.3-1.3L1.1,80l39.5-39.5l1.3-1.3H40H20.8V20.8H179.2 M180,20H20v20h20L0,80l40,40H20v20h160v-20h-20l40-40l-40-40h20V20L180,20z"/></g></svg>
