<?xml version="1.0" encoding="UTF-8"?>
<svg width="280px" height="280px" viewBox="0 0 280 280" version="1.1" xmlns="http://www.w3.org/2000/svg" xmlns:xlink="http://www.w3.org/1999/xlink">
    <!-- Generator: sketchtool 61.2 (101010) - https://sketch.com -->
    <title>Robust</title>
    <desc>Created with sketchtool.</desc>
    <defs>
        <rect id="path-1" x="0" y="0" width="280" height="280"></rect>
        <filter x="-10.7%" y="-3.6%" width="114.3%" height="114.3%" filterUnits="objectBoundingBox" id="filter-3">
            <feOffset dx="-20" dy="20" in="SourceAlpha" result="shadowOffsetOuter1"></feOffset>
            <feColorMatrix values="0 0 0 0 0.737254902   0 0 0 0 0.321568627   0 0 0 0 0.250980392  0 0 0 1 0" type="matrix" in="shadowOffsetOuter1"></feColorMatrix>
        </filter>
    </defs>
    <g id="Wireframe" stroke="none" stroke-width="1" fill="none" fill-rule="evenodd">
        <g id="Desktop-Essentials" transform="translate(-220.000000, -1047.000000)">
            <g id="Features" transform="translate(220.000000, 954.000000)">
                <g id="Feature-1" transform="translate(0.000000, 93.000000)">
                    <mask id="mask-2" fill="white">
                        <use xlink:href="#path-1"></use>
                    </mask>
                    <g id="Mask">
                        <use fill="black" fill-opacity="1" filter="url(#filter-3)" xlink:href="#path-1"></use>
                        <use fill="#531F17" fill-rule="evenodd" xlink:href="#path-1"></use>
                    </g>
                    <path d="M101.640625,72.2382813 C115.492955,54.3761437 114.036971,42.4975854 145,42 C169.890625,41.6 163,51.2991042 179.291016,74.796875 C182.025242,78.740657 206.043346,73.154232 215.789063,75.1660156 C216.954574,75.4066091 218.134553,76.0025243 218.904297,76.9101563 C223.826119,82.7136498 234.004191,103.213151 233.738281,106.429688 C232.982608,115.570583 224.658077,122.380039 220.576172,130.59375 C219.055662,133.653358 215.953295,136.92152 216.962891,140.185547 C219.927466,149.770033 227.942771,157.131229 231.666016,166.447266 C236.799435,179.291739 224.668559,200.286788 213.791016,204.869141 C203.034836,209.400367 190.047104,202.518075 178.783203,205.576172 C168.445392,208.38284 161.526521,239.063586 153.582031,239.457031 C110.452808,241.592976 122.142964,235.706809 103.824219,205.802734 C103.18213,204.754569 99.48452,206.542289 100.148438,205.507813 L100.232422,206.779297 C100.480865,206.392188 107.726919,208.160473 98.9394531,207.667969 C86.8585666,206.990881 70.0488281,208.173949 62.7324219,205.078125 C55.4160156,201.982301 43.5440125,173.586796 50.4648438,164.341797 C53.3598383,160.474599 57.2080539,157.368481 59.9882813,153.417969 C61.4872616,151.288021 64.1279961,148.706669 63.1738281,146.283203 C56.9776452,130.545686 64.6412778,140.9792 63.8320313,139.041016 C60.3137345,130.614524 54.9096397,123.097215 50.8535156,114.916016 C42.5678397,98.2038135 54.0069343,90.3735255 69.0527344,77.3730469 C72.9596234,73.9972591 88.3069371,74.1700683 91.8613281,73.9921875 L101.640625,72.2382813 Z" id="Path-14" fill="#FFFFFF" mask="url(#mask-2)"></path>
                    <g id="noun_Honeycomb_693469" transform="translate(41.000000, 37.000000)" fill="#FF684F" fill-rule="nonzero">
                        <path d="M31.4998494,91 L52.1804221,91 C53.0894583,91 53.9984944,90.5508231 54.4530125,89.6524693 L64.6796693,71.9099816 C65.3614464,70.5624509 64.9069283,68.9903318 63.7706331,68.3165664 C62.6343379,67.642801 60.8162656,68.0919779 60.1344885,69.2149202 L50.5896088,85.6098772 L31.4998494,85.6098772 C30.1362952,85.6098772 29,86.7328194 29,88.3049386 C29,89.8770577 30.1362952,91 31.4998494,91 Z" id="Path"></path>
                        <path d="M88.4998494,58 L109.180422,58 C110.089458,58 110.998494,57.5487368 111.453012,56.6462105 L121.679669,38.8213153 C122.361446,37.4675258 121.906928,35.8881047 120.770633,35.21121 C119.634338,34.7599468 118.043525,34.9855784 117.361748,36.3393679 L117.361748,36.3393679 L107.816868,52.8104736 L88.7271085,52.8104736 C87.3635542,52.8104736 86,53.9386315 86,55.292421 C86,56.8718421 87.1362952,58 88.4998494,58 C88.4998494,58 88.4998494,58 88.4998494,58 Z" id="Path"></path>
                        <path d="M89.4686811,117.834466 C88.1221278,117.834466 87,118.957408 87,120.529527 C87,121.877058 88.1221278,123 89.4686811,123 L110.115832,123 C111.013534,123 111.911237,122.550823 112.360088,121.652469 L122.683663,103.909982 C123.35694,102.562451 122.908089,100.990332 121.785961,100.316566 C120.663833,99.642801 118.868429,100.091978 118.195152,101.21492 L108.769279,117.609877 L89.4686811,117.834466 Z" id="Path"></path>
                        <path d="M146.523062,90 L167.189305,90 C168.097711,90 169.006118,89.5508231 169.460321,88.6524693 L179.679891,70.9099816 C180.361196,69.5624509 179.906993,67.9903318 178.771485,67.3165664 C177.408876,66.642801 175.819165,67.0919779 175.13786,68.2149202 L165.599594,84.6098772 L146.523062,84.6098772 C145.160453,84.6098772 144.024945,85.7328194 144.024945,87.3049386 C143.797844,88.8770577 145.160453,90 146.523062,90 Z" id="Path"></path>
                        <path d="M63.8471461,135.316566 C62.7230446,134.642801 60.9244822,135.091978 60.2500214,136.21492 L50.8075689,152.609877 L31.6978436,152.609877 C30.3489218,152.609877 29,153.732819 29,155.304939 C29,156.877058 30.1241015,158 31.6978436,158 L52.1564906,158 C53.0557718,158 53.955053,157.550823 54.4046936,156.652469 L64.521607,138.909982 C65.4208882,137.562451 64.9712476,135.990332 63.8471461,135.316566 Z" id="Path"></path>
                        <path d="M89.6931067,185.609877 C88.3465533,185.609877 87,186.732819 87,188.304939 C87,189.877058 88.1221278,191 89.6931067,191 L89.6931067,191 L110.115832,191 C111.013534,191 111.911237,190.550823 112.360088,189.652469 L122.683663,171.909982 C123.35694,170.562451 122.908089,168.990332 121.785961,168.316566 C120.439408,167.642801 118.868429,168.091978 118.195152,169.21492 L108.769279,185.609877 L89.6931067,185.609877 Z" id="Path"></path>
                        <path d="M146.693107,152.609877 C145.346553,152.609877 144,153.732819 144,155.304939 C144,156.877058 145.122128,158 146.693107,158 L146.693107,158 L167.115832,158 C168.013534,158 168.911237,157.550823 169.360088,156.652469 L179.683663,138.909982 C180.35694,137.562451 179.908089,135.990332 178.785961,135.316566 C177.439408,134.642801 175.868429,135.091978 175.195152,136.21492 L165.769279,152.609877 L146.693107,152.609877 Z" id="Path"></path>
                        <path d="M179.519242,103 L197.488225,72.0088496 C198.170592,70.869469 198.170592,69.2743363 197.488225,68.1349558 L178.381964,35.0929204 C177.699598,33.9535398 176.334865,33.0420354 174.970132,33.0420354 L139.032165,33.0420354 L121.063182,2.05088496 C120.380816,0.911504425 119.016083,0 117.65135,0 L79.6662837,0 C78.3015508,0 76.9368179,0.683628319 76.2544515,2.05088496 L58.5129236,33.0420354 L23.0298679,33.0420354 C21.665135,33.0420354 20.3004021,33.7256637 19.6180356,35.0929204 L0.511774842,68.1349558 C-0.170591614,69.2743363 -0.170591614,70.869469 0.511774842,72.0088496 L18.4807582,103 L0.511774842,133.99115 C-0.170591614,135.130531 -0.170591614,136.725664 0.511774842,137.865044 L19.6180356,170.90708 C20.3004021,172.04646 21.665135,172.957965 23.0298679,172.957965 L58.5129236,172.957965 L76.2544515,203.949115 C76.9368179,205.088496 78.3015508,206 79.6662837,206 L117.65135,206 C119.016083,206 120.380816,205.316372 121.063182,203.949115 L139.032165,172.957965 L174.970132,172.957965 C176.334865,172.957965 177.699598,172.274336 178.381964,170.90708 L197.488225,137.865044 C198.170592,136.725664 198.170592,135.130531 197.488225,133.99115 L179.519242,103 Z M153.589316,41.0176991 L172.695577,41.0176991 L189.527283,69.9579646 L172.695577,99.1261062 L139.259621,99.1261062 L122.427915,69.9579646 L131.981045,53.3230088 C136.530155,45.8030973 144.718553,41.0176991 153.589316,41.0176991 Z M132.208501,103 L115.376795,132.168142 L82.1682941,132.168142 L65.5640437,103 L75.117174,86.3650442 C79.6662837,78.6172566 87.8546812,73.8318584 96.7254451,73.8318584 L115.60425,73.8318584 L132.208501,103 Z M74.6622631,20.5088496 C79.2113728,12.7610619 87.3997702,7.97566372 96.2705342,8.20353982 L115.376795,8.20353982 L132.208501,37.3716814 L115.376795,66.3119469 L82.1682941,66.3119469 L65.3365882,36.9159292 L74.6622631,20.5088496 Z M8.47271683,69.9579646 L18.0258472,53.3230088 C22.5749569,45.5752212 30.7633544,40.789823 39.6341183,40.789823 L58.5129236,40.789823 L75.3446295,69.9579646 L58.5129236,99.1261062 L25.3044227,99.1261062 L8.47271683,69.9579646 Z M25.3044227,164.982301 L8.47271683,135.814159 L18.0258472,119.179204 C22.5749569,111.431416 30.7633544,106.646018 39.6341183,106.646018 L58.5129236,106.646018 L75.3446295,135.814159 L58.5129236,164.982301 L25.3044227,164.982301 Z M115.376795,198.024336 L81.9408386,198.024336 L65.3365882,169.311947 L75.117174,152.449115 C79.6662837,144.701327 87.8546812,139.915929 96.7254451,140.143805 L115.60425,140.143805 L132.208501,169.084071 L115.376795,198.024336 Z M172.695577,164.982301 L139.259621,164.982301 L122.427915,135.814159 L131.981045,119.179204 C136.530155,111.431416 144.718553,106.646018 153.361861,106.646018 L172.468122,106.646018 L189.299828,135.814159 L172.695577,164.982301 Z" id="Shape"></path>
                    </g>
                </g>
            </g>
        </g>
    </g>
</svg>