<?xml version="1.0" encoding="utf-8"?>
<!-- Generator: Adobe Illustrator 19.1.0, SVG Export Plug-In . SVG Version: 6.00 Build 0)  -->
<svg version="1.1" id="Layer_1" xmlns="http://www.w3.org/2000/svg" xmlns:xlink="http://www.w3.org/1999/xlink" x="0px" y="0px"
	 viewBox="-55 147 500 500" style="enable-background:new -55 147 500 500;" xml:space="preserve">
<g>
	<polygon points="405.5,174.5 335,207.7 342.5,212.9 386.9,192.3 221.7,431.4 204.6,407.1 107,547.1 107.3,547.1 107.3,189.4 
		171,189.4 173.4,180.9 -13.1,180.9 -15.5,189.4 50.3,189.4 52.7,619.5 68.4,619.5 204.5,424.4 221.7,447.7 395.6,198.4 391.7,247 
		399.1,252.1 	"/>
	<g>
		<path d="M121.3,584.9h-2.7c-0.5,0-1.2,0-2,0.1s-1.6,0.4-2.4,0.9c-0.8,0.5-1.6,1.4-2.4,2.5c-0.8,1.1-1.5,2.7-2,4.7h-0.8V584H139
			v9.3h-0.8c-0.5-2-1.2-3.6-2-4.7c-0.8-1.1-1.6-1.9-2.4-2.5c-0.8-0.5-1.6-0.9-2.4-0.9c-0.8-0.1-1.5-0.1-2.1-0.1h-2.7v33.1h5.1v1
			h-15.4v-1h5V584.9z M146.8,584.9h-5v-1h11l8.9,26l9-26h10.7v1h-5v33.1h5v1H166v-1h5.1v-31.9l-11.7,33.4l-11.5-33.1v31.7h5.1v1
			h-11.2v-1h5V584.9z"/>
	</g>
</g>
</svg>
