<svg xmlns="http://www.w3.org/2000/svg" viewBox="0 0 16 16" role="img"><path d="M13.9,12.094,11.242,9.406A4.754,4.754,0,0,0,11.9,6.969a4.789,4.789,0,0,0-1.453-3.516A4.754,4.754,0,0,0,6.961,2a4.8,4.8,0,0,0-3.5,1.453A4.762,4.762,0,0,0,1.992,6.969a4.762,4.762,0,0,0,1.469,3.516,4.8,4.8,0,0,0,3.5,1.453,4.752,4.752,0,0,0,2.5-.719l2.625,2.688A.3.3,0,0,0,12.3,14a.339.339,0,0,0,.25-.094L13.9,12.531A.274.274,0,0,0,13.9,12.094ZM9.086,9.109A2.869,2.869,0,0,1,6.961,10,2.919,2.919,0,0,1,4.82,9.109,2.919,2.919,0,0,1,3.93,6.969,2.919,2.919,0,0,1,4.82,4.828a2.919,2.919,0,0,1,2.141-.891,2.869,2.869,0,0,1,2.125.891,2.947,2.947,0,0,1,.875,2.141A2.946,2.946,0,0,1,9.086,9.109Z" style="fill:#D1CECB"/></svg>
