<svg xmlns="http://www.w3.org/2000/svg" viewBox="0 0 20 20" width="20" height="20" role="img"><path d="M15.86 3.13a1 1 0 1 1-1 1 1 1 0 0 1 1-1m0-1.25a2.23 2.23 0 1 0 2.23 2.23 2.23 2.23 0 0 0-2.23-2.23zM4.13 3.13a1 1 0 1 1-1 1 1 1 0 0 1 1-1m0-1.25a2.23 2.23 0 1 0 2.24 2.24 2.23 2.23 0 0 0-2.24-2.24zM6.85 7.09l-2.8 3.8h3.48l2.8-3.8H6.85zM12.8 7.09l-2.79 3.8h3.48l2.8-3.8H12.8zM.5 7.09v3.8h1.07l2.8-3.8H.5zM15.96 10.89h3.54v-3.8h-.74l-2.8 3.8zM15.15 11.88v3.34H4.98v-3.34H3.07v6.45h1.91v-1.6h10.17v1.6h1.83v-6.45h-1.83z"></path></svg>
