<?xml version="1.0" encoding="utf-8"?>
<svg version="1.1" id="Layer_1" xmlns="http://www.w3.org/2000/svg" xmlns:xlink="http://www.w3.org/1999/xlink" x="0px" y="0px"
	 viewBox="0 0 500 500" style="enable-background:new 0 0 500 500;" xml:space="preserve">
<g>
	<g>
		<polygon points="456.2,29.2 385.8,62.4 393.2,67.6 437.6,47.1 272.5,286.1 255.4,261.9 157.8,401.8 158.1,401.8 158.1,44.1
			221.8,44.1 224.1,35.6 37.7,35.6 35.2,44.1 101.1,44.1 103.4,474.2 119.2,474.2 255.2,279.1 272.5,302.5 446.4,53.1 442.5,101.8
			449.9,106.9"/>
		<g>
		</g>
	</g>
	<g>
		<path d="M194.1,450h-1.6c-0.1-0.6-0.4-1.2-0.8-2s-0.8-1.5-1.2-2.2c-0.5-0.7-1-1.3-1.5-1.9c-0.6-0.5-1.1-0.8-1.6-0.9
			c-0.5-0.1-1.1-0.1-1.8-0.1c-0.7,0-1.4,0-2,0h-1.4v26.6c0,0.5,0.1,1,0.3,1.4s0.6,0.8,1.1,1c0.3,0.1,0.9,0.3,1.8,0.4
			s1.6,0.3,2.1,0.3v1.7h-15.7v-1.7c0.4,0,1.1-0.1,2-0.2s1.5-0.2,1.9-0.4c0.5-0.2,0.9-0.5,1.1-0.9s0.4-0.9,0.4-1.5v-26.8h-1.4
			c-0.5,0-1.1,0-1.8,0s-1.4,0.1-2.1,0.2c-0.5,0.1-1.1,0.4-1.6,0.9s-1.1,1.2-1.5,1.9s-0.9,1.4-1.2,2.2s-0.6,1.4-0.8,2h-1.6v-9h29V450
			z"/>
		<path d="M241.6,474.2h-14.7v-1.7c0.5,0,1.2-0.1,2.1-0.2s1.4-0.2,1.7-0.4c0.5-0.3,0.8-0.6,1.1-1s0.3-0.9,0.3-1.4v-24.2h-0.4
			l-11.3,28.3h-1.2l-10.8-28.9h-0.3v19.9c0,1.9,0.1,3.4,0.4,4.4s0.6,1.7,1.1,2.2c0.3,0.3,1.1,0.6,2.1,0.9s1.8,0.5,2.1,0.5v1.7h-13.4
			v-1.7c0.7-0.1,1.4-0.2,2.2-0.4s1.4-0.4,1.8-0.8c0.5-0.4,0.9-1.1,1.1-2s0.3-2.4,0.3-4.5v-17c0-1-0.1-1.8-0.4-2.4s-0.6-1.1-1-1.5
			c-0.5-0.4-1.1-0.7-1.8-0.9s-1.4-0.3-2.1-0.4V441h11.3l9.5,25l8.1-20.9c0.3-0.8,0.6-1.6,0.8-2.4c0.2-0.8,0.3-1.4,0.3-1.7h10.8v1.7
			c-0.4,0-1,0.1-1.7,0.2s-1.2,0.2-1.5,0.4c-0.5,0.2-0.9,0.5-1.1,0.9s-0.3,0.9-0.3,1.4v24c0,0.5,0.1,1,0.3,1.4s0.5,0.7,1.1,1
			c0.3,0.2,0.8,0.3,1.5,0.4s1.3,0.2,1.7,0.2V474.2z"/>
	</g>
</g>
</svg>
