<svg xmlns="http://www.w3.org/2000/svg" width="100%" viewBox="0 0 758 100" role="img" style="width: auto;height: 100%;max-width: 100%;"><title>Victory</title><path d="M26.75,7.58H63.83V9.26H50.51l26.64,69.6,26.28-69.6H90.35V7.58h25.92V9.26h-10.8L73.19,94.82h-3L37.55,9.26H26.75V7.58Z"/><path d="M140.38,91.34H153.7V9.26H140.38V7.58H179V9.26H165.7V91.34H179V93H140.38V91.34Z"/><path d="M285.1,93h-1.8a11.55,11.55,0,0,0-1.92-1.74A5.79,5.79,0,0,0,278,90.5a13.11,13.11,0,0,0-3.9.66l-4.8,1.5a58.69,58.69,0,0,1-6.06,1.5,38.76,38.76,0,0,1-7.44.66,40.46,40.46,0,0,1-14.7-2.76,39.89,39.89,0,0,1-13.5-9,51.9,51.9,0,0,1-9.84-13.92,41.58,41.58,0,0,1-4-18.6A46.56,46.56,0,0,1,226.06,19a43.32,43.32,0,0,1,13.56-9.9,39.61,39.61,0,0,1,17-3.66,27.34,27.34,0,0,1,6.6.72,41.57,41.57,0,0,1,5.16,1.62q2.28,0.9,4.2,1.62a10.56,10.56,0,0,0,3.72.72,5.74,5.74,0,0,0,3.42-.78,12.76,12.76,0,0,0,1.86-1.74h1.8v24H282.1a73,73,0,0,0-2.76-9,25.53,25.53,0,0,0-4.68-7.86A22.18,22.18,0,0,0,267,9.2a27.69,27.69,0,0,0-11.46-2.1,27.31,27.31,0,0,0-10.92,2A23,23,0,0,0,237,14.36,25.66,25.66,0,0,0,232,22a46.64,46.64,0,0,0-2.82,9.24,73.19,73.19,0,0,0-1.26,9.84q-0.3,5-.3,9.42a89.19,89.19,0,0,0,2,20.88q2,8.28,5.7,13.08a19.59,19.59,0,0,0,8.82,6.72,32.45,32.45,0,0,0,11.4,1.92q8,0,13-2.28a22,22,0,0,0,7.92-5.94A26.15,26.15,0,0,0,281,76.64q1.56-4.62,2.76-9.18h1.32V93Z"/><path d="M339.34,91.34h13.32V9.26h-7a39.4,39.4,0,0,0-5.4.42A15.49,15.49,0,0,0,334.24,12a20.8,20.8,0,0,0-5.88,6.06,39.32,39.32,0,0,0-4.86,11.46h-1.32v-22h73v22h-1.32A39.42,39.42,0,0,0,389,18.08,20.83,20.83,0,0,0,383.08,12,15.5,15.5,0,0,0,377,9.68a39.44,39.44,0,0,0-5.4-.42h-7V91.34H378V93H339.34V91.34Z"/><path d="M428.26,50.18A41.73,41.73,0,0,1,432,32.42a49.48,49.48,0,0,1,9.72-14.16,45.4,45.4,0,0,1,13.38-9.42A35.36,35.36,0,0,1,470,5.42a36.8,36.8,0,0,1,15.42,3.42,44.41,44.41,0,0,1,13.38,9.42,46.41,46.41,0,0,1,9.42,14.16,44.16,44.16,0,0,1,3.54,17.76,43.63,43.63,0,0,1-3.24,16.44,47.67,47.67,0,0,1-8.88,14.28A45,45,0,0,1,486.4,91,35.9,35.9,0,0,1,470,94.82a37.77,37.77,0,0,1-16.68-3.72,42.77,42.77,0,0,1-13.26-9.9,45.45,45.45,0,0,1-8.7-14.28A46.16,46.16,0,0,1,428.26,50.18Zm13.8,0A108.11,108.11,0,0,0,443.5,69a37.93,37.93,0,0,0,4.8,13.44,21.31,21.31,0,0,0,8.64,8,33.58,33.58,0,0,0,26.1,0,21.23,21.23,0,0,0,8.7-8A38,38,0,0,0,496.54,69,108.12,108.12,0,0,0,498,50.18a115.88,115.88,0,0,0-1.08-16,43.86,43.86,0,0,0-4.14-13.8,24.64,24.64,0,0,0-8.52-9.66Q478.78,7.1,470,7.1T455.8,10.7a24.63,24.63,0,0,0-8.52,9.66,43.86,43.86,0,0,0-4.14,13.8A115.88,115.88,0,0,0,442.06,50.18Z"/><path d="M545.14,91.34h13.32V9.26H545.14V7.58h22.8q1.44,0,2.88-.06t2.88-.18q1.44,0,2.88-.06t2.88-.06A88.34,88.34,0,0,1,591.94,8,20.85,20.85,0,0,1,602,12.5,18.5,18.5,0,0,1,608,19.82a19.65,19.65,0,0,1,1.74,7.68,21.24,21.24,0,0,1-.66,4.62,15.57,15.57,0,0,1-2.88,5.76,21.52,21.52,0,0,1-6.42,5.4,29,29,0,0,1-11.16,3.3v0.24q1.92,0.24,5.22.9a30.86,30.86,0,0,1,6.72,2.22,24.92,24.92,0,0,1,6.3,4.14,14.05,14.05,0,0,1,4.08,6.66,29,29,0,0,1,1,5.46q0.3,3.06.48,6.3t0.36,6.24a30.37,30.37,0,0,0,.66,5,18.54,18.54,0,0,0,2.28,5.64,5.48,5.48,0,0,0,5,2.52,9.6,9.6,0,0,0,3.24-.6,8,8,0,0,0,3-1.92l1.08,1.32q-0.6.48-1.38,1a10.05,10.05,0,0,1-2,1,14.85,14.85,0,0,1-2.94.78,25.79,25.79,0,0,1-4.26.3,22.83,22.83,0,0,1-8-1.2,11.82,11.82,0,0,1-5.1-3.54,14.93,14.93,0,0,1-2.82-5.76,45.83,45.83,0,0,1-1.26-8L599.5,64.46a22.75,22.75,0,0,0-2.4-9.36,13.24,13.24,0,0,0-4.5-4.92,13,13,0,0,0-5.34-1.86,45.56,45.56,0,0,0-4.8-.3h-12V91.34h13.32V93H545.14V91.34Zm25.32-45h11a21,21,0,0,0,6.12-.84,10.68,10.68,0,0,0,4.74-2.94,14,14,0,0,0,3.06-5.7,32.35,32.35,0,0,0,1.08-9.12,25.82,25.82,0,0,0-1.62-10,13.55,13.55,0,0,0-4.2-5.7,13.85,13.85,0,0,0-5.76-2.52,34,34,0,0,0-6.3-.6q-2.16,0-4.38.06a31.17,31.17,0,0,0-3.78.3V46.34Z"/><path d="M669.69,91.34H683V56.9L656,9.26H645.09V7.58h36.72V9.26h-12l24,42.24L716.49,9.26H704.37V7.58h25.68V9.26H718.41L695,53.06V91.34h13.32V93H669.69V91.34Z"/><path d="M735.82,7.52h5.87V8.33h-2.46v6.73h-0.95V8.33h-2.46V7.52Z"/><path d="M744.63,7.52l2.54,5.11,2.52-5.11H751v7.55h-0.95V8.86l-2.59,5.26h-0.64l-2.63-5.34v6.29h-0.95V7.52h1.36Z"/></svg>
