<svg version="1.1" id="Layer_1" xmlns="http://www.w3.org/2000/svg" xmlns:xlink="http://www.w3.org/1999/xlink" x="0px" y="0px"
	 viewBox="0 0 134.4 32" style="width: auto;height: 100%;enable-background:new 0 0 134.4 32;" xml:space="preserve">
  <g>
    <g>
      <g>
        <path d="M0.9,7.5C0.9,7.2,1,7,1.4,7h11.5c0.4,0,0.5,0.2,0.5,0.5v1.7c0,0.3-0.1,0.4-0.4,0.4H3.7v5.2h7.4c0.4,0,0.5,0.2,0.5,0.5
          v1.5c0,0.4-0.2,0.5-0.5,0.5H3.7V25c0,0.4-0.2,0.5-0.5,0.5H1.4C1,25.6,0.9,25.4,0.9,25V7.5L0.9,7.5z"/>
        <path d="M13.3,19.3c0-4,2.7-6.5,6.5-6.5s6.5,2.5,6.5,6.5c0,4.3-3,6.5-6.5,6.5S13.3,23.6,13.3,19.3z M23.4,19.4
          c0-2.7-1.6-4.2-3.7-4.2S16,16.7,16,19.4c0,2.4,1.4,4.1,3.7,4.1S23.4,21.8,23.4,19.4z"/>
        <path d="M28.5,13.6c0-0.4,0.2-0.5,0.5-0.5h1.6c0.4,0,0.5,0.2,0.5,0.5v1.1c0.9-1.1,2.2-1.9,4-1.9c2.4,0,3.9,1.5,3.9,3.7
          c0,0.4-0.2,0.5-0.5,0.5h-1.6c-0.3,0-0.4-0.1-0.4-0.4c-0.1-0.9-0.7-1.5-1.8-1.5s-2,0.7-2.5,1.5c-0.6,0.8-0.9,1.8-0.9,3.4v5
          c0,0.4-0.2,0.5-0.5,0.5h-1.6c-0.4,0-0.5-0.2-0.5-0.5L28.5,13.6L28.5,13.6z"/>
        <path d="M40.9,13.6c0-0.4,0.2-0.5,0.5-0.5H43c0.4,0,0.5,0.2,0.5,0.5v1.1c0.8-1.2,1.9-1.9,3.7-1.9c1.6,0,2.7,0.6,3.2,1.8
          c0.8-1,2.1-1.8,4-1.8c2.2,0,3.7,1.2,3.7,3.7V25c0,0.4-0.2,0.5-0.5,0.5H56c-0.4,0-0.5-0.2-0.5-0.5v-8.1c0-1.1-0.5-1.7-1.6-1.7
          c-0.8,0-1.5,0.4-2.2,1.1c-0.7,0.8-1,1.5-1,2.9V25c0,0.4-0.2,0.5-0.5,0.5h-1.6c-0.4,0-0.5-0.2-0.5-0.5v-8.2c0-1.1-0.5-1.7-1.6-1.7
          c-0.7,0-1.5,0.4-2.1,1.1c-0.6,0.7-0.8,1.2-0.8,2.6V25c0,0.4-0.2,0.5-0.5,0.5h-1.6c-0.4,0-0.5-0.2-0.5-0.5L40.9,13.6L40.9,13.6z"
          />
        <path d="M62.5,7.5c1,0,1.8,0.8,1.8,1.8s-0.8,1.8-1.8,1.8s-1.8-0.8-1.8-1.8C60.6,8.3,61.4,7.5,62.5,7.5z M61.1,13.6
          c0-0.4,0.2-0.5,0.5-0.5h1.6c0.4,0,0.5,0.2,0.5,0.5V25c0,0.4-0.2,0.5-0.5,0.5h-1.6c-0.4,0-0.5-0.2-0.5-0.5V13.6z"/>
        <path d="M76.2,24.5c-1,0.9-1.9,1.4-3.8,1.4c-3.1,0-5.8-2.2-5.8-6.5c0-4.1,2.8-6.5,6.1-6.5c1.6,0,2.8,0.5,3.5,1.3V7
          c0-0.4,0.2-0.5,0.5-0.5h1.6c0.4,0,0.6,0.1,0.6,0.5v18c0,0.4-0.2,0.5-0.5,0.5h-1.3c-0.4,0-0.6-0.1-0.7-0.5L76.2,24.5z M76.2,18.3
          c0-0.8-0.2-1.4-0.7-2c-0.6-0.7-1.5-1.2-2.5-1.2c-2,0-3.5,1.6-3.5,4.2c0,2.4,1.4,4.1,3.5,4.1c1.2,0,2.1-0.5,2.7-1.2
          c0.5-0.6,0.6-1.2,0.6-2.1L76.2,18.3L76.2,18.3z"/>
        <path d="M91.5,24.3c-1,1-2,1.5-4,1.5c-3.4,0-6.2-2.2-6.2-6.5c0-4.1,2.9-6.5,6.4-6.5c1.9,0,3.1,0.7,3.8,1.5v-0.7
          c0-0.4,0.2-0.5,0.5-0.5h1.6c0.4,0,0.5,0.2,0.5,0.5V25c0,0.4-0.2,0.5-0.5,0.5h-1.3c-0.3,0-0.6-0.1-0.7-0.5L91.5,24.3z M91.5,18.2
          c0-0.8-0.2-1.3-0.8-1.9c-0.6-0.6-1.5-1.1-2.7-1.1c-2.2,0-3.9,1.6-3.9,4.2c0,2.5,1.6,4.1,3.8,4.1c1.4,0,2.4-0.7,2.9-1.4
          c0.5-0.6,0.6-1.1,0.6-2L91.5,18.2L91.5,18.2z"/>
        <path d="M97.2,7c0-0.4,0.2-0.5,0.5-0.5h1.6c0.4,0,0.5,0.2,0.5,0.5v8c1-1.2,2.5-2.1,4.4-2.1c3.6,0,5.5,2.4,5.5,6.4
          c0,3.7-2.3,6.6-6.2,6.6c-1.5,0-2.7-0.4-3.7-1.1V25c0,0.4-0.2,0.5-0.5,0.5h-1.6c-0.4,0-0.5-0.2-0.5-0.5C97.2,25,97.2,7,97.2,7z
          M99.9,21.4c0,0.6,0.3,1,0.7,1.2c0.8,0.6,1.8,0.9,2.7,0.9c2.4,0,3.7-1.8,3.7-4.2c0-2.8-1.4-4.1-3.2-4.1c-1.7,0-2.8,1.2-3.3,2.1
          c-0.3,0.6-0.5,1-0.5,2L99.9,21.4L99.9,21.4z"/>
        <path d="M112.1,7c0-0.4,0.2-0.5,0.5-0.5h1.6c0.4,0,0.5,0.2,0.5,0.5v15.2c0,1,0.4,1.3,1,1.3s0.8-0.3,1.1-0.3
          c0.2,0,0.3,0.1,0.3,0.3v1.6c0,0.2-0.1,0.3-0.3,0.4c-0.4,0.2-1.2,0.3-1.8,0.3c-1.5,0-3-0.8-3-3L112.1,7L112.1,7z"/>
        <path d="M130.3,22.9c0.1,0.1,0.1,0.2,0.1,0.3c0,0.1-0.1,0.2-0.2,0.3c-1.7,1.7-3,2.3-5.4,2.3c-3.3,0-6.5-2.3-6.5-6.5
          c0-4,2.9-6.5,6.4-6.5c4.2,0,6.2,3.3,6.2,6.3v0.5c0,0.4-0.2,0.5-0.5,0.5h-9.3c0.3,2,1.8,3.3,3.9,3.3c1.8,0,2.7-0.7,3.5-1.6
          c0.1-0.2,0.2-0.2,0.4-0.2c0.1,0,0.2,0.1,0.3,0.2L130.3,22.9z M128.2,18c-0.5-1.9-1.9-2.8-3.4-2.8c-1.7,0-3.3,1-3.7,2.8H128.2z"/>
      </g>
      <g>
        <path d="M130.9,13.7h0.2c0,0.2,0.1,0.3,0.3,0.3s0.3-0.1,0.3-0.2c0-0.1-0.1-0.2-0.4-0.2c-0.3-0.1-0.4-0.2-0.4-0.4s0.2-0.4,0.5-0.4
          s0.5,0.2,0.5,0.4h-0.2c0-0.2-0.1-0.2-0.3-0.2s-0.3,0.1-0.3,0.2c0,0.1,0.1,0.2,0.2,0.2c0.3,0.1,0.5,0.1,0.5,0.4
          c0,0.2-0.2,0.4-0.5,0.4C131.1,14.2,130.9,14,130.9,13.7z"/>
        <path d="M132.2,12.8h0.3l0.3,0.9c0.1,0.2,0.1,0.3,0.1,0.3l0,0c0,0,0-0.1,0.1-0.3l0.3-0.9h0.3v1.3h-0.2V13l0,0c0,0,0,0.1-0.1,0.3
          l-0.3,0.9h-0.2l-0.3-0.9c-0.1-0.2-0.1-0.3-0.1-0.3l0,0v1.1h-0.2V12.8L132.2,12.8z"/>
      </g>
    </g>
  </g>
</svg>
