<svg xmlns="http://www.w3.org/2000/svg" viewBox="0 0 976.5 94.5" enable-background="new 0 0 976.5 94.5"><path fill="#fff" d="M50.1 18.4h-31.2v25.1h23.4v6.3h-23.4v34.5h-7.5v-72.2h38.7v6.3zm43.7-6.3c20.7 0 21.8 23.6 21.8 36.8 0 9.5.7 36.8-21.8 36.8-21.9 0-21.8-26.8-21.8-36.8.1-29.6 9.9-36.8 21.8-36.8zm14.4 36.8c0-6.5 1-30.6-14.4-30.6-15.8 0-14.4 26.5-14.4 30.6 0 8.1-.4 30.6 14.4 30.6 7.4 0 14.4-4.9 14.4-30.6zm35.1-36.8h18.8c18.1 0 19.7 16.3 19.7 20.5 0 7.4-2.8 14.3-12.8 20l19.5 31.8h-9.1l-17.6-30.1-10.8.2v29.9h-7.5v-72.3zm14.7 35.9c10.2 0 16.3-5.2 16.3-15.9 0-9.6-4-13.8-16-13.8h-7.4v29.7h7.1zm94.3-35.9h7.4v72.3h-7.5v-55h-.2l-14.9 35.4-14.8-35.4-.2.2v54.8h-7.5v-72.3h7.3l15.2 36 15.2-36zm69.3 6.3h-9.8v59.6h9.8v6.3h-27.1v-6.3h9.7v-59.6h-9.7v-6.3h27.1v6.3zm36.1-5.5h18.3c13.9 0 23.2 7.9 23.2 36 0 27.7-8.6 36-24.3 36h-17.2v-72zm7.5 65.7h9.2c10.4 0 17.3-2.9 17.3-29.7 0-27.6-7.9-29.7-17.5-29.7h-9v59.4zm105 5.7h-7.5l-5.9-19.5h-20.2l-5.9 19.5h-7.5l23.4-71.9 23.6 71.9zm-31.9-25.3h16.9l-8.5-26.8-8.4 26.8zm61.2 25.3v-71.3h15c8.2 0 22.4 1 22.4 18 0 6.8-3.6 12.1-9.4 15.4 8.1 4 12.5 9.3 12.5 18.5 0 10.4-7.5 19.4-20 19.4h-20.5zm7.4-40.2h8.6c6.6 0 13.9-4.9 13.9-13.4 0-11.8-9.9-11.5-14.5-11.5h-8v24.9zm12.5 34c6.5 0 13.1-3.9 13.1-12.8 0-7.9-5-15-16.3-15h-9.3v27.7c0 .1 12.5.1 12.5.1zm60.5 0h30.9v6.2h-38.4v-71.3h7.4l.1 65.1zm98.8-58.9h-29.6v25.4h21.3v6.2h-21.3v27.3h30.3v6.2h-37.8v-71.3h37.1v6.2zm46.1 60.2h31.3v5h-36v-71.4h4.7v66.4zm106.1 4.9h-5l-6.2-20.8h-23.3l-6.3 20.8h-4.9l22.8-71 22.9 71zm-33.5-24.5h21.4l-10.8-34.4-10.6 34.4zm61.5 24.5v-71.3h17.4c10.4 0 17.6 6.5 17.6 17.4 0 7.8-4.5 13.1-11.4 16.2 9.2 2.7 14.6 9.3 14.6 18.9 0 10.2-6.5 18.8-17.8 18.8h-20.4zm11.9-39.1c12.2 0 18.5-5.9 18.5-15.1 0-7.6-3.3-13.2-15.2-13.2h-10.6v28.2l7.3.1zm7.7 35.2c5.8 0 14-4.3 14-14.7 0-8.6-6-16.5-16.6-16.5h-12.3v31.2h14.9zm84.5-56.9c-4.4-3.8-9.5-7.5-15.6-7.5-7.2 0-13.1 4.9-13.1 12.4 0 5.5 2.5 9.2 11.1 14.5l5.8 3.5c11.2 6.8 16.3 10.8 16.3 19.6 0 12.2-8 19.7-20.1 19.7-8.4 0-15-3.9-20-10.4l3.5-2.9c3.7 5.4 9.6 9.4 16.4 9.4 8.3 0 15.2-6.1 15.2-14.6 0-6.7-.8-9.3-13.9-17l-6.6-3.9c-6.8-4-12.8-8.8-12.8-17.3 0-10.6 8.1-16.8 18.3-16.8 6.7 0 13.2 3.5 18 8l-2.5 3.3z"/></svg>