<?xml version="1.0" standalone="no"?>
<!DOCTYPE svg PUBLIC "-//W3C//DTD SVG 20010904//EN"
 "http://www.w3.org/TR/2001/REC-SVG-20010904/DTD/svg10.dtd">
<svg version="1.0" xmlns="http://www.w3.org/2000/svg"
 width="205.000000pt" height="205.000000pt" viewBox="0 0 205.000000 205.000000"
 preserveAspectRatio="xMidYMid meet">
<metadata>
Created by potrace 1.11, written by Peter Selinger 2001-2013
</metadata>
<g transform="translate(0.000000,205.000000) scale(0.100000,-0.100000)"
fill="#000000" stroke="none">
<path d="M1701 1879 c-154 -74 -185 -96 -203 -151 -15 -44 -14 -106 1 -121 4
-4 46 10 92 31 46 22 85 39 86 38 4 -3 -117 -439 -123 -446 -3 -2 -45 -5 -94
-5 -49 -1 -91 -3 -93 -6 -2 -2 -47 -166 -101 -363 -54 -198 -101 -368 -105
-378 -4 -11 -24 49 -55 165 -27 100 -55 202 -63 227 -7 25 -40 146 -74 270
-33 124 -69 256 -80 294 -12 38 -22 77 -24 86 -11 59 -69 248 -85 280 -10 21
-34 50 -52 65 -68 58 -77 59 -400 60 -164 1 -303 -2 -309 -6 -9 -5 -6 -16 9
-41 41 -66 102 -105 174 -110 l36 -2 107 -395 c59 -218 111 -409 116 -426 5
-16 48 -171 95 -342 46 -172 91 -328 99 -347 19 -46 62 -89 116 -117 41 -21
60 -23 261 -26 201 -4 217 -3 222 14 10 33 58 208 61 223 2 8 20 73 40 145 20
72 38 135 39 140 1 6 22 81 46 167 l44 157 89 0 c49 0 91 2 94 4 2 3 13 36 23
74 10 37 39 142 64 233 25 91 58 208 72 260 15 52 28 96 29 98 2 2 27 -31 56
-72 51 -73 53 -75 72 -58 48 43 65 136 35 192 -30 58 -170 250 -181 249 -7 0
-68 -27 -136 -60z"/>
</g>
</svg>
