<?xml version="1.0" encoding="UTF-8"?>
<svg width="152px" height="38px" viewBox="0 0 152 38" version="1.1" xmlns="http://www.w3.org/2000/svg" xmlns:xlink="http://www.w3.org/1999/xlink">
    <!-- Generator: sketchtool 61.2 (101010) - https://sketch.com -->
    <title>Tune</title>
    <desc>Created with sketchtool.</desc>
    <g id="Wireframe" stroke="none" stroke-width="1" fill="none" fill-rule="evenodd">
        <g id="Desktop-Essentials" transform="translate(-1071.000000, -1883.000000)" fill="#4C2E29" fill-rule="nonzero">
            <g id="Fans" transform="translate(0.000000, 1568.000000)">
                <g id="download" transform="translate(1071.000000, 315.000000)">
                    <path d="M112,16.0420452 C112,7.18226827 104.836556,0 96,0 C87.163444,0 80,7.18226827 80,16.0420452 L80,36.9477987 C80.0005208,37.528697 80.4700677,37.9994778 81.0494436,38 L86.5158072,38 C87.095183,37.9994778 87.56473,37.528697 87.5652508,36.9477987 L87.5652508,16.0420452 C87.5652508,11.3716819 91.3414052,7.58560445 95.9995277,7.58560445 C100.65765,7.58560445 104.433805,11.3716819 104.433805,16.0420452 L104.433805,36.9477987 C104.434325,37.528697 104.903872,37.9994778 105.483248,38 L110.946778,38 C111.526154,37.9994778 111.995701,37.528697 111.996222,36.9477987 L111.996222,16.0420452 L112,16.0420452 Z" id="Path"></path>
                    <path d="M0,1.05224067 L0,6.53506804 C0.000521387811,7.11598809 0.470609524,7.58678653 1.05065311,7.58730871 L11.161889,7.58730871 C11.7419326,7.58783088 12.2120207,8.05862933 12.2125421,8.63954937 L12.2125421,36.9477593 C12.2130635,37.5286794 12.6831516,37.9994778 13.2631952,38 L18.7358591,38 C19.316272,38 19.7869359,37.529049 19.7874579,36.9477593 L19.7874579,8.64049649 C19.7874577,8.05920661 20.2576984,7.58783145 20.838111,7.58730871 L30.9493469,7.58730871 C31.5293905,7.58678653 31.9994786,7.11598809 32,6.53506804 L32,1.05224067 C31.9994786,0.471320623 31.5293905,0.000522175636 30.9493469,0 L1.05065311,0 C0.470609524,0.000522175636 0.000521387811,0.471320623 0,1.05224067 Z" id="Path"></path>
                    <path d="M40,21.9743306 C40,30.8250634 47.163444,38 56,38 C64.836556,38 72,30.8250634 72,21.9743306 L72,1.05112724 C71.9984379,0.471191917 71.5286203,0.00189010775 70.9496118,0.00189221825 L65.4841928,0.00189221825 C64.9051843,0.00189010775 64.4353667,0.471191917 64.4338046,1.05112724 L64.4338046,21.9374323 C64.4437167,26.5931001 60.6836328,30.3753128 56.0354223,30.3852407 C51.3872117,30.3951686 47.6110573,26.6290523 47.6011453,21.9733845 L47.6011453,1.05112724 C47.6006245,0.470821896 47.1310776,0.000521623097 46.5517017,0 L41.0853381,0 C40.5059623,0.000521623097 40.0364153,0.470821896 40.0358946,1.05112724 L40.0358946,21.9743306 L40,21.9743306 Z" id="Path"></path>
                    <path d="M136,7.62348602 L150.917059,7.62348602 C151.495155,7.6229639 151.963665,7.15221238 151.964185,6.57135025 L151.964185,1.05213577 C151.963665,0.471273639 151.495155,0.000522123583 150.917059,0 L135.784166,0 C127.040117,0.107277264 120.006053,7.25687226 120,16.0434132 L120,21.9594278 C120.0076,30.7448619 127.041218,37.8927374 135.784166,38 L150.918002,38 C151.496098,37.9994779 151.964608,37.5287264 151.965127,36.9478642 L151.965127,31.5034641 C151.964608,30.922602 151.496098,30.4518504 150.918002,30.4513283 L136,30.4513283 C132.183937,30.4624683 128.842542,27.8810637 127.872762,24.1726063 C127.791964,23.8527975 127.865584,23.5134287 128.071513,23.2564164 C128.277441,22.9994042 128.59169,22.8546862 128.919887,22.865723 L150.952875,22.865723 C151.530971,22.8652008 151.99948,22.3944493 152,21.8135872 L152,16.2612271 C151.99948,15.680365 151.530971,15.2096135 150.952875,15.2090914 L128.921772,15.2090914 C128.598292,15.2063615 128.293091,15.0579684 128.090229,14.8047827 C127.887367,14.5515971 127.808242,14.2203257 127.874647,13.902208 C128.854125,10.2010319 132.188449,7.62449256 136,7.62348602 L136,7.62348602 Z" id="Path"></path>
                </g>
            </g>
        </g>
    </g>
</svg>