<?xml version="1.0" encoding="UTF-8"?>
<svg width="193px" height="37px" viewBox="0 0 193 37" version="1.1" xmlns="http://www.w3.org/2000/svg" xmlns:xlink="http://www.w3.org/1999/xlink">
    <!-- Generator: sketchtool 61.2 (101010) - https://sketch.com -->
    <title>Zillow</title>
    <desc>Created with sketchtool.</desc>
    <g id="Wireframe" stroke="none" stroke-width="1" fill="none" fill-rule="evenodd">
        <g id="Desktop-Essentials" transform="translate(-220.000000, -1884.000000)" fill="#4C2E29" fill-rule="nonzero">
            <g id="Fans" transform="translate(0.000000, 1568.000000)">
                <g id="download" transform="translate(220.000000, 316.000000)">
                    <path d="M6.72970717,19.8036634 C4.33246933,20.1540807 3.27671984,20.2918437 0,20.9871308 L3.92056004,16.9707382 C6.5265357,15.7872707 13.823082,13.5784397 20.8116241,11.951172 C20.8116241,11.951172 7.37911371,24.3082363 3.64873701,28.137863 L6.72970717,19.8036634 Z M20.6789596,3.67152281 C18.573027,4.64695887 12.5084976,9.31148483 9.24291047,11.7653306 C13.2182062,10.4450247 22.7691209,8.33512419 27.6619353,8.2195512 C26.132119,7.14518467 21.8395418,4.23551902 20.6789596,3.67152281 Z M28.5748154,8.85566495 C28.5748154,8.85566495 16.7203629,20.7236244 14.8621325,22.4276326 C19.9520503,20.7954278 25.2122718,19.7475643 30.5406617,19.304388 C30.8581722,18.331636 31.2326886,17.3782921 31.6622796,16.4492728 L37.9355467,15.8242541 C37.9355467,15.8242541 33.1716859,11.9835324 28.5748154,8.85474037 L28.5748154,8.85566495 Z M1.61145594,33.8092608 C9.9602493,30.8721615 18.6524518,29.0140082 27.4754629,28.2802489 C27.7287314,27.2937178 29.0145563,23.9837073 29.2511259,23.0850117 C20.2654761,23.714123 11.4514005,25.8539154 3.18209203,29.4137888 L1.61145594,33.8092608 Z M77.3137037,36.4581938 L55.856384,36.4581938 L55.856384,31.6263182 L68.826888,9.42983158 C69.3695314,8.53036283 69.8523665,7.59637568 70.2722814,6.63388975 C70.2722814,6.63388975 69.5198975,6.57286721 67.4427243,6.57286721 L56.866675,6.57286721 L58.4002021,0.858013894 L78.9622686,0.858013894 L78.9622686,5.83042631 L65.8924981,28.6260433 C65.1503192,29.8575891 64.6094564,30.853366 64.6094564,30.853366 C64.6094564,30.853366 66.1383449,30.8413464 67.5225085,30.8413464 L79.0921499,30.8413464 L77.3118482,36.4572692 L77.3137037,36.4581938 Z M86.939764,11.3936606 C84.6878755,11.3783766 82.8737881,9.54850157 82.8855543,7.3042131 C82.9019521,5.03424921 84.7576055,3.20513503 87.0353195,3.21382273 C88.1119981,3.22308346 89.1404636,3.66014457 89.8925314,4.4280668 C90.6445993,5.19598904 91.0580782,6.23127004 91.0412301,7.3042131 C91.0444435,8.38945659 90.6134175,9.43120137 89.8435994,10.1987613 C89.0737813,10.9663211 88.0286941,11.3963596 86.939764,11.3936606 L86.939764,11.3936606 Z M83.6268629,36.5099705 L83.6379956,14.3255035 L90.2378215,12.8507921 L90.2517373,36.5090459 L83.6268629,36.5099705 Z M96.7662126,36.4415513 L103.538595,36.4415513 L103.490353,0 L96.717971,1.52648808 L96.7662126,36.4415513 L96.7662126,36.4415513 Z M109.928755,36.4415513 L116.701138,36.4415513 L116.655679,0 L109.883297,1.52648808 L109.931539,36.4415513 L109.928755,36.4415513 Z M173.516788,36.4572692 L167.436487,36.4572692 L165.162637,27.7883702 C164.619919,25.7672297 164.02432,23.3503673 163.731159,21.6768704 C163.533554,20.4943276 163.483457,20.1503823 163.334094,19.1657004 C163.191653,20.2580399 162.993482,21.3424405 162.74035,22.4146884 C162.247729,24.5856115 161.157654,28.9219101 160.564839,31.2851467 L159.280869,36.4572692 L153.099447,36.4572692 L146.048747,11.2299965 L152.809997,11.2299965 L154.828723,20.6431856 C155.46978,23.5500775 156.258345,28.4781099 156.258345,28.4781099 C156.70637,25.5232156 157.317743,22.5952258 158.089672,19.7075066 L160.4665,11.2336948 L166.696164,11.2336948 L168.72324,19.5614224 C169.861557,24.2416663 170.600025,28.4790344 170.600025,28.4790344 C170.749388,27.3935729 171.292107,23.4529962 171.986044,20.2502374 L173.912926,11.2336948 L180.73355,11.2336948 L173.517716,36.4581938 L173.516788,36.4572692 Z M136.050669,16.9485482 C135.204285,15.914372 133.854834,15.4293593 132.540955,15.6871049 C131.227076,15.9448504 130.162733,16.9033805 129.772764,18.180094 C129.246524,20.0043464 129.012641,21.8999753 129.079754,23.7969414 C128.972722,25.9489694 129.257486,28.1025327 129.920272,30.1534559 C130.539456,31.4379325 131.851736,32.2461718 133.281414,32.2235994 C136.14808,32.2235994 137.384736,29.6615773 137.384736,23.6989355 C137.384736,20.2973912 136.941284,18.0811635 136.050669,16.9494727 L136.050669,16.9485482 Z M141.437961,33.5041481 C139.511079,35.6732221 136.984887,37 133.083809,37 C126.213088,37 121.714556,31.8787296 121.714556,23.946724 C121.714556,16.0147184 126.260402,10.7408916 133.083809,10.7408916 C136.38763,10.5984776 139.568975,12.0003293 141.686591,14.5316857 C143.714594,16.8967715 144.604281,19.6548053 144.604281,23.7442401 C144.604281,28.0805388 143.616256,31.0364336 141.438888,33.5004498 L141.437961,33.5041481 Z M189.290873,2.27170273 L189.620215,2.27170273 C190.152728,2.27170273 190.352189,2.46216702 190.352189,2.8264531 C190.359414,2.98749313 190.299671,3.14437273 190.187054,3.26008296 C190.079438,3.37195762 189.918014,3.41541306 189.604443,3.41541306 L189.290873,3.41541306 L189.290873,2.27170273 Z M190.455166,5.38847519 L191.167658,5.38847519 L190.637928,4.52306462 C190.492883,4.25498021 190.304862,4.0123161 190.081293,3.8046629 C190.334535,3.80122302 190.574936,3.69298223 190.744915,3.50586653 C190.914894,3.31875082 190.99914,3.0696148 190.977474,2.81813184 C190.984928,2.51773009 190.858707,2.22941985 190.632673,2.0305478 C190.406638,1.83167576 190.103931,1.74260122 189.805759,1.78722075 L188.703624,1.78722075 L188.703624,5.38847519 L189.292728,5.38847519 L189.292728,3.83147584 C189.384018,3.83414037 189.469934,3.87510578 189.529298,3.94427508 C189.773568,4.20942948 189.980493,4.50648108 190.144379,4.82725274 L190.457021,5.38939977 L190.455166,5.38847519 Z M189.735252,0.905167675 C190.43671,0.917217941 191.104104,1.20875323 191.588366,1.71465597 C192.072627,2.22055871 192.333411,2.89868073 192.312469,3.5975561 C192.360224,4.54477743 191.880339,5.44114168 191.064275,5.92902751 C190.248211,6.41691335 189.228788,6.41691335 188.412724,5.92902751 C187.59666,5.44114168 187.116775,4.54477743 187.16453,3.5975561 C187.140023,2.89880616 187.398735,2.2196315 187.88235,1.7131285 C188.365964,1.2066255 189.033777,0.915424861 189.735252,0.905167675 L189.735252,0.905167675 Z M189.735252,6.82250487 C191.045087,6.83561857 192.233351,6.05955606 192.744093,4.85741145 C193.254835,3.65526684 192.987054,2.2647707 192.066036,1.3364904 C191.145018,0.408210098 189.752899,0.125718068 188.541006,0.621183029 C187.329113,1.11664799 186.537104,2.29208907 186.53549,3.5975561 C186.531093,4.44722921 186.865518,5.26385864 187.465236,5.86778939 C188.064955,6.47172014 188.880838,6.81347953 189.733397,6.81788195 L189.735252,6.82250487 Z" id="Shape"></path>
                </g>
            </g>
        </g>
    </g>
</svg>