<?xml version="1.0" encoding="UTF-8"?>
<svg width="155px" height="41px" viewBox="0 0 155 41" version="1.1" xmlns="http://www.w3.org/2000/svg" xmlns:xlink="http://www.w3.org/1999/xlink">
    <!-- Generator: sketchtool 61.2 (101010) - https://sketch.com -->
    <title>Redfin</title>
    <desc>Created with sketchtool.</desc>
    <g id="Wireframe" stroke="none" stroke-width="1" fill="none" fill-rule="evenodd">
        <g id="Desktop-Essentials" transform="translate(-876.000000, -1736.000000)" fill="#4C2E29" fill-rule="nonzero">
            <g id="Fans" transform="translate(0.000000, 1568.000000)">
                <g id="download" transform="translate(876.000000, 168.000000)">
                    <path d="M79.5921105,8.58481297 C76.7257358,6.70564779 72.8657016,6.00550887 67.7240169,6.00499642 L58,6 L58,37.9946192 L67.9274412,38 C71.4618418,38 74.5003151,37.548657 77.0406696,36.5355374 C79.5921105,35.5007667 81.5875508,33.8595078 82.9407479,31.4931279 C84.2925269,29.1291822 85,26.0466492 85,22.1286898 C85,18.740991 84.5713651,15.970542 83.6810938,13.7372717 C82.7917248,11.5020798 81.4309219,9.80586038 79.5921105,8.58481297 Z M76.9889756,27.6624136 C76.5092913,29.2588328 75.7427761,30.4760368 74.5516224,31.323506 C73.2422557,32.2419499 71.2661523,32.7415916 68.8242872,32.7415916 L65.3436432,32.7415916 L65.3384867,11.2655828 L68.2599072,11.2698105 C71.1359504,11.2790347 73.2653311,11.7358865 74.6983251,12.7825718 C75.74587,13.5582975 76.4747427,14.6417513 76.9522354,16.1197939 C77.4281813,17.6002706 77.6397289,19.4662402 77.6397289,21.7774032 C77.6403717,24.0910004 77.4676286,26.0629196 76.9889756,27.6624136 Z" id="Shape"></path>
                    <polygon id="Path" points="90 38 97.5388411 38 97.5388411 24.3626135 106.252867 24.3626135 106.252867 19.149193 97.5388411 19.149193 97.5388411 11.2685185 111 11.2706968 111 6 90 6"></polygon>
                    <path d="M116.022966,38 L123,38 L123,6 L116.022966,6 C116.022966,6 115.971292,38 116.022966,38 Z" id="Path"></path>
                    <polygon id="Path" points="155 6 147.599882 6 147.599882 24.3626135 133.901946 6 128 6 128 38 135.405152 38 135.405152 19.1540621 148.953748 38 155 38"></polygon>
                    <path d="M30.5274642,38.9461299 C29.9079044,38.6974858 29.2870525,38.223237 27.6185696,35.41075 L24.2962045,29.8919125 L20.379863,23.3865236 L20.0475361,22.8339668 C20.2396707,22.7792159 20.4276706,22.7174756 20.6134739,22.6543114 C25.1099662,21.1102847 27.7336953,16.9880478 27.7336953,11.1060165 C27.7491721,8.19625357 26.5035784,5.42291387 24.3195914,3.50444498 C23.9931552,3.22304526 23.6507375,2.96080366 23.2940552,2.71903511 C20.3029834,0.74217867 16.2735836,0.00569512757 10.9077694,0.0051773887 L0.759134579,0 L0.754353826,0 L0.754353826,0.00245925963 L0.604858377,0.00245925963 C-0.0541103234,-0.00595399701 -0.117164583,0.374325203 0.141900563,0.719139291 C0.374477751,1.02589957 0.639615746,1.43478384 0.754353826,2.47349745 L0.754353826,34.9283468 C0.640003375,36.249487 0.371376722,36.6704087 0.141900563,36.9748392 C-0.120136403,37.3181 -0.0046230661,37.7109344 0.655250102,37.7039449 L8.16994827,37.7039449 L8.16994827,23.9371389 L11.5854735,23.9371389 L13.984378,28.0210631 L17.0016794,33.1581976 L18.468337,35.6543462 C20.3321847,38.7968917 21.96268,40.5375298 25.2091992,40.9093957 C25.6817377,40.9688588 26.157483,40.9991175 26.6337344,41 L27.1359719,41 C28.303251,41 29.4435253,40.5307991 30.1530149,40.2281808 C30.2495345,40.193104 30.3432114,40.1555679 30.436113,40.1141488 C31.2887669,39.7361994 31.0529594,39.1562024 30.5274642,38.9461299 Z M12.9444995,18.6716052 L8.16981906,18.6716052 L8.16981906,5.39237977 L12.9443703,5.39237977 C15.3073546,5.39237977 17.1089233,5.69875174 18.4586463,6.92721665 C18.967711,7.41251334 19.3629807,8.00488174 19.6159762,8.66164186 C19.9475279,9.49753127 20.1144667,10.5044039 20.1144667,11.7163012 C20.1145958,13.4816613 19.9528255,18.6716052 12.9444995,18.6716052 Z" id="Shape"></path>
                    <polygon id="Path" points="40.5491474 24.3624307 49.2764167 24.3624307 49.2764167 19.1489893 40.5491474 19.1489893 40.5491474 11.2479098 53.9959052 11.2479098 53.9959052 6 33 6 33 38 54 38 54 32.693148 40.5491474 32.693148"></polygon>
                </g>
            </g>
        </g>
    </g>
</svg>