<svg xmlns="http://www.w3.org/2000/svg" viewBox="0 0 506 125" style="height:100%;width:auto;max-width:100%;" role="img" aria-labelledby="title"><title>Postmark</title><g style="opacity:0.20000000298023224"><path d="M172.5,42c-8.8,8.4-25.7,14.1-45.2,14.1-14.5,0-27.6-3.2-37-8.3C79.5,41.9,64.6,33.7,45.1,33.7c-14.5,0-27.6,3.2-37,8.3V38c9.4-5.1,22.5-8.3,37-8.3,19.5,0,34.4,8.2,45.2,14.1,9.4,5.1,22.5,8.3,37,8.3,19.5,0,36.4-5.7,45.2-14.1v4Z"/><path d="M172.5,59c-8.8,8.4-25.7,14.1-45.2,14.1-14.5,0-27.6-3.2-37-8.3C79.5,58.9,64.6,50.7,45.1,50.7c-14.5,0-27.6,3.2-37,8.3V55c9.4-5.1,22.5-8.3,37-8.3,19.5,0,34.4,8.2,45.2,14.1,9.4,5.1,22.5,8.3,37,8.3,19.5,0,36.4-5.7,45.2-14.1v4Z"/><path d="M172.5,76c-8.8,8.4-25.7,14.1-45.2,14.1-14.5,0-27.6-3.2-37-8.3C79.5,75.9,64.6,67.7,45.1,67.7c-14.5,0-27.6,3.2-37,8.3V72c9.4-5.1,22.5-8.3,37-8.3,19.5,0,34.4,8.2,45.2,14.1,9.4,5.1,22.5,8.3,37,8.3,19.5,0,36.4-5.7,45.2-14.1v4Z"/><path d="M172.5,93c-8.8,8.4-25.7,14.1-45.2,14.1-14.5,0-27.6-3.2-37-8.3C79.5,92.9,64.6,84.7,45.1,84.7c-14.5,0-27.6,3.2-37,8.3V89c9.4-5.1,22.5-8.3,37-8.3,19.5,0,34.4,8.2,45.2,14.1,9.4,5.1,22.5,8.3,37,8.3,19.5,0,36.4-5.7,45.2-14.1v4Z"/></g><path d="M84.9,39.4H76.4V30.9h30.1c18.8,0,22.7,12.4,22.7,21A21.51,21.51,0,0,1,123.5,67c-4.7,4.7-11.1,5.8-20.8,5.8H95.1V90.3H104v8.5H76.4V90.3h8.5V39.4Zm18.7,25.2c12.5,0,15.2-5.8,15.2-12.8,0-8-4.5-12.4-12-12.4H95.1V64.6h8.5Z"/><path d="M157.4,50.2c14.2,0,24.8,10.7,24.8,25s-10.7,25-24.9,25-24.8-10.7-24.8-25S143.1,50.2,157.4,50.2Zm-0.1,41c8.5,0,14.9-6.8,14.9-16s-6.4-16-14.9-16-14.8,6.9-14.8,16S148.9,91.2,157.3,91.2Z"/><path d="M190.1,82.6h8.3v1.6c0.8,4.7,5.1,7.6,11.3,7.6,5.9,0,9.7-2.3,9.7-5.9,0-8.8-16.6-3.2-25.6-12.2a13,13,0,0,1-3.7-9c0-8.1,7-13.9,16.6-13.9a24.41,24.41,0,0,1,11.5,2.7V51.6h8.2V67.2h-8.2V64.3a12.26,12.26,0,0,0-11-5.8c-5,0-8.3,2.3-8.3,5.8,0,7.9,18.2,3.3,26,11.1a13.93,13.93,0,0,1,4,9.8c0,8.6-7.3,14.4-18.1,14.4-5.1,0-9-1.1-12.4-3.4v2.6h-8.3V82.6Z"/><path d="M234.8,51.6h6.1V44.3l9.4-8.5V51.6H259v8.2h-8.7V87.1c0,4.6,4.1,4.4,8.7,2.8v8.4a24,24,0,0,1-6.9,1.3c-6.6,0-11.2-3-11.2-11.2V59.8h-6.1V51.6Z"/><path d="M273.4,59.8h-7.9V51.6h17.3v5.9c5.5-4.4,10.8-6.7,16-6.7s9.4,2.6,11.4,7.4c6.8-5.3,11.6-7.4,17-7.4,7.8,0,12.6,4.8,12.6,13V90.6h8.1v8.2H330.4V65.9c0-4.6-2.1-6.9-5.7-6.9-3.8,0-8.7,2.3-13.4,6.2V90.6h8.1v8.2H301.9V66.1c0-5-2.8-6.7-5.8-6.7-3.4,0-7.6,1.8-13.3,5.8V90.6h8.1v8.2H264.8V90.6h8.6V59.8h0Z"/><path d="M400.5,98.8H384.1V93c-5.9,4.8-10,6.6-15.2,6.6-9,0-16-6.6-16-15,0-8.6,7.5-15.3,17.2-15.3a24.72,24.72,0,0,1,12.9,4V67.1c0-6.7-4.9-9.1-10.5-9.1-4.5,0-8,1.9-10.1,5.6l-8.9-2.4c4-7.3,10.8-11,20.4-11,13.8,0,18.5,6.9,18.5,14.5V90.6h8.1v8.2ZM383,81.2c-4-3.1-8.2-4.7-12.2-4.7-5.2,0-9,3.4-9,8.1s3.5,7.8,8.5,7.8c4.2,0,8.9-2.1,12.7-5.6V81.2Z"/><path d="M413.3,59.8h-9.5V51.6h16.9V62.2h0.2c3-7.9,9-11.4,14.9-11.4h6.1v9.4h-5c-10.9,0-14.2,6.1-14.2,16.9V90.6h10.2v8.2H404V90.6h9.3V59.8Z"/><path d="M452.2,39.1h-8.5V30.9h17.9V73.3l17.7-13.9V59.2h-7.9V51.6h26.2v7.6h-7.3L472.6,73.9l16.7,16.7h8.1v8.2h-12L461.6,75V90.6h7v8.2h-25V90.6h8.6V39.1h0Z"/></svg>
