<svg xmlns="http://www.w3.org/2000/svg" width="91" height="91" viewBox="0 0 91 91">
    <g fill="none" fill-rule="evenodd">
        <path fill="#202020" d="M51.774 1.935L81.418 15.12a15.736 15.736 0 0 1 9.34 14.377V61.56c0 6.217-3.66 11.851-9.34 14.378L51.774 89.122a15.736 15.736 0 0 1-12.79 0L9.341 75.938A15.736 15.736 0 0 1 0 61.56V29.497c0-6.217 3.66-11.85 9.34-14.377L38.985 1.935a15.736 15.736 0 0 1 12.79 0z"/>
        <path stroke="#FF684F" stroke-width="3.668" d="M50.26 7.063a12.083 12.083 0 0 0-9.792 0L11.554 19.88a10.392 10.392 0 0 0-6.18 9.5v32.326c0 4.11 2.422 7.834 6.18 9.5l28.914 12.817a12.083 12.083 0 0 0 9.793 0l28.913-12.817a10.392 10.392 0 0 0 6.18-9.5V29.38c0-4.11-2.422-7.834-6.18-9.5L50.261 7.063z" opacity=".499"/>
        <path stroke="#FF684F" stroke-width="3.631" d="M51.037 3.594a13.92 13.92 0 0 0-11.315 0L10.08 16.779a13.92 13.92 0 0 0-8.263 12.718V61.56a13.92 13.92 0 0 0 8.263 12.719l29.643 13.184a13.92 13.92 0 0 0 11.315 0L80.68 74.28a13.92 13.92 0 0 0 8.263-12.72V29.498A13.92 13.92 0 0 0 80.68 16.78L51.037 3.594z"/>
        <text fill="#FF684F" font-family="Castledown-Bold, Castledown" font-size="7.868" font-weight="bold" letter-spacing=".583" transform="translate(0 -1)">
            <tspan x="26.929" y="71.472">VICTORY</tspan>
        </text>
        <g>
            <path fill="#FF684F" d="M33.773 23.175h3.325l8.821 32.22h-3.325z"/>
            <path fill="#EE4A2F" d="M54.673 35.645h-3.348l-5.406 19.75h3.324z"/>
            <path fill="#FF684F" d="M60.644 25.969h-3.313l-3.964 14.424h3.3z"/>
            <path fill="#EE4A2F" d="M30.448 23.175h3.325l8.821 32.22a4.358 4.358 0 0 1-4.203-3.208l-7.943-29.012z"/>
            <path fill="#FF9877" d="M37.098 23.175a4.358 4.358 0 0 1 4.203 3.207l7.943 29.012h-3.325l-8.821-32.22z"/>
            <path fill="#FF684F" d="M33.786 23.203l.767 2.795h-3.309l-.763-2.795zM30.461 23.203l.767 2.795h-.412a3.794 3.794 0 0 1-3.66-2.795h3.305z"/>
            <path fill="#FF684F" fill-rule="nonzero" d="M61.909 31.096a3.008 3.008 0 0 0 .742-4.186l-2.849-4.084-4.657 2.192a3.022 3.022 0 0 0-1.446 4.024l5.101-2.4 3.109 4.454z"/>
        </g>
    </g>
</svg>
