<svg xmlns="http://www.w3.org/2000/svg" width="61" height="61" viewBox="0 0 61 61">
    <g fill="none" fill-rule="evenodd">
        <g>
            <path fill="#FF684F" d="M3.773 3.175h3.325l8.821 32.22h-3.325z"/>
            <path fill="#EE4A2F" d="M24.673 15.645h-3.348l-5.406 19.75h3.324z"/>
            <path fill="#FF684F" d="M30.644 5.969h-3.313l-3.964 14.424h3.3z"/>
            <path fill="#EE4A2F" d="M0.448 3.175h3.325l8.821 32.22a4.358 4.358 0 0 1-4.203-3.208l-7.943-29.012z"/>
            <path fill="#FF9877" d="M7.098 3.175a4.358 4.358 0 0 1 4.203 3.207l7.943 29.012h-3.325l-8.821-32.22z"/>
            <path fill="#FF684F" d="M3.786 3.203l.767 2.795h-3.309l-.763-2.795zM0.461 3.203l.767 2.795h-.412a3.794 3.794 0 0 1-3.66-2.795h3.305z"/>
            <path fill="#FF684F" fill-rule="nonzero" d="M31.909 11.096a3.008 3.008 0 0 0 .742-4.186l-2.849-4.084-4.657 2.192a3.022 3.022 0 0 0-1.446 4.024l5.101-2.4 3.109 4.454z"/>
        </g>
    </g>
</svg>
