<?xml version="1.0" standalone="no"?>
<!DOCTYPE svg PUBLIC "-//W3C//DTD SVG 20010904//EN"
 "http://www.w3.org/TR/2001/REC-SVG-20010904/DTD/svg10.dtd">
<svg version="1.0" xmlns="http://www.w3.org/2000/svg"
 width="783.000000pt" height="156.000000pt" viewBox="0 0 783.000000 156.000000"
 preserveAspectRatio="xMidYMid meet">

<g transform="translate(0.000000,156.000000) scale(0.100000,-0.100000)"
fill="#000000" stroke="none">
<path d="M3737 1552 c-16 -2 -31 -11 -34 -20 -4 -9 -42 -98 -85 -196 -43 -99
-78 -181 -78 -183 0 -1 20 -3 45 -3 44 0 46 1 64 43 l18 42 77 -3 77 -4 19
-44 c19 -43 21 -44 65 -44 25 0 45 3 45 8 0 8 -176 402 -181 405 -2 1 -17 1
-32 -1z m32 -188 c11 -31 21 -59 21 -62 0 -4 -21 -6 -47 -6 -27 1 -48 4 -47 8
4 24 39 116 45 116 3 0 16 -25 28 -56z"/>
<path d="M4543 1544 c-53 -19 -108 -80 -123 -136 -40 -145 46 -269 185 -269
127 0 208 84 208 217 1 85 -33 142 -105 178 -58 29 -103 32 -165 10z m113 -69
c38 -16 73 -77 74 -128 1 -132 -157 -189 -215 -77 -37 71 -7 177 58 205 40 18
41 18 83 0z"/>
<path d="M5407 1552 c-16 -2 -31 -11 -34 -20 -4 -9 -42 -97 -85 -195 -43 -97
-78 -180 -78 -182 0 -3 20 -5 45 -5 42 0 45 2 63 43 l19 42 76 -3 77 -4 19
-44 c19 -41 22 -44 60 -44 22 0 42 4 45 8 4 8 -165 399 -175 405 -2 1 -17 1
-32 -1z m30 -189 c13 -31 22 -58 20 -59 -7 -7 -92 -7 -91 -1 3 20 39 117 44
117 3 0 15 -26 27 -57z"/>
<path d="M2350 1350 l0 -200 108 0 c119 0 163 16 182 66 22 58 0 119 -50 136
-9 3 -6 12 13 31 31 31 36 80 11 116 -26 37 -74 51 -174 51 l-90 0 0 -200z
m185 106 c27 -40 -6 -76 -71 -76 -22 0 -24 4 -24 50 l0 50 40 0 c31 0 43 -5
55 -24z m7 -153 c22 -20 23 -56 3 -73 -8 -7 -35 -15 -60 -18 l-45 -5 0 57 0
56 42 0 c24 0 49 -7 60 -17z"/>
<path d="M2750 1348 l0 -203 124 0 124 0 6 29 c3 16 6 32 6 37 0 5 -38 9 -85
9 l-85 0 0 50 0 50 65 0 65 0 0 35 0 35 -65 0 -65 0 0 45 0 45 75 0 c67 0 75
2 75 19 0 11 3 26 6 35 5 14 -9 16 -120 16 l-126 0 0 -202z"/>
<path d="M3100 1350 l0 -200 45 0 45 0 0 121 0 121 106 -126 c91 -108 110
-126 135 -126 l29 0 0 205 0 205 -45 0 -44 0 -3 -122 -3 -123 -103 123 c-89
105 -107 122 -133 122 l-29 0 0 -200z"/>
<path d="M4030 1351 l0 -201 49 0 49 0 -1 68 c-2 65 -1 67 22 67 19 0 33 -14
65 -67 23 -36 44 -69 48 -73 3 -4 27 -3 52 0 l46 7 -54 77 -55 77 34 30 c42
38 55 92 32 140 -25 51 -66 67 -184 72 l-103 4 0 -201z m190 109 c45 -45 9
-114 -58 -108 -37 3 -37 3 -40 52 -2 27 -1 55 2 62 8 22 73 17 96 -6z"/>
<path d="M4846 1538 c5 -7 39 -62 77 -122 l69 -110 -4 -78 -3 -78 47 0 48 0 0
84 0 84 68 104 c37 56 71 109 76 116 5 9 -5 12 -42 12 l-50 0 -48 -81 -47 -81
-31 51 c-17 28 -39 64 -48 81 -16 27 -22 30 -68 30 -38 0 -49 -3 -44 -12z"/>
<path d="M566 1309 l-108 -232 21 -46 c12 -25 113 -242 225 -481 l203 -435
224 -3 224 -2 226 483 225 483 -105 228 c-58 124 -110 225 -116 224 -5 -2
-108 -212 -227 -467 -119 -255 -219 -466 -222 -469 -4 -3 -8 -3 -10 -1 -1 2
-101 213 -220 469 -119 256 -220 468 -225 473 -4 4 -56 -97 -115 -224z"/>
<path d="M3028 934 c-34 -18 -48 -43 -48 -87 0 -37 33 -74 99 -109 86 -47 20
-103 -74 -64 l-35 15 0 -35 c0 -42 24 -54 106 -54 48 0 60 4 85 29 43 43 41
99 -5 137 -18 16 -47 37 -65 46 -39 21 -49 45 -27 66 13 14 22 14 58 5 24 -6
44 -11 45 -10 1 1 4 14 8 28 6 23 3 28 -26 38 -43 15 -88 13 -121 -5z"/>
<path d="M3699 938 c-15 -12 -149 -308 -149 -328 0 -6 16 -10 36 -10 32 0 37
4 51 40 l16 40 64 0 65 0 15 -40 c15 -37 19 -40 55 -40 21 0 38 4 38 8 0 23
-149 337 -161 340 -8 1 -21 -3 -30 -10z m41 -154 c11 -25 20 -48 20 -50 0 -2
-20 -4 -44 -4 l-45 0 21 50 c11 28 22 50 25 50 2 0 13 -21 23 -46z"/>
<path d="M4384 931 c-71 -32 -111 -105 -101 -188 9 -87 76 -143 168 -143 79 0
106 14 111 56 5 39 6 39 -34 18 -21 -11 -46 -15 -77 -11 -62 7 -91 41 -91 107
0 89 73 140 153 107 38 -17 47 -10 47 33 0 39 -107 52 -176 21z"/>
<path d="M5353 943 c-10 -3 -13 -48 -13 -174 l0 -170 37 3 37 3 -3 98 c-1 55
1 97 7 97 5 0 47 -45 92 -100 61 -72 90 -100 107 -100 22 0 22 1 25 170 l3
170 -37 0 -37 0 -3 -102 -3 -102 -89 107 c-86 103 -96 111 -123 100z"/>
<path d="M5788 934 c-34 -18 -48 -43 -48 -86 1 -42 14 -59 74 -95 60 -35 75
-55 57 -77 -17 -20 -61 -20 -106 -2 l-35 15 0 -35 c0 -42 24 -54 106 -54 48 0
60 4 85 29 43 43 41 99 -5 137 -18 16 -47 37 -65 46 -39 21 -49 45 -27 66 13
14 22 14 58 5 24 -6 44 -11 45 -10 1 1 4 14 8 28 6 23 3 28 -26 38 -43 15 -88
13 -121 -5z"/>
<path d="M2342 773 l3 -168 38 -3 37 -3 0 61 c0 58 1 61 22 58 15 -2 34 -22
56 -60 31 -52 38 -58 68 -58 18 0 36 4 39 10 3 5 -13 36 -35 68 l-42 59 31 31
c23 23 31 40 31 67 0 78 -43 105 -170 105 l-80 0 2 -167z m162 91 c34 -33 3
-84 -50 -84 l-34 0 0 50 0 50 34 0 c19 0 42 -7 50 -16z"/>
<path d="M2690 770 l0 -170 104 0 104 0 4 30 4 29 -70 3 -71 3 -3 43 -3 42 55
0 c56 0 56 0 56 30 0 30 -1 30 -55 30 l-55 0 0 35 0 35 65 0 c49 0 65 3 65 14
0 8 3 21 6 30 5 14 -7 16 -100 16 l-106 0 0 -170z"/>
<path d="M3275 770 l0 -170 108 0 107 0 0 30 0 30 -70 0 -70 0 0 45 0 45 55 0
c54 0 55 0 55 30 0 30 -1 30 -55 30 l-55 0 0 35 0 35 65 0 65 0 0 30 0 30
-102 0 -103 0 0 -170z"/>
<path d="M3960 770 l0 -170 40 0 40 0 0 61 c0 57 1 60 22 57 15 -2 34 -22 56
-60 31 -52 38 -58 68 -58 18 0 35 4 38 9 4 5 -13 37 -36 71 -39 55 -41 62 -25
71 23 13 47 62 47 97 0 32 -30 69 -67 83 -13 5 -60 9 -104 9 l-79 0 0 -170z
m164 94 c34 -33 3 -84 -50 -84 l-34 0 0 50 0 50 34 0 c19 0 42 -7 50 -16z"/>
<path d="M4650 769 l0 -170 38 3 37 3 3 73 3 72 69 0 70 0 0 -76 0 -75 38 3
37 3 3 168 2 167 -40 0 -40 0 0 -65 0 -65 -70 0 -70 0 0 65 0 65 -40 0 -40 0
0 -171z"/>
<path d="M5160 770 l0 -170 40 0 40 0 0 170 0 170 -40 0 -40 0 0 -170z"/>
<path d="M6008 910 l-5 -30 54 0 53 0 0 -140 0 -140 40 0 40 0 0 140 0 140 49
0 c48 0 60 10 61 53 0 4 -65 7 -144 7 l-144 0 -4 -30z"/>
<path d="M6370 769 l0 -170 38 3 37 3 3 168 2 167 -40 0 -40 0 0 -171z"/>
<path d="M6520 910 c0 -29 1 -30 49 -30 63 0 65 -5 60 -159 l-4 -116 38 -3 37
-3 0 140 0 141 55 0 c54 0 55 0 55 30 l0 30 -145 0 -145 0 0 -30z"/>
<path d="M6880 820 c0 -183 25 -220 149 -220 53 0 65 4 95 31 45 39 56 79 56
207 l0 102 -40 0 -40 0 0 -120 c0 -107 -2 -122 -20 -140 -11 -11 -33 -20 -50
-20 -17 0 -39 9 -50 20 -18 18 -20 33 -20 140 l0 120 -40 0 -40 0 0 -120z"/>
<path d="M7250 926 c0 -8 -3 -21 -6 -30 -5 -13 3 -16 50 -16 l56 0 0 -140 0
-140 40 0 40 0 0 140 0 140 49 0 c35 0 51 4 55 16 16 43 13 44 -139 44 -119 0
-145 -3 -145 -14z"/>
<path d="M7610 770 l0 -170 110 0 110 0 0 30 0 30 -70 0 -70 0 0 45 0 45 50 0
c49 0 50 1 50 30 0 29 -1 30 -50 30 l-50 0 0 35 0 35 59 0 c44 0 60 4 65 16
16 41 10 44 -99 44 l-105 0 0 -170z"/>
<path d="M127 371 c-59 -126 -110 -237 -113 -245 -5 -14 18 -16 221 -16 220 0
226 1 220 20 -6 20 -213 461 -218 467 -2 2 -52 -100 -110 -226z"/>
<path d="M1913 357 c-62 -132 -111 -242 -109 -244 2 -2 104 -2 228 -1 l225 3
-111 237 c-61 130 -113 239 -116 241 -3 3 -56 -103 -117 -236z"/>
<path d="M2430 427 c0 -13 139 -319 145 -320 6 -2 145 303 145 319 0 3 -10 4
-22 2 -19 -2 -31 -23 -69 -115 -25 -62 -47 -115 -50 -117 -2 -3 -26 49 -53
115 -43 104 -53 119 -73 119 -13 0 -23 -2 -23 -3z"/>
<path d="M4057 420 c-2 -8 -12 -76 -22 -149 -9 -74 -19 -141 -22 -148 -3 -9 3
-13 20 -13 23 0 25 4 32 77 12 127 15 127 68 14 25 -56 48 -101 51 -101 3 0
26 45 52 101 54 114 57 113 69 -15 5 -53 12 -79 22 -83 29 -11 32 14 13 137
-11 69 -20 140 -20 158 0 17 -4 32 -8 32 -5 0 -35 -57 -67 -126 l-59 -126 -62
128 c-35 74 -64 123 -67 114z"/>
<path d="M2754 406 c-8 -21 13 -46 32 -39 20 8 13 47 -9 51 -9 2 -20 -4 -23
-12z"/>
<path d="M3247 413 c-12 -12 -7 -41 7 -46 19 -7 40 18 32 38 -6 15 -28 20 -39
8z"/>
<path d="M3599 404 c-11 -14 -10 -18 6 -30 16 -12 21 -12 33 0 17 17 9 46 -11
46 -8 0 -21 -7 -28 -16z"/>
<path d="M3140 335 c-7 -8 -28 -15 -47 -15 -62 0 -102 -66 -73 -120 8 -14 7
-25 -2 -40 -10 -15 -10 -22 0 -32 9 -9 7 -17 -9 -34 -46 -49 14 -105 96 -90
103 20 118 126 18 126 -43 0 -73 11 -73 26 0 9 12 14 36 14 47 0 69 13 83 49
11 24 10 34 -4 61 -16 30 -16 32 4 37 12 3 21 12 21 19 0 19 -34 18 -50 -1z
m-16 -61 c32 -32 7 -78 -39 -72 -24 2 -31 8 -33 31 -6 50 38 75 72 41z m25
-188 c19 -23 -13 -46 -65 -46 -48 0 -66 18 -44 45 16 19 93 20 109 1z"/>
<path d="M2768 313 c-16 -4 -18 -17 -18 -104 0 -99 0 -99 25 -99 25 0 25 0 25
99 0 55 -3 102 -7 104 -5 2 -16 2 -25 0z"/>
<path d="M2878 312 c-16 -3 -18 -16 -18 -103 0 -97 1 -99 23 -99 22 0 23 3 19
63 -4 69 10 97 49 97 10 0 19 4 19 9 0 5 3 16 6 25 9 23 -18 20 -49 -4 -24
-19 -26 -19 -29 -2 -2 11 -10 16 -20 14z"/>
<path d="M3253 313 c-9 -3 -13 -34 -13 -104 0 -92 1 -99 20 -99 19 0 20 7 20
105 0 58 -3 105 -7 104 -5 0 -14 -3 -20 -6z"/>
<path d="M3363 313 c-9 -3 -13 -34 -13 -104 0 -92 1 -99 20 -99 18 0 20 7 20
61 0 68 11 96 43 108 45 17 57 -2 57 -89 0 -73 2 -80 20 -80 18 0 20 7 20 88
0 73 -3 92 -18 105 -25 23 -64 21 -96 -4 -21 -16 -26 -17 -26 -5 0 18 -10 25
-27 19z"/>
<path d="M3613 313 c-9 -3 -13 -34 -13 -104 0 -92 1 -99 20 -99 19 0 20 7 20
105 0 58 -3 105 -7 104 -5 0 -14 -3 -20 -6z"/>
<path d="M3728 313 c-10 -2 -18 -13 -18 -23 0 -15 6 -17 42 -13 33 5 44 2 55
-12 20 -28 17 -32 -32 -38 -54 -6 -85 -30 -85 -67 0 -52 61 -77 107 -45 18 13
22 13 33 0 7 -8 21 -15 31 -15 22 0 26 25 5 33 -11 5 -14 23 -13 77 2 64 0 74
-22 91 -22 18 -63 23 -103 12z m82 -138 c0 -17 -8 -29 -24 -37 -33 -14 -56 -4
-56 26 0 27 11 34 53 35 22 1 27 -3 27 -24z"/>
<path d="M4437 308 c-25 -19 -7 -41 24 -30 32 13 69 -2 69 -28 0 -16 -7 -20
-30 -20 -67 0 -109 -44 -90 -95 14 -37 68 -47 107 -20 19 13 22 13 27 -1 3 -9
15 -14 28 -12 25 4 37 28 14 28 -13 0 -16 13 -16 75 0 62 -4 79 -20 95 -23 23
-87 27 -113 8z m93 -125 c0 -22 -29 -53 -50 -53 -28 0 -43 25 -30 49 14 27 80
30 80 4z"/>
<path d="M4662 304 c-17 -12 -22 -24 -20 -47 2 -27 11 -36 50 -57 74 -39 57
-83 -22 -60 -19 6 -36 10 -37 10 -2 0 -3 -9 -3 -19 0 -23 19 -31 69 -31 53 0
81 23 81 66 0 33 -3 37 -50 57 -64 27 -70 60 -10 59 3 0 15 -3 28 -7 18 -5 22
-2 22 13 0 34 -68 44 -108 16z"/>
<path d="M4871 306 c-33 -18 -50 -53 -51 -104 0 -93 106 -138 171 -73 25 25
29 37 29 81 0 44 -4 56 -29 81 -33 32 -78 38 -120 15z m101 -50 c12 -18 9 -81
-4 -99 -22 -28 -63 -32 -87 -8 -54 54 0 161 64 128 11 -5 23 -15 27 -21z"/>
<path d="M5083 313 c-9 -3 -13 -34 -13 -104 0 -92 1 -99 20 -99 18 0 20 7 20
68 0 53 4 72 18 84 24 22 44 27 65 16 14 -7 17 -23 17 -88 0 -73 2 -80 20 -80
18 0 20 7 20 83 0 96 -15 127 -59 127 -16 0 -40 -9 -55 -21 -21 -16 -26 -17
-26 -5 0 18 -10 25 -27 19z"/>
<path d="M5281 304 c0 -11 3 -14 6 -6 3 7 2 16 -1 19 -3 4 -6 -2 -5 -13z"/>
<path d="M5311 308 c-1 -12 6 -18 19 -18 11 0 20 5 20 11 0 6 -6 9 -14 6 -8
-3 -17 -1 -20 6 -2 7 -5 4 -5 -5z"/>
</g>
</svg>
