<?xml version="1.0" encoding="UTF-8"?>
<svg width="604px" height="598px" viewBox="0 0 604 598" version="1.1" xmlns="http://www.w3.org/2000/svg" xmlns:xlink="http://www.w3.org/1999/xlink">
    <!-- Generator: sketchtool 62 (101010) - https://sketch.com -->
    <title>Renature</title>
    <desc>Created with sketchtool.</desc>
    <defs>
        <circle id="path-1" cx="98.2388647" cy="98.2388647" r="98.2388647"></circle>
    </defs>
    <g id="Finals" stroke="none" stroke-width="1" fill="none" fill-rule="evenodd">
        <g id="The-Good-Badges-for-OSS-usage" transform="translate(-2453.000000, -327.000000)">
            <g id="ReNature" transform="translate(2453.000000, 327.000000)">
                <g id="Badge-Copy-4">
                    <path d="M344.080183,9.42297922 L541.083646,97.0466003 C578.834836,113.837655 603.160975,151.281345 603.160975,192.598313 L603.160975,405.676165 C603.160975,446.993135 578.834836,484.436825 541.083646,501.227879 L344.080183,588.851501 C317.024807,600.885249 286.136169,600.885249 259.080793,588.851501 L62.0773292,501.227879 C24.3261394,484.436825 0,446.993135 0,405.676165 L0,192.598313 C0,151.281345 24.3261394,113.837655 62.0773292,97.0466003 L259.080793,9.42297922 C286.136169,-2.61076877 317.024807,-2.61076877 344.080183,9.42297922 Z" id="Polygon-Copy-4" fill="#202020" fill-rule="nonzero"></path>
                    <path d="M334.019142,43.5033551 C313.29757,34.3177686 289.658993,34.3177686 268.937419,43.5033551 L76.7826284,128.682917 C51.8098772,139.752993 35.7088435,164.502437 35.7088435,191.818822 L35.7088435,406.647399 C35.7088435,433.963784 51.8098772,458.713228 76.7826284,469.783302 L268.937419,554.962866 C289.658993,564.148452 313.29757,564.148452 334.019142,554.962866 L526.173934,469.783302 C551.146685,458.713228 567.247718,433.963784 567.247718,406.647399 L567.247718,191.818822 C567.247718,164.502437 551.146685,139.752993 526.173934,128.682917 L334.019142,43.5033551 Z" id="Polygon-Copy-5" stroke="#9580FF" stroke-width="24.374491" opacity="0.499209449"></path>
                    <path d="M339.176373,20.4481768 C315.24277,9.80293826 287.918205,9.80293826 263.984604,20.4481768 L66.9811402,108.071798 C33.5858569,122.925423 12.0665797,156.048688 12.0665797,192.598313 L12.0665797,405.676165 C12.0665797,442.225792 33.5858569,475.349057 66.9811402,490.202682 L263.984604,577.826303 C287.918205,588.471541 315.24277,588.471541 339.176373,577.826303 L536.179836,490.202682 C569.575119,475.349057 591.094395,442.225792 591.094395,405.676165 L591.094395,192.598313 C591.094395,156.048688 569.575119,122.925423 536.179836,108.071798 L339.176373,20.4481768 Z" id="Polygon-Copy" stroke="#9580FF" stroke-width="24.1331595"></path>
                    <text id="RENATURE" fill="#9580FF" font-family="Helvetica-Bold, Helvetica" font-size="51" font-weight="bold" line-spacing="51" letter-spacing="2">
                        <tspan x="153" y="455">RENATURE</tspan>
                    </text>
                </g>
                <g id="Group-2" transform="translate(308.159472, 276.280798) rotate(-23.500000) translate(-308.159472, -276.280798) translate(109.159472, 156.280798)">
                    <ellipse id="Oval" fill="#202020" fill-rule="nonzero" transform="translate(196.866222, 111.856012) scale(-1, 1) translate(-196.866222, -111.856012) " cx="196.866222" cy="111.856012" rx="190.869605" ry="37.7098005"></ellipse>
                    <ellipse id="Oval" fill="#202020" fill-rule="nonzero" transform="translate(198.957958, 107.878900) scale(-1, 1) translate(-198.957958, -107.878900) " cx="198.957958" cy="107.8789" rx="198.540488" ry="41.7186341"></ellipse>
                    <g id="Group" transform="translate(101.530966, 2.010908)">
                        <g id="Mask" fill="#D8D8D8" fill-rule="nonzero">
                            <circle id="path-1" cx="98.2388647" cy="98.2388647" r="98.2388647"></circle>
                        </g>
                        <g id="Rectangle-Clipped">
                            <mask id="mask-2" fill="white">
                                <use xlink:href="#path-1"></use>
                            </mask>
                            <g id="path-1"></g>
                            <g id="Rectangle" mask="url(#mask-2)">
                                <g transform="translate(-28.560000, -3.360000)" id="Group">
                                    <g transform="translate(0.720922, 0.652630)">
                                        <rect id="Rectangle" fill="#7860ED" fill-rule="nonzero" x="27.8390776" y="4.3885737e-11" width="200.732169" height="183.327645"></rect>
                                        <path d="M49.8946683,54.3820019 C100.798348,49.5686424 155.827112,49.6489923 214.980958,54.623052 C218.792808,77.6831264 220.698732,89.2131636 220.698732,89.2131636 C168.673,93.0763327 113.12322,88.2004783 54.0493938,74.5856005 C50.4492623,63.6399404 49.0643538,56.9054076 49.8946683,54.3820019 Z" id="Path" fill="#6C55D6" fill-rule="nonzero"></path>
                                        <path d="M45.7266827,36.4533558 C120.253533,29.0224089 171.800718,28.3825281 200.368239,34.5337136 C230.562704,39.0429285 236.596181,48.4090619 218.46867,62.6321137 C131.269835,52.9190348 67.6353125,51.7181999 27.5651038,59.0296088 C-12.505105,66.3410176 -6.45124536,58.8156001 45.7266827,36.4533558 Z" id="Path" fill="#6551C5" fill-rule="nonzero" transform="translate(115.063056, 46.493565) rotate(-3.000000) translate(-115.063056, -46.493565) "></path>
                                        <path d="M25.1317073,104.040373 C98.9069258,114.852168 166.720105,114.852168 228.571246,104.040373 C262.477836,108.423734 262.477836,117.190457 228.571246,130.340541 L25.1317073,130.340541 L25.1317073,104.040373 Z" id="Path" fill="#6551C5" fill-rule="nonzero"></path>
                                        <polygon id="Path" fill="#6C55D6" fill-rule="nonzero" points="29.982916 126.643591 224.316807 126.643591 215.291232 152.705051 34.1376417 141.57501"></polygon>
                                        <path d="M28.9993791,15.4706874 C81.1705653,5.99432225 136.119539,7.96248993 193.846299,21.3751904 C207.487229,34.8131621 214.307695,41.5321481 214.307695,41.5321481 C168.211811,29.5363698 107.827281,25.8263561 33.1541048,30.4021069 C29.5539733,22.3127439 28.1690648,17.335604 28.9993791,15.4706874 Z" id="Path" fill="#6C55D6" fill-rule="nonzero"></path>
                                    </g>
                                </g>
                            </g>
                        </g>
                    </g>
                    <path d="M179.475663,190.755726 C233.73149,190.755726 278.800409,150.512923 278.800409,92.5168619 C278.800409,92.5168619 239.070973,150.882556 166.531048,142.421094 C93.991123,133.959631 88.771204,51.6756187 88.771204,51.2653902 C60.4374861,140.009153 125.219836,190.755726 179.475663,190.755726 Z" id="Mask" fill="#4C4086" fill-rule="nonzero" transform="translate(180.342150, 121.010558) rotate(45.000000) translate(-180.342150, -121.010558) "></path>
                    <path d="M181.527375,184.9853 C235.783202,184.9853 280.852123,144.742496 280.852123,86.7464346 C280.852123,86.7464346 241.122687,145.112129 168.582761,136.650666 C96.0428357,128.189204 93.3478472,49.8296866 93.3478472,49.419458 C65.0141293,138.16322 127.271549,184.9853 181.527375,184.9853 Z" id="Mask" fill="#1F1F1F" fill-rule="nonzero" transform="translate(183.559078, 117.202379) rotate(45.000000) translate(-183.559078, -117.202379) "></path>
                    <circle id="Mask-Copy" stroke="#1F1F1F" stroke-width="5.80150776" cx="199.49077" cy="100.249773" r="98.2388647"></circle>
                    <path d="M389.254619,111.856012 C389.254619,132.68256 303.799386,149.565812 198.385014,149.565812 C123.987862,149.565812 59.5322755,141.156333 28.0424704,128.886233 C63.210275,134.731347 111.901128,138.349564 165.703187,138.349564 C272.933206,138.349564 359.860314,123.977154 359.860314,106.247888 C359.860314,97.3024778 337.730682,89.2116458 302.029183,83.3903213 C301.796544,82.2823958 301.546484,81.1818489 301.278553,80.0883127 C354.191608,86.7929515 389.254619,98.5154979 389.254619,111.856012 Z" id="Combined-Shape" fill="#202020" fill-rule="nonzero"></path>
                    <path d="M74.370117,82.8706083 L73.6168234,83.0887225 C57.8162341,87.6935049 48.7323619,93.0828171 48.7323619,98.8429403 C48.7323619,114.393993 114.942885,127.242277 200.782732,129.24658 C285.839569,127.120184 351.221845,114.335524 351.221845,98.8818318 C351.221845,93.1217086 342.138221,87.7323964 326.338066,83.127614 L325.584423,82.9094196 C350.094146,88.2326658 364.887727,95.1350612 364.887727,102.676919 C364.887727,119.518532 291.117011,133.171357 200.116217,133.171357 C167.718831,133.171357 137.505265,131.440935 112.026781,128.452255 C108.124222,127.994477 104.332753,127.507178 100.661545,126.992056 C60.8183891,121.42584 35.0661032,112.588498 35.0661032,102.638028 C35.0661032,95.0962077 49.8599418,88.1938437 74.370117,82.8706083 L74.370117,82.8706083 Z" id="Combined-Shape" fill="#D6CFF9" fill-rule="nonzero"></path>
                    <path d="M198.910619,144.974021 C93.4962471,144.974021 8.04101408,128.090768 8.04101408,107.26422 C8.04101408,93.9237065 43.1040259,82.20116 96.0170809,75.4965213 C95.7491497,76.5900575 95.4990904,77.6906045 95.2664507,78.7985299 C59.5649523,84.6198544 37.43532,92.7106863 37.43532,101.656096 C37.43532,117.587677 107.627938,130.808636 199.669875,133.325957 C291.712949,130.808475 361.904711,117.58758 361.904711,101.656096 C361.904711,92.7106863 339.775079,84.6198544 304.07358,78.7985299 C303.840941,77.6906045 303.590881,76.5900575 303.32295,75.4965213 C356.236005,82.20116 391.299018,93.9237065 391.299018,107.26422 C391.299018,128.090768 305.843783,144.974021 200.429411,144.974021 L198.910619,144.974021 Z" id="Combined-Shape" fill="#B5ACE1" fill-rule="nonzero"></path>
                </g>
            </g>
        </g>
    </g>
</svg>