<svg xmlns="http://www.w3.org/2000/svg" width="79" height="39" fill="none"><g clip-path="url(#nc-logo-white_svg__a)"><path fill="#000E38" d="M-.168.14h5.06l16.44 23.914V.14h5.45v33.75h-5.06L5.282 9.975v23.914h-5.45z"></path><path fill="#00E5A4" d="M29.536 33.893h20.282v4.966H29.536z"></path><path fill="#000E38" d="M65.38 2.742c5.522 0 9.369 2.862 10.833 8.052l.023.08h2.933l-.032-.133C77.668 4.104 72.577.145 65.523.145c-9.31 0-15.566 6.847-15.566 17.044 0 5.007 1.442 9.266 4.165 12.32 2.754 3.09 6.632 4.72 11.213 4.72 7.273 0 12.27-3.883 13.713-10.645l.027-.134H76.14l-.022.08c-1.42 5.298-5.163 8.097-10.833 8.097-7.443 0-12.445-5.804-12.445-14.442S57.878 2.742 65.38 2.742"></path></g><defs><clipPath id="nc-logo-white_svg__a"><path fill="#fff" d="M0 0h79v39H0z"></path></clipPath></defs></svg>
