<svg xmlns="http://www.w3.org/2000/svg" width="34" height="34" viewBox="0 0 34 34" role="img" style="width:100%;max-width:34px;height:auto;"><path d="M17,1.113a16.291,16.291,0,0,0-5.148,31.747,0.819,0.819,0,0,0,1.112-.785c0-.387-0.014-1.411-0.022-2.77-4.531.984-5.487-2.184-5.487-2.184a4.314,4.314,0,0,0-1.809-2.383c-1.479-1.011.112-.99,0.112-0.99a3.422,3.422,0,0,1,2.5,1.679,3.468,3.468,0,0,0,4.741,1.354A3.481,3.481,0,0,1,14.027,24.6c-3.617-.411-7.42-1.809-7.42-8.051A6.3,6.3,0,0,1,8.284,12.18a5.859,5.859,0,0,1,.16-4.311s1.368-.438,4.479,1.67a15.44,15.44,0,0,1,8.156,0c3.11-2.108,4.475-1.67,4.475-1.67a5.851,5.851,0,0,1,.162,4.311,6.286,6.286,0,0,1,1.674,4.371c0,6.258-3.809,7.635-7.437,8.038a3.888,3.888,0,0,1,1.106,3.017c0,2.178-.02,3.935-0.02,4.469a0.816,0.816,0,0,0,1.12.783A16.292,16.292,0,0,0,17,1.113Z" style="fill-rule:evenodd"/></svg>
