<?xml version="1.0" encoding="UTF-8"?>
<svg width="241px" height="37px" viewBox="0 0 241 37" version="1.1" xmlns="http://www.w3.org/2000/svg" xmlns:xlink="http://www.w3.org/1999/xlink">
    <!-- Generator: sketchtool 61.2 (101010) - https://sketch.com -->
    <title>Viacom</title>
    <desc>Created with sketchtool.</desc>
    <g id="Wireframe" stroke="none" stroke-width="1" fill="none" fill-rule="evenodd">
        <g id="Desktop-Essentials" transform="translate(-465.000000, -1884.000000)" fill="#4C2E29" fill-rule="nonzero">
            <g id="Fans" transform="translate(0.000000, 1568.000000)">
                <g id="download" transform="translate(465.000000, 316.000000)">
                    <path d="M161.69503,0 C173.67244,0 182.111069,6.49756098 182.111069,18.5 C182.111069,29.9609756 174.216867,37 161.69503,37 C149.445407,37 141.278991,30.3219512 141.278991,18.5 C141.278991,6.85853659 149.354669,0 161.69503,0 Z M161.69503,29.3292683 C168.046687,29.3292683 171.857681,24.997561 171.857681,18.5 C171.857681,11.6414634 167.865211,7.67073171 161.69503,7.67073171 C155.161898,7.67073171 151.53238,12.002439 151.53238,18.5 C151.53238,24.7268293 155.07116,29.3292683 161.69503,29.3292683 Z M85.2936747,0.451219512 C84.1140813,0.451219512 65.2405873,0.451219512 65.2405873,0.451219512 C65.2405873,0.451219512 65.2405873,1.89512195 65.2405873,3.24878049 C65.2405873,5.68536585 66.5109187,8.03170732 70.0496988,8.03170732 C71.592244,8.03170732 82.84375,8.03170732 82.84375,8.03170732 C88.1972892,8.03170732 90.1027861,9.74634146 90.1027861,13.9878049 L90.1027861,14.6195122 L76.4920934,14.6195122 C66.4201807,14.6195122 62.6999247,19.2219512 62.6999247,25.5390244 C62.6999247,33.2097561 67.871988,36.5487805 76.4920934,36.5487805 L76.4920934,36.5487805 C76.4920934,36.5487805 82.1178464,36.5487805 85.4751506,36.5487805 C97.2710843,36.5487805 99.811747,30.6829268 99.811747,22.9219512 L99.811747,13.9878049 C99.811747,5.59512195 96.7266566,0.451219512 85.2936747,0.451219512 Z M90.0120482,23.0121951 C90.0120482,26.6219512 88.2880271,29.4195122 83.3881777,29.4195122 L78.3068524,29.4195122 C74.7680723,29.4195122 72.5903614,28.5170732 72.5903614,25.5390244 C72.5903614,22.7414634 74.5865964,21.6585366 78.3068524,21.6585366 L90.0120482,21.6585366 L90.0120482,23.0121951 Z M128.121988,8.03170732 C128.121988,8.03170732 133.112575,8.03170732 133.112575,8.03170732 C136.651355,8.03170732 138.829066,6.76829268 138.829066,3.5195122 L138.829066,0.451219512 L124.583208,0.451219512 L124.583208,0.451219512 C112.696536,0.451219512 106.980045,7.4 106.980045,18.5 C106.980045,32.397561 115.690889,36.5487805 124.583208,36.5487805 L138.738328,36.5487805 L138.738328,33.4804878 C138.738328,30.2317073 136.560617,28.9682927 133.294051,28.9682927 C131.751506,28.9682927 128.03125,28.9682927 128.03125,28.9682927 C122.405497,28.9682927 117.142696,26.9829268 117.142696,18.5 C117.233434,11.1 121.135166,8.03170732 128.121988,8.03170732 Z M20.8697289,26.7121951 C20.8697289,26.7121951 12.4310994,4.78292683 11.9774096,3.5195122 C11.342244,1.80487805 10.4348645,0.451219512 7.25903614,0.451219512 L0,0.451219512 L14.971762,36.5487805 L25.8603163,36.5487805 L41.2857681,0.451219512 C41.2857681,0.451219512 36.6581325,0.451219512 34.9341114,0.451219512 C32.2119729,0.451219512 31.1231175,1.62439024 30.3972139,3.33902439 L20.9604669,26.7121951 L20.8697289,26.7121951 Z M215.139684,26.3512195 C215.139684,26.3512195 208.969503,8.75365854 207.78991,5.41463415 C207.064006,3.15853659 205.975151,0.36097561 200.893825,0.36097561 C200.25866,0.36097561 189.370105,0.36097561 189.370105,0.36097561 L189.370105,36.4585366 L193.271837,36.4585366 C196.26619,36.4585366 198.080949,35.104878 198.080949,32.1268293 L198.080949,6.94878049 L198.262425,6.94878049 L209.513931,36.5487805 L220.039533,36.5487805 L231.200301,6.94878049 L231.381777,6.94878049 C231.381777,6.94878049 231.381777,32.2170732 231.381777,32.2170732 C231.381777,34.7439024 232.742846,36.5487805 236.190889,36.5487805 L241,36.5487805 L241,0.451219512 C241,0.451219512 232.198419,0.451219512 230.202184,0.451219512 C226.39119,0.451219512 224.032003,1.53414634 222.85241,4.87317073 C222.126506,7.12926829 215.32116,26.3512195 215.32116,26.3512195 L215.139684,26.3512195 Z M45.7319277,0.451219512 L45.7319277,32.3073171 C45.7319277,34.8341463 47.1837349,36.5487805 50.4503012,36.5487805 L55.5316265,36.5487805 L55.5316265,0.451219512 L45.7319277,0.451219512 Z" id="Shape"></path>
                </g>
            </g>
        </g>
    </g>
</svg>