<?xml version="1.0" encoding="utf-8"?>
<!-- Generator: Adobe Illustrator 19.1.0, SVG Export Plug-In . SVG Version: 6.00 Build 0)  -->
<svg version="1.1" id="Layer_1" xmlns="http://www.w3.org/2000/svg" xmlns:xlink="http://www.w3.org/1999/xlink" x="0px" y="0px"
	 viewBox="0 0 144 48.5" style="enable-background:new 0 0 144 48.5;" xml:space="preserve">
<style type="text/css">
	.st0{fill:#C33A32;}
	.st1{fill:#FCE2DD;}
	.st2{fill:#EEA99C;}
	.st3{fill:#DD7A6B;}
</style>
<g>
	<polygon class="st0" points="40.6,20 46.6,20 46.6,17 37.4,17 37.4,31.1 40.6,31.1 40.6,25.8 45.9,25.8 45.9,23 40.6,23 	"/>
	<path class="st0" d="M51.5,20.9c-3,0-5.3,2.2-5.3,5.3s2.3,5.3,5.3,5.3c3,0,5.3-2.2,5.3-5.3S54.5,20.9,51.5,20.9z M51.5,28.6
		c-1.1,0-2.2-0.8-2.2-2.5c0-1.7,1.1-2.5,2.2-2.5c1.2,0,2.2,0.8,2.2,2.5C53.8,27.8,52.7,28.6,51.5,28.6z"/>
	<path class="st0" d="M60.7,22.5v-1.3h-2.9v9.9h3v-4.3c0-2,1.1-2.7,2.3-2.7c0.3,0,0.6,0,1,0.1v-3c-0.2-0.1-0.5-0.1-0.8-0.1
		C62.5,21.1,61.2,21.4,60.7,22.5z"/>
	<path class="st0" d="M76.7,20.9c-1.3,0-2.3,0.4-3.1,1.6c-0.5-1-1.5-1.6-2.9-1.6c-1.1,0-2.4,0.6-2.9,1.4v-1.1h-2.9v9.9h3v-5.7
		c0-0.9,0.6-1.7,1.6-1.7c1.1,0,1.6,0.7,1.6,1.7v5.8h3v-5.7c0-0.9,0.6-1.7,1.7-1.7c1.1,0,1.6,0.7,1.6,1.7v5.8h2.9v-6.4
		C80.4,22,78.6,20.9,76.7,20.9z"/>
	<rect x="82" y="21.2" class="st0" width="3" height="9.9"/>
	<path class="st0" d="M83.5,16.4c-1,0-1.8,0.8-1.8,1.8s0.8,1.8,1.8,1.8c1,0,1.8-0.8,1.8-1.8S84.5,16.4,83.5,16.4z"/>
	<path class="st0" d="M96.4,16.7h-3V22c-0.2-0.4-1-1-2.7-1c-2.8,0-4.8,2.2-4.8,5.2c0,3.1,2.1,5.2,4.9,5.2c1.2,0,2.2-0.5,2.7-1.2
		c0,0.4,0.1,0.8,0.1,1h2.9c0-0.2-0.1-0.9-0.1-1.8V16.7z M91.2,28.6c-1.2,0-2.2-0.8-2.2-2.5c0-1.7,1.1-2.5,2.2-2.5s2.2,0.8,2.2,2.5
		C93.5,27.8,92.4,28.6,91.2,28.6z"/>
	<path class="st0" d="M106.4,24.7c0-2-1.2-3.8-4.4-3.8c-2.9,0-4.2,1.9-4.4,3.3l2.6,0.5c0.1-0.7,0.6-1.5,1.7-1.5c1,0,1.5,0.5,1.5,1.1
		c0,0.3-0.2,0.6-0.7,0.7l-2.3,0.4c-1.6,0.2-2.9,1.2-2.9,3c0,1.6,1.3,3,3.4,3c1.3,0,2.3-0.6,2.8-1.4c0,0.7,0.1,1,0.1,1.1h2.7
		c0-0.1-0.1-0.8-0.1-1.5V24.7z M103.5,27.2c0,1.5-0.9,2-1.8,2c-0.8,0-1.2-0.5-1.2-1c0-0.7,0.5-1,1.1-1.1l1.9-0.3V27.2z"/>
	<path class="st0" d="M113.9,21c-1.4,0-2.5,0.6-2.9,1.2v-5.5h-3v14.5h2.9V30c0.5,0.8,1.5,1.3,2.8,1.3c2.8,0,4.7-2.2,4.7-5.2
		C118.5,23.2,116.7,21,113.9,21z M113.2,28.6c-1.2,0-2.3-0.8-2.3-2.5c0-1.7,1.1-2.5,2.3-2.5c1.2,0,2.2,0.8,2.2,2.5
		C115.4,27.8,114.4,28.6,113.2,28.6z"/>
	<rect x="119.4" y="16.7" class="st0" width="3" height="14.5"/>
	<path class="st0" d="M133.4,26c0-3.2-1.9-5.1-5-5.1c-2.6,0-5,2-5,5.2c0,3.3,2.4,5.3,5.2,5.3c2.5,0,4.1-1.4,4.6-3.2l-2.5-0.7
		c-0.3,0.8-0.9,1.3-2,1.3c-1.2,0-2.2-0.8-2.3-1.9h6.9C133.3,26.9,133.4,26.4,133.4,26z M126.5,25c0.1-0.7,0.7-1.7,2-1.7
		c1.4,0,2,0.9,2,1.7H126.5z"/>
</g>
<polygon class="st0" points="17,11.3 11.4,34.2 17,27.4 "/>
<polygon class="st1" points="17,11.3 29.8,23.2 17,27.4 "/>
<polygon class="st2" points="17,36.6 29.8,23.2 17,27.4 "/>
<polygon class="st3" points="11.4,34.2 17,27.4 17,36.6 "/>
</svg>
