<?xml version="1.0" encoding="utf-8"?>
<!-- Generator: Adobe Illustrator 19.1.0, SVG Export Plug-In . SVG Version: 6.00 Build 0)  -->
<svg version="1.1" id="Layer_1" xmlns="http://www.w3.org/2000/svg" xmlns:xlink="http://www.w3.org/1999/xlink" x="0px" y="0px"
	 viewBox="-55 147 500 500" style="enable-background:new -55 147 500 500;" xml:space="preserve">
<style type="text/css">
	.st0{fill:#1B2633;}
</style>
<polygon class="st0" points="403.5,177 333,210.2 340.5,215.4 384.9,194.8 219.7,433.9 202.6,409.6 105,549.6 105.3,549.6 
	105.3,191.9 169,191.9 171.4,183.4 -15.1,183.4 -17.5,191.9 48.3,191.9 50.7,622 66.4,622 202.5,426.9 219.7,450.2 393.6,200.9 
	389.7,249.5 397.1,254.6 "/>
<g>
	<path class="st0" d="M103.7,602h-1.4c-0.3,0-0.6,0-1.1,0.1c-0.4,0-0.9,0.2-1.3,0.5c-0.4,0.3-0.9,0.7-1.3,1.3
		c-0.4,0.6-0.8,1.4-1.1,2.5h-0.4v-4.9h16v4.9h-0.4c-0.3-1.1-0.6-1.9-1.1-2.5c-0.4-0.6-0.8-1-1.3-1.3c-0.4-0.3-0.9-0.5-1.3-0.5
		c-0.4,0-0.8-0.1-1.1-0.1h-1.4v17.7h2.7v0.5H101v-0.5h2.7V602z M117.3,602h-2.7v-0.5h5.9l4.8,13.9l4.8-13.9h5.7v0.5H133v17.7h2.7
		v0.5h-8.2v-0.5h2.7v-17l-6.2,17.8l-6.1-17.7v16.9h2.7v0.5h-6v-0.5h2.7V602z"/>
</g>
</svg>
