<?xml version="1.0" encoding="utf-8"?>
<!-- Generator: Adobe Illustrator 19.1.0, SVG Export Plug-In . SVG Version: 6.00 Build 0)  -->
<svg version="1.1" id="Layer_1" xmlns="http://www.w3.org/2000/svg" xmlns:xlink="http://www.w3.org/1999/xlink" x="0px" y="0px"
	 viewBox="0 0 144 48" style="enable-background:new 0 0 144 48;" xml:space="preserve">
<style type="text/css">
	.st0{fill:#232222;}
	.st1{fill:#DBDAD9;}
	.st2{fill:#949392;}
	.st3{fill:#5E5D5C;}
</style>
<g>
	<g>
		<polygon class="st0" points="40,20.1 46,20.1 46,17.1 36.8,17.1 36.8,31.2 40,31.2 40,25.9 45.3,25.9 45.3,23.1 40,23.1 		"/>
		<path class="st0" d="M50.9,21c-3,0-5.3,2.2-5.3,5.3s2.3,5.3,5.3,5.3c3,0,5.3-2.2,5.3-5.3S53.9,21,50.9,21z M50.9,28.7
			c-1.1,0-2.2-0.8-2.2-2.5c0-1.7,1.1-2.5,2.2-2.5c1.2,0,2.2,0.8,2.2,2.5C53.2,27.9,52.1,28.7,50.9,28.7z"/>
		<path class="st0" d="M60.1,22.6v-1.3h-2.9v9.9h3v-4.3c0-2,1.1-2.7,2.3-2.7c0.3,0,0.6,0,1,0.1v-3c-0.2-0.1-0.5-0.1-0.8-0.1
			C61.9,21.2,60.6,21.5,60.1,22.6z"/>
		<path class="st0" d="M76.1,21c-1.3,0-2.3,0.4-3.1,1.6c-0.5-1-1.5-1.6-2.9-1.6c-1.1,0-2.4,0.6-2.9,1.4v-1.1h-2.9v9.9h3v-5.7
			c0-0.9,0.6-1.7,1.6-1.7c1.1,0,1.6,0.7,1.6,1.7v5.8h3v-5.7c0-0.9,0.6-1.7,1.7-1.7c1.1,0,1.6,0.7,1.6,1.7v5.8h2.9v-6.4
			C79.8,22.1,78,21,76.1,21z"/>
		<rect x="81.4" y="21.3" class="st0" width="3" height="9.9"/>
		<path class="st0" d="M82.9,16.5c-1,0-1.8,0.8-1.8,1.8s0.8,1.8,1.8,1.8c1,0,1.8-0.8,1.8-1.8S83.9,16.5,82.9,16.5z"/>
		<path class="st0" d="M95.8,16.8h-3v5.3c-0.2-0.4-1-1-2.7-1c-2.8,0-4.8,2.2-4.8,5.2c0,3.1,2.1,5.2,4.9,5.2c1.2,0,2.2-0.5,2.7-1.2
			c0,0.4,0.1,0.8,0.1,1h2.9c0-0.2-0.1-0.9-0.1-1.8V16.8z M90.6,28.7c-1.2,0-2.2-0.8-2.2-2.5c0-1.7,1.1-2.5,2.2-2.5s2.2,0.8,2.2,2.5
			C92.9,27.9,91.8,28.7,90.6,28.7z"/>
		<path class="st0" d="M105.8,24.8c0-2-1.2-3.8-4.4-3.8c-2.9,0-4.2,1.9-4.4,3.3l2.6,0.5c0.1-0.7,0.6-1.5,1.7-1.5
			c1,0,1.5,0.5,1.5,1.1c0,0.3-0.2,0.6-0.7,0.7l-2.3,0.4c-1.6,0.2-2.9,1.2-2.9,3c0,1.6,1.3,3,3.4,3c1.3,0,2.3-0.6,2.8-1.4
			c0,0.7,0.1,1,0.1,1.1h2.7c0-0.1-0.1-0.8-0.1-1.5V24.8z M102.9,27.3c0,1.5-0.9,2-1.8,2c-0.8,0-1.2-0.5-1.2-1c0-0.7,0.5-1,1.1-1.1
			l1.9-0.3V27.3z"/>
		<path class="st0" d="M113.3,21.1c-1.4,0-2.5,0.6-2.9,1.2v-5.5h-3v14.5h2.9v-1.1c0.5,0.8,1.5,1.3,2.8,1.3c2.8,0,4.7-2.2,4.7-5.2
			C117.9,23.3,116.1,21.1,113.3,21.1z M112.6,28.7c-1.2,0-2.3-0.8-2.3-2.5c0-1.7,1.1-2.5,2.3-2.5c1.2,0,2.2,0.8,2.2,2.5
			C114.8,27.9,113.8,28.7,112.6,28.7z"/>
		<rect x="118.8" y="16.8" class="st0" width="3" height="14.5"/>
		<path class="st0" d="M132.8,26.1c0-3.2-1.9-5.1-5-5.1c-2.6,0-5,2-5,5.2c0,3.3,2.4,5.3,5.2,5.3c2.5,0,4.1-1.4,4.6-3.2l-2.5-0.7
			c-0.3,0.8-0.9,1.3-2,1.3c-1.2,0-2.2-0.8-2.3-1.9h6.9C132.7,27,132.8,26.5,132.8,26.1z M125.9,25.1c0.1-0.7,0.7-1.7,2-1.7
			c1.4,0,2,0.9,2,1.7H125.9z"/>
	</g>
	<polygon class="st0" points="17,11.3 11.4,34.3 17,27.5 	"/>
	<polygon class="st1" points="17,11.3 29.8,23.3 17,27.5 	"/>
	<polygon class="st2" points="17,36.7 29.8,23.3 17,27.5 	"/>
	<polygon class="st3" points="11.4,34.3 17,27.5 17,36.7 	"/>
</g>
</svg>
