<svg xmlns="http://www.w3.org/2000/svg" width="91" height="91" viewBox="0 0 91 91">
    <g fill="none" fill-rule="evenodd">
        <path fill="#FF684F" d="M51.774 1.935L81.418 15.12a15.736 15.736 0 0 1 9.34 14.377V61.56c0 6.217-3.66 11.851-9.34 14.378L51.774 89.122a15.736 15.736 0 0 1-12.79 0L9.341 75.938A15.736 15.736 0 0 1 0 61.56V29.497c0-6.217 3.66-11.85 9.34-14.377L38.985 1.935a15.736 15.736 0 0 1 12.79 0z"/>
        <path
            d="M51.774 1.935L81.418 15.12a15.736 15.736 0 0 1 9.34 14.377V61.56c0 6.217-3.66 11.851-9.34 14.378L51.774 89.122a15.736 15.736 0 0 1-12.79 0L9.341 75.938A15.736 15.736 0 0 1 0 61.56V29.497c0-6.217 3.66-11.85 9.34-14.377L38.985 1.935a15.736 15.736 0 0 1 12.79 0z"
            fill="#BC5240"
            transform="scale(0.55), translate(37, 37)"
        />
    </g>
</svg>
