<?xml version="1.0" encoding="UTF-8"?>
<svg width="600px" height="595px" viewBox="0 0 600 595" version="1.1" xmlns="http://www.w3.org/2000/svg" xmlns:xlink="http://www.w3.org/1999/xlink">
    <!-- Generator: sketchtool 62 (101010) - https://sketch.com -->
    <title>Urql</title>
    <desc>Created with sketchtool.</desc>
    <defs>
        <polygon id="path-1" points="0 0.899684211 242.897727 0.899684211 242.897727 229.648853 0 229.648853"></polygon>
        <polygon id="path-3" points="0.000269886364 0.899684211 161.931818 0.899684211 161.931818 123.046946 0.000269886364 123.046946"></polygon>
        <polygon id="path-5" points="0.000134943182 0.899684211 142.258587 0.899684211 142.258587 123.046811 0.000134943182 123.046811"></polygon>
    </defs>
    <g id="Finals" stroke="none" stroke-width="1" fill="none" fill-rule="evenodd">
        <g id="The-Good-Badges-for-OSS-usage" transform="translate(-1698.000000, -328.000000)">
            <g id="URQL-Copy" transform="translate(1698.000000, 318.000000)">
                <path d="M342.276968,19.4007702 L538.247998,106.565184 C575.801346,123.268242 600,160.515702 600,201.616141 L600,413.57732 C600,454.677759 575.801346,491.925219 538.247998,508.628277 L342.276968,595.79269 C315.36338,607.763373 284.63662,607.763373 257.723032,595.79269 L61.7520017,508.628277 C24.1986538,491.925219 2.32856136e-14,454.677759 0,413.57732 L0,201.616141 C2.33883573e-14,160.515702 24.1986538,123.268242 61.7520017,106.565184 L257.723032,19.4007702 C284.63662,7.43008735 315.36338,7.43008735 342.276968,19.4007702 Z" id="Polygon-Copy-4" fill="#202020"></path>
                <path d="M553.161391,452.006415 C546.051993,462.934511 535.837361,471.842461 523.416422,477.348491 L332.268654,562.081654 C311.655676,571.219102 288.140981,571.219102 267.528004,562.081654 L76.380235,477.348491 C63.9592965,471.842461 53.744664,462.934511 46.635266,452.006415 C39.5258681,441.078319 35.5217047,428.130077 35.5217047,414.543463 L35.5217047,200.840733 C35.5217047,187.254119 39.5258681,174.305877 46.635266,163.377781 C53.744664,152.449685 63.9592965,143.541735 76.380235,138.035705 L267.528004,53.3025417 C288.140981,44.165094 311.655676,44.165094 332.268654,53.3025417 L523.416422,138.035705 C535.837361,143.541735 546.051993,152.449685 553.161391,163.377781 C560.270789,174.305877 564.274953,187.254119 564.274953,200.840733 L564.274953,414.543463 C564.274953,428.130077 560.270789,441.078319 553.161391,452.006415 Z" id="Polygon-Copy-5" stroke="#8196FF" stroke-width="24.2467521" opacity="0.499209449"></path>
                <path d="M573.140873,463.712451 C563.636714,478.341603 549.980021,490.272968 533.369887,497.660859 L337.398856,584.825272 C313.590683,595.414722 286.409317,595.414722 262.601144,584.825272 L66.6301133,497.660859 C50.0199787,490.272968 36.363286,478.341603 26.859127,463.712451 C17.354968,449.083299 12.0033426,431.75636 12.0033426,413.57732 L12.0033426,201.616141 C12.0033426,183.4371 17.354968,166.110161 26.859127,151.481009 C36.363286,136.851858 50.0199787,124.920493 66.6301133,117.532602 L262.601144,30.3681883 C286.409317,19.7787381 313.590683,19.7787381 337.398856,30.3681883 L533.369887,117.532602 C549.980021,124.920493 563.636714,136.851858 573.140873,151.481009 C582.645032,166.110161 587.996657,183.4371 587.996657,201.616141 L587.996657,413.57732 C587.996657,431.75636 582.645032,449.083299 573.140873,463.712451 Z" id="Polygon-Copy" stroke="#8196FF" stroke-width="24.0066852"></path>
                <text id="URQL" font-family="Helvetica-Bold, Helvetica" font-size="51" font-weight="bold" line-spacing="51" letter-spacing="2" fill="#8196FF">
                    <tspan x="223" y="464">URQL</tspan>
                </text>
                <g id="Group-24" transform="translate(138.000000, 157.000000)">
                    <g id="Group-3" transform="translate(0.000000, 0.451193)">
                        <mask id="mask-2" fill="white">
                            <use xlink:href="#path-1"></use>
                        </mask>
                        <g id="Clip-2"></g>
                        <path d="M135.063281,169.782028 L180.228764,214.995888 L180.228764,229.648853 L195.341051,214.886467 L161.590412,181.096975 L161.590412,162.961449 L177.12777,178.5168 L218.026349,178.634326 L242.897727,203.530993 L242.897727,177.030835 C242.897727,168.050204 239.333878,159.437011 232.990199,153.086537 L161.931818,81.9520456 L90.5077415,10.4514667 C84.3988636,4.33469474 76.1120028,0.899414035 67.4715909,0.899414035 C58.831179,0.899414035 50.5443182,4.33469474 44.4354403,10.4514667 L0,54.9345018 L26.6580256,54.9345018 C33.8882813,47.6965018 45.6107955,47.6965018 52.8410511,54.9345018 L53.1568182,55.250607 L107.452557,109.604502 L80.7675426,109.604502 L53.1568182,81.9642035 L53.1568182,94.5016947 C53.1568182,103.459361 56.7112216,112.049589 63.037358,118.382502 L81.0455256,136.409958 L107.73054,163.122204 C107.73054,168.725642 109.954403,174.099432 113.912287,178.061554 L135.016051,199.190625 L148.544105,212.731818 L148.440199,225.280116 L161.19098,214.154291 L161.19098,228.545186 L175.762145,214.656818 L135.063281,173.914361" id="Fill-1" fill="#8196FF" mask="url(#mask-2)"></path>
                    </g>
                    <g id="Group-6" transform="translate(161.931818, 0.451193)">
                        <mask id="mask-4" fill="white">
                            <use xlink:href="#path-3"></use>
                        </mask>
                        <g id="Clip-5"></g>
                        <path d="M0.000269886364,81.9519105 L71.4243466,10.4513316 C77.5332244,4.33455965 85.8200852,0.899278947 94.4604972,0.899278947 C103.100909,0.899278947 111.38642,4.33455965 117.496648,10.4513316 L161.932088,54.9343667 L135.274062,54.9343667 C128.043807,47.6963667 116.321293,47.6963667 109.091037,54.9343667 L108.77527,55.2504719 L41.0513352,123.046946" id="Fill-4" fill="#647BED" mask="url(#mask-4)"></path>
                    </g>
                    <g id="Group-23" transform="translate(60.724432, 0.451193)">
                        <mask id="mask-6" fill="white">
                            <use xlink:href="#path-5"></use>
                        </mask>
                        <g id="Clip-22"></g>
                        <path d="M142.258587,123.046811 L101.207521,81.9517754 L29.7834446,10.4511965 C23.6745668,4.33577544 15.387706,0.89914386 6.74729403,0.89914386 C4.46135653,0.89914386 2.20240767,1.14635439 0.000134943182,1.61375789 C6.12385653,2.91195088 11.7955185,5.95277544 16.2891264,10.4511965 L87.7132031,81.9517754 L128.723786,123.006284 L142.258587,123.046811 Z" id="Fill-21" fill="#A2B1FF" mask="url(#mask-6)"></path>
                    </g>
                </g>
                <path d="M203.975476,278.774419 L262.110348,278.774419 L273.816669,267.05556 L218.767947,267.05556 L191.157223,239.415261 L191.157223,251.952753 C191.157223,260.910419 194.711626,269.500647 201.037763,275.83356 L203.975476,278.774419 Z" id="Fill-7" fill="#A2B1FF"></path>
                <path d="M354.522812,319.991304 C354.522812,321.789321 355.978849,323.245567 357.773594,323.245567 C359.568338,323.245567 361.024375,321.789321 361.024375,319.991304 C361.024375,318.193286 359.568338,316.73704 357.773594,316.73704 L354.522812,316.73704 L354.522812,319.991304 Z" id="Fill-9" fill="#4D65DD"></path>
                <path d="M215.456172,208.648223 C202.527266,195.705468 181.566541,195.705468 168.638984,208.648223 L166.486641,210.801521 C173.746584,205.211591 184.189837,205.727626 190.841186,212.3861 L190.965334,212.50903 L191.156953,212.50903 L257.177905,278.785767 L285.229893,278.496679 L218.851342,212.04703 L215.456172,208.648223 Z" id="Fill-11" fill="#647BED"></path>
                <path d="M384.326903,208.648223 C397.25581,195.705468 418.216534,195.705468 431.144091,208.648223 L433.296435,210.801521 C426.036491,205.211591 415.591889,205.727626 408.941889,212.3861 L408.817741,212.50903 L408.626122,212.50903 L340.94267,280.458153 L326.768239,266.268539 L380.930384,212.04703 L384.326903,208.648223 Z" id="Fill-13" fill="#4D65DD"></path>
                <path d="M233.344105,308.174505 L245.73054,320.574207 C245.73054,326.177646 247.954403,331.551435 251.912287,335.513558 L273.016051,356.641277 L286.544105,370.18247 L286.440199,382.732119 L299.19098,371.606295 L299.19098,385.997189 L313.762145,372.10747 L273.063281,331.365014 L275.057741,329.229277 L318.228764,372.447891 L318.228764,387.099505 L333.342401,372.337119 L299.590412,338.548979 L299.590412,320.412102 C291.762358,312.577014 281.146378,308.174505 270.076989,308.174505 L233.344105,308.174505 Z" id="Fill-15" fill="#4D65DD"></path>
                <path d="M313.76174,372.107605 L273.062876,331.365149 L273.062876,331.365149 L249.89718,308.17464 L233.3437,308.17464 L245.730135,320.574342 C245.730135,326.177781 247.953999,331.55157 251.911882,335.513693 L273.016996,356.641412 L286.54505,370.182605 L286.439794,382.732254 L299.191925,371.605079 L299.191925,385.997325 L313.76174,372.107605 Z" id="Fill-17" fill="#647BED"></path>
                <path d="M417.428196,167.90293 C411.319318,161.786158 403.032457,158.350877 394.392045,158.350877 C392.106108,158.350877 389.847159,158.598088 387.644886,159.065491 C393.768608,160.362333 399.44027,163.404509 403.933878,167.90293 L448.369318,212.385965 L461.863636,212.385965 L417.428196,167.90293 Z" id="Fill-19" fill="#8196FF"></path>
            </g>
        </g>
    </g>
</svg>