<?xml version="1.0" encoding="UTF-8"?>
<svg width="208px" height="65px" viewBox="0 0 208 65" version="1.1" xmlns="http://www.w3.org/2000/svg" xmlns:xlink="http://www.w3.org/1999/xlink">
    <!-- Generator: sketchtool 61.2 (101010) - https://sketch.com -->
    <title>Airbnb</title>
    <desc>Created with sketchtool.</desc>
    <g id="Wireframe" stroke="none" stroke-width="1" fill="none" fill-rule="evenodd">
        <g id="Desktop-Essentials" transform="translate(-220.000000, -1724.000000)" fill="#4C2E29" fill-rule="nonzero">
            <g id="Fans" transform="translate(0.000000, 1568.000000)">
                <g id="download" transform="translate(220.000000, 156.000000)">
                    <path d="M109.623305,16.3313313 C109.623305,18.6736737 107.738943,20.5605606 105.399734,20.5605606 C103.060526,20.5605606 101.176164,18.6736737 101.176164,16.3313313 C101.176164,13.988989 102.995548,12.1021021 105.399734,12.1021021 C107.803921,12.1671672 109.623305,14.0540541 109.623305,16.3313313 Z M92.2092,24.8548549 C92.2092,25.2452452 92.2092,25.8958959 92.2092,25.8958959 C92.2092,25.8958959 90.1948819,23.2932933 85.9063338,23.2932933 C78.8237315,23.2932933 73.3006014,28.6936937 73.3006014,36.1761762 C73.3006014,43.5935936 78.7587535,49.0590591 85.9063338,49.0590591 C90.2598599,49.0590591 92.2092,46.3913914 92.2092,46.3913914 L92.2092,47.4974975 C92.2092,48.018018 92.599068,48.4084084 93.118892,48.4084084 L98.3821102,48.4084084 L98.3821102,23.9439439 C98.3821102,23.9439439 93.5737381,23.9439439 93.118892,23.9439439 C92.599068,23.9439439 92.2092,24.3993994 92.2092,24.8548549 Z M92.2092,40.5355355 C91.23453,41.966967 89.2851899,43.2032032 86.9459818,43.2032032 C82.7873897,43.2032032 79.6034676,40.6006006 79.6034676,36.1761762 C79.6034676,31.7517518 82.7873897,29.1491491 86.9459818,29.1491491 C89.2202119,29.1491491 91.299508,30.4504505 92.2092,31.8168168 L92.2092,40.5355355 Z M102.28079,23.9439439 L108.518679,23.9439439 L108.518679,48.4084084 L102.28079,48.4084084 L102.28079,23.9439439 Z M195.459246,23.2932933 C191.170697,23.2932933 189.156379,25.8958959 189.156379,25.8958959 L189.156379,12.1671672 L182.918491,12.1671672 L182.918491,48.4084084 C182.918491,48.4084084 187.726863,48.4084084 188.181709,48.4084084 C188.701533,48.4084084 189.091401,47.952953 189.091401,47.4974975 L189.091401,46.3913914 L189.091401,46.3913914 C189.091401,46.3913914 191.105719,49.0590591 195.394268,49.0590591 C202.47687,49.0590591 208,43.5935936 208,36.1761762 C208,28.7587588 202.47687,23.2932933 195.459246,23.2932933 Z M194.419598,43.1381381 C192.015411,43.1381381 190.131049,41.9019019 189.156379,40.4704705 L189.156379,31.7517518 C190.131049,30.4504505 192.210345,29.0840841 194.419598,29.0840841 C198.57819,29.0840841 201.762112,31.6866867 201.762112,36.1111111 C201.762112,40.5355355 198.57819,43.1381381 194.419598,43.1381381 Z M179.669591,33.8988989 L179.669591,48.4734735 L173.431703,48.4734735 L173.431703,34.6146146 C173.431703,30.5805806 172.132143,28.953954 168.623331,28.953954 C166.738969,28.953954 164.789629,29.9299299 163.555046,31.3613614 L163.555046,48.4084084 L157.317158,48.4084084 L157.317158,23.9439439 L162.255486,23.9439439 C162.77531,23.9439439 163.165178,24.3993994 163.165178,24.8548549 L163.165178,25.8958959 C164.984563,24.009009 167.388749,23.2932933 169.792935,23.2932933 C172.522011,23.2932933 174.796241,24.0740741 176.615625,25.6356356 C178.824877,27.4574575 179.669591,29.7997998 179.669591,33.8988989 Z M142.177284,23.2932933 C137.888736,23.2932933 135.874418,25.8958959 135.874418,25.8958959 L135.874418,12.1671672 L129.636529,12.1671672 L129.636529,48.4084084 C129.636529,48.4084084 134.444901,48.4084084 134.899747,48.4084084 C135.419571,48.4084084 135.80944,47.952953 135.80944,47.4974975 L135.80944,46.3913914 L135.80944,46.3913914 C135.80944,46.3913914 137.823758,49.0590591 142.112306,49.0590591 C149.194908,49.0590591 154.718038,43.5935936 154.718038,36.1761762 C154.783016,28.7587588 149.259886,23.2932933 142.177284,23.2932933 Z M141.137636,43.1381381 C138.73345,43.1381381 136.849088,41.9019019 135.874418,40.4704705 L135.874418,31.7517518 C136.849088,30.4504505 138.928384,29.0840841 141.137636,29.0840841 C145.296228,29.0840841 148.48015,31.6866867 148.48015,36.1111111 C148.48015,40.5355355 145.296228,43.1381381 141.137636,43.1381381 Z M124.243355,23.2932933 C126.127717,23.2932933 127.102387,23.6186186 127.102387,23.6186186 L127.102387,29.4094094 C127.102387,29.4094094 121.904147,27.6526527 118.655247,31.3613614 L118.655247,48.4734735 L112.417359,48.4734735 L112.417359,23.9439439 C112.417359,23.9439439 117.225731,23.9439439 117.680577,23.9439439 C118.200401,23.9439439 118.590269,24.3993994 118.590269,24.8548549 L118.590269,25.8958959 C119.759873,24.5295295 122.294015,23.2932933 124.243355,23.2932933 Z M59.4602869,46.1961962 C59.1353969,45.4154154 58.8105069,44.5695696 58.4856168,43.8538539 C57.9657928,42.6826827 57.4459688,41.5765766 56.9911228,40.5355355 L56.9261448,40.4704705 C52.4426626,30.7107107 47.6342905,20.8208208 42.5660063,11.0610611 L42.3710723,10.6706707 C41.8512483,9.69469469 41.3314243,8.65365365 40.8116002,7.61261261 C40.1618202,6.44144144 39.5120402,5.20520521 38.4723922,4.03403403 C36.3930961,1.43143143 33.404108,0 30.2201859,0 C26.9712858,0 24.0472757,1.43143143 21.9030016,3.9039039 C20.9283316,5.07507508 20.2135735,6.31131131 19.5637935,7.48248248 C19.0439695,8.52352352 18.5241455,9.56456456 18.0043215,10.5405405 L17.8093874,10.9309309 C12.8060813,20.6906907 7.93273111,30.5805806 3.44924895,40.3403403 L3.38427095,40.4704705 C2.92942493,41.5115115 2.40960092,42.6176176 1.8897769,43.7887888 C1.56488689,44.5045045 1.23999688,45.2852853 0.915106865,46.1311311 C0.0703928358,48.5385385 -0.189519173,50.8158158 0.135370838,53.1581582 C0.850128863,58.038038 4.09902897,62.1371371 8.58251113,63.958959 C10.2719392,64.6746747 12.0263452,65 13.8457293,65 C14.3655533,65 15.0153334,64.9349349 15.5351574,64.8698699 C17.6794314,64.6096096 19.8886835,63.8938939 22.0329576,62.6576577 C24.6970557,61.1611612 27.2311978,59.014014 30.0902299,55.8908909 C32.949262,59.014014 35.5483821,61.1611612 38.1475021,62.6576577 C40.2917762,63.8938939 42.5010283,64.6096096 44.6453024,64.8698699 C45.1651264,64.9349349 45.8149064,65 46.3347304,65 C48.1541145,65 49.9734986,64.6746747 51.5979486,63.958959 C56.1464088,62.1371371 59.3303309,57.972973 60.0450889,53.1581582 C60.5649129,50.8808809 60.3050009,48.6036036 59.4602869,46.1961962 Z M30.1552079,49.5795796 C26.6463958,45.1551552 24.3721657,40.990991 23.5924296,37.4774775 C23.2675396,35.980981 23.2025616,34.6796797 23.3974956,33.5085085 C23.5274516,32.4674675 23.9173197,31.5565566 24.4371437,30.7757758 C25.6717257,29.019019 27.7510218,27.9129129 30.1552079,27.9129129 C32.559394,27.9129129 34.703668,28.953954 35.8732721,30.7757758 C36.3930961,31.5565566 36.7829641,32.4674675 36.9129201,33.5085085 C37.1078541,34.6796797 37.0428761,36.046046 36.7179861,37.4774775 C35.9382501,40.9259259 33.66402,45.0900901 30.1552079,49.5795796 Z M56.0814308,52.6376376 C55.6265847,56.021021 53.3523547,58.9489489 50.1684326,60.2502503 C48.6089605,60.9009009 46.9195324,61.0960961 45.2301044,60.9009009 C43.6056543,60.7057057 41.9812043,60.1851852 40.2917762,59.2092092 C37.9525681,57.9079079 35.6133601,55.8908909 32.884284,52.8978979 C37.1728321,47.6276276 39.7719522,42.8128128 40.7466222,38.5185185 C41.2014683,36.5015015 41.2664463,34.6796797 41.0715122,32.987988 C40.8116002,31.3613614 40.2267982,29.8648649 39.3171062,28.5635636 C37.3027881,25.6356356 33.923932,23.9439439 30.1552079,23.9439439 C26.3864837,23.9439439 23.0076276,25.7007007 20.9933096,28.5635636 C20.0836175,29.8648649 19.4988155,31.3613614 19.2389035,32.987988 C18.9789915,34.6796797 19.0439695,36.5665666 19.5637935,38.5185185 C20.5384635,42.8128128 23.2025616,47.6926927 27.4261318,52.962963 C24.7620337,55.955956 22.3578476,57.972973 20.0186395,59.2742743 C18.3292115,60.2502503 16.7047614,60.7707708 15.0803114,60.965966 C13.3259053,61.1611612 11.6364772,60.9009009 10.1419832,60.3153153 C6.95806107,59.014014 4.68383099,56.0860861 4.22898498,52.7027027 C4.03405097,51.0760761 4.16400698,49.4494494 4.813787,47.6276276 C5.00872101,46.976977 5.33361102,46.3263263 5.65850103,45.5455455 C6.11334704,44.5045045 6.63317106,43.3983984 7.15299508,42.2922923 L7.21797308,42.1621622 C11.7014552,32.4674675 16.5098274,22.5775776 21.5131336,12.9479479 L21.7080676,12.5575576 C22.2278916,11.5815816 22.7477156,10.5405405 23.2675396,9.56456456 C23.7873637,8.52352352 24.3721657,7.54754755 25.0869237,6.7017017 C26.4514617,5.14014014 28.2708458,4.29429429 30.2851639,4.29429429 C32.2994819,4.29429429 34.118866,5.14014014 35.4834041,6.7017017 C36.1981621,7.54754755 36.7829641,8.52352352 37.3027881,9.56456456 C37.8226121,10.5405405 38.3424362,11.5815816 38.8622602,12.5575576 L39.0571942,12.9479479 C43.9955223,22.6426426 48.8038945,32.5325325 53.2873767,42.2272272 L53.2873767,42.2922923 C53.8072007,43.3333333 54.2620467,44.5045045 54.7818707,45.5455455 C55.1067607,46.3263263 55.4316507,46.976977 55.6265847,47.6276276 C56.1464088,49.3193193 56.3413428,50.9459459 56.0814308,52.6376376 Z" id="Shape"></path>
                </g>
            </g>
        </g>
    </g>
</svg>