<?xml version="1.0" encoding="UTF-8"?>
<svg width="317px" height="37px" viewBox="0 0 317 37" version="1.1" xmlns="http://www.w3.org/2000/svg" xmlns:xlink="http://www.w3.org/1999/xlink">
    <!-- Generator: sketchtool 61.2 (101010) - https://sketch.com -->
    <title>FiveThirtyEight</title>
    <desc>Created with sketchtool.</desc>
    <g id="Wireframe" stroke="none" stroke-width="1" fill="none" fill-rule="evenodd">
        <g id="Desktop-Essentials" transform="translate(-494.000000, -1746.000000)" fill="#4C2E29" fill-rule="nonzero">
            <g id="Fans" transform="translate(0.000000, 1568.000000)">
                <g id="download" transform="translate(494.000000, 178.000000)">
                    <polygon id="Path" points="31 0 48 0 48 5.294352 37.1761595 5.294352 37.1761595 12.4101242 47.2115541 12.4101242 47.2115541 17.7112726 37.1761595 17.7112726 37.1761595 29 31 29"></polygon>
                    <path d="M53,24.087283 L55.9392202,24.087283 L55.9392202,12.0776631 L53,12.0776631 L53,7.16494603 L61.1995413,7.16494603 L61.1995413,24.087283 L64,24.087283 L64,29 L53,29 L53,24.087283 Z M55.9455275,0 L61.2184633,0 L61.2184633,5.44345378 L55.9455275,5.44345378 L55.9455275,0 Z" id="Shape"></path>
                    <polygon id="Path" points="67 18.5130678 67 8 72.6779864 8 72.6779864 17.1409459 75.2317219 23.981954 75.7682781 23.981954 78.3220136 17.1409459 78.3220136 8 84 8 84 18.5130678 79.476628 29 71.523372 29"></polygon>
                    <path d="M104.986476,29 L96.1957041,29 C90.6575179,29 88,26.6661571 88,21.272088 L88,15.111281 C88,10.0198716 90.6169451,7 96.5,7 C102.809069,7 105,9.87190462 105,15.878019 L105,20.2766738 L93.6396181,20.2766738 L93.6396181,21.6218282 C93.6396181,23.3839804 94.5254574,24.1103638 96.1754177,24.1103638 L104.966189,24.1103638 L104.966189,28.9663711 L104.986476,29 Z M93.6396181,16.1806787 L99.3333333,16.1806787 L99.3333333,14.6942831 C99.3333333,12.9321308 98.5624503,11.4390095 96.4864757,11.4390095 C94.5998409,11.4390095 93.6396181,12.5084072 93.6396181,14.6942831 L93.6396181,16.1470498 L93.6396181,16.1806787 Z" id="Shape"></path>
                    <polygon id="Path" points="114.499116 5.294352 108 5.294352 108 0 127 0 127 5.294352 120.500884 5.294352 120.500884 29 114.499116 29"></polygon>
                    <path d="M135.626287,29 L130,29 L130,0 L135.626287,0 L135.626287,9.93625498 C136.591744,7.93511688 138.632269,6.69447403 140.835313,6.76915866 C145.048298,6.76915866 147,8.89641434 147,14.1160066 L147,29 L141.373713,29 L141.373713,14.3063042 C141.373713,12.1790485 140.451702,11.2887274 138.5,11.2887274 C136.548298,11.2887274 135.626287,12.1790485 135.626287,14.3063042 L135.626287,29 L135.626287,29 Z" id="Path"></path>
                    <path d="M152,24.087283 L154.93922,24.087283 L154.93922,12.0776631 L152,12.0776631 L152,7.16494603 L160.199541,7.16494603 L160.199541,24.087283 L163,24.087283 L163,29 L152,29 L152,24.087283 Z M154.945528,0 L160.218463,0 L160.218463,5.44345378 L154.945528,5.44345378 L154.945528,0 L154.945528,0 Z" id="Shape"></path>
                    <path d="M168,29 L168,8.00773146 L173.41676,8.00773146 L173.41676,10.7183075 C174.337226,8.96098121 176.235107,7.89814759 178.256983,8.00773146 L180,8.00773146 L180,12.7300122 L176.145251,12.7300122 C174.241341,12.7300122 173.631285,13.5072617 173.631285,15.4405882 L173.631285,29 L168,29 Z" id="Path"></path>
                    <path d="M197,29 L192.80771,29 C187.913263,29 185.366223,26.7538995 185.366223,21.7737064 L185.366223,12.3414211 L182,12.3414211 L182,7.51497896 L185.366223,7.51497896 L185.366223,2 L191.121156,2 L191.121156,7.51497896 L196.993116,7.51497896 L196.993116,12.348106 L191.121156,12.348106 L191.121156,21.9608814 C191.121156,23.4449121 191.90592,24.166873 193.785223,24.166873 L196.993116,24.166873 L196.993116,29 L197,29 Z" id="Path"></path>
                    <polygon id="Path" points="204.276179 37 207.408473 30.6271108 202 18.7936618 202 8 207.680256 8 207.680256 17.3849179 210.228217 24.2139718 210.771783 24.2139718 213.319744 17.3849179 213.319744 8 219 8 219 18.7936618 210.690248 37"></polygon>
                    <polygon id="Path" points="224 0 241 0 241 5.294352 230.106597 5.294352 230.106597 11.635341 240.028962 11.635341 240.028962 16.9364893 230.106597 16.9364893 230.106597 23.6988517 241 23.6988517 241 29 224 29"></polygon>
                    <path d="M245,24.087283 L247.93922,24.087283 L247.93922,12.0776631 L245,12.0776631 L245,7.16494603 L253.199541,7.16494603 L253.199541,24.087283 L256,24.087283 L256,29 L245,29 L245,24.087283 Z M247.945528,0 L253.218463,0 L253.218463,5.44345378 L247.945528,5.44345378 L247.945528,0 Z" id="Shape"></path>
                    <path d="M259,33.7054343 L259,32.5506381 L270.130255,32.5506381 C271.439697,32.5506381 271.80634,32.2789214 271.80634,31.5452861 L271.80634,31.3143269 C271.80634,30.5806916 271.43315,30.3089749 270.130255,30.3089749 L261.232598,30.3089749 L261.232598,28.2710992 L264.250861,23.5568135 C260.787388,22.5514615 259.373191,20.0041169 259.373191,16.2136682 L259.373191,15.3985179 C259.373191,10.2630712 261.828394,7.20625772 268.087526,7.20625772 C269.395345,7.19351167 270.698918,7.36257351 271.963473,7.70893372 L274.346657,4 L278,6.35714286 L275.505513,10.2630712 C276.443217,11.7932638 276.900691,13.5874131 276.814955,15.3985179 L276.814955,16.2136682 C276.814955,20.9687114 274.543074,23.7877727 268.847002,24.018732 L267.53756,26.0566077 L271.636113,26.0566077 C275.512061,26.0566077 277.410751,28.0265541 277.410751,31.4909428 L277.410751,31.5656649 C277.410751,35.0028818 275.512061,37 271.636113,37 L263.124742,37 C260.296347,37 259.026189,35.8791684 259.026189,33.7122273 M271.426602,16.6348291 L271.426602,15.0113215 C271.426602,12.7696583 270.496899,11.6895842 268.113715,11.6895842 C265.730531,11.6895842 264.800827,12.7696583 264.800827,15.0113215 L264.800827,16.5940716 C264.800827,18.8357349 265.730531,19.915809 268.113715,19.915809 C270.496899,19.915809 271.426602,18.8357349 271.426602,16.5940716" id="Shape"></path>
                    <path d="M287.644269,29 L282,29 L282,0 L287.644269,0 L287.644269,9.93625498 C288.6082,7.93511688 290.645499,6.69447403 292.845059,6.76915866 C297.051383,6.76915866 299,8.89641434 299,14.1160066 L299,29 L293.382609,29 L293.382609,14.3063042 C293.382609,12.1790485 292.462055,11.2887274 290.513439,11.2887274 C288.564822,11.2887274 287.644269,12.1790485 287.644269,14.3063042 L287.644269,29 Z" id="Path"></path>
                    <path d="M317,29 L312.852535,29 C307.937788,29 305.380184,26.7538995 305.380184,21.7737064 L305.380184,12.3414211 L302,12.3414211 L302,7.51497896 L305.380184,7.51497896 L305.380184,2 L311.158986,2 L311.158986,7.51497896 L317,7.51497896 L317,12.348106 L311.103687,12.348106 L311.103687,21.9608814 C311.103687,23.4449121 311.891705,24.166873 313.778802,24.166873 L317,24.166873 L317,29 L317,29 Z" id="Path"></path>
                    <path d="M17.3727941,5 L11.5492647,11.2442478 C11.252406,11.53837 10.7939175,11.53837 10.4970588,11.2442478 L4.64705882,5 L2,6.4159292 L2,14.2035398 C3.8,16.1575221 8.51176471,21 11,21 C13.4882353,21 18.1933824,16.1575221 20,14.2035398 L20,6.4159292 L17.3727941,5 Z" id="Path"></path>
                    <path d="M20.5328933,0.0586712246 C20.2506371,-0.0602477227 19.9259841,0.00492618245 19.7089833,0.224070687 L10.4967603,9.61214419 L1.29751233,0.237302644 C1.08037301,0.0144113118 0.752660707,-0.0525167247 0.468102595,0.0679139328 C0.183544483,0.18834459 -0.00140354015,0.472240683 8.02381677e-06,0.78642886 L8.02381677e-06,14.6799837 C8.02381677e-06,17.7034859 0.746076449,19.4831841 2.96479493,21.7458488 L9.80908734,28.7124741 C10.1904732,29.095842 10.8030474,29.095842 11.1844333,28.7124741 L18.0352132,21.7326168 C20.2539317,19.4699522 20.999992,17.6902539 20.999992,14.6667518 L20.999992,0.773196903 C20.999992,0.460704394 20.8157455,0.178860651 20.5328933,0.0586712246 Z M19.3197344,14.6667518 C19.3197344,17.2006715 18.7423486,18.590027 16.8674666,20.5086608 L12.5468043,24.9215185 L12.0797057,24.4782479 L12.0797057,24.4782479 L12.0797057,24.4782479 L11.5023199,23.8894258 C10.959381,23.3550489 10.0990145,23.3550489 9.55607558,23.8894258 L8.93976489,24.4782479 L8.93976489,24.4782479 L8.93976489,24.4782479 L8.4921287,24.9347504 L4.15200395,20.5086608 C2.25765951,18.5767951 1.68027371,17.2006715 1.68027371,14.6535198 L1.68027371,6.97236876 L4.27526609,5.64917306 L9.99722428,11.4844661 C10.2882439,11.7593254 10.7377142,11.7593254 11.0287338,11.4844661 L16.737717,5.68225296 L19.3327094,7.00544866 L19.3327094,14.6667518 L19.3197344,14.6667518 Z M5.1900009,14.9909347 L1.68027371,14.2631771 C3.41729888,16.0987084 5.31521466,17.7684715 7.35033206,19.2516249 L7.35033206,17.1675916 C7.35033206,15.8774758 7.13624518,15.4739011 5.1900009,14.9909347 Z M13.6237261,17.1675916 L13.6237261,19.2582409 C15.6590542,17.7729036 17.5569715,16.1009248 19.2937845,14.2631771 L15.8164947,14.9843187 C13.8313255,15.4739011 13.6237261,15.8774758 13.6237261,17.1675916 Z" id="Shape"></path>
                </g>
            </g>
        </g>
    </g>
</svg>