<svg xmlns="http://www.w3.org/2000/svg" viewBox="0 0 18 24">
    <g fill="currentColor" fill-rule="nonzero">
        <path d="M16.03.609h.145c-.006.122.08.189.212.189.135 0 .199-.051.199-.128 0-.087-.081-.114-.261-.162-.185-.05-.27-.118-.27-.244 0-.135.126-.244.318-.244.201 0 .334.108.334.267h-.141c-.001-.101-.078-.158-.193-.158-.106 0-.178.049-.178.121 0 .079.054.108.172.14.221.061.362.094.362.267 0 .152-.14.249-.343.249-.218 0-.357-.12-.357-.297zM16.935.032h.214l.212.567a.779.779 0 0 1 .052.172h.005S17.42.727 17.47.6l.216-.567h.207v.862h-.132l.002-.744h-.005s-.008.056-.053.17l-.219.574h-.147L17.125.32a1.07 1.07 0 0 1-.054-.17h-.004v.744h-.132V.032zM15.802 8.39l2.147-3.808a.393.393 0 0 0 0-.386l-2.255-4c0-.002-.003-.003-.003-.006a.326.326 0 0 0-.029-.042l-.028-.033V.114a.354.354 0 0 0-.034-.03l-.01-.008a.345.345 0 0 0-.123-.061l-.011-.003a.418.418 0 0 0-.035-.007l-.012-.002A.412.412 0 0 0 15.363 0H2.637c-.015 0-.031 0-.046.003L2.58.005a.418.418 0 0 0-.035.007l-.01.003a.406.406 0 0 0-.085.035L2.44.056l-.029.02-.01.007a.279.279 0 0 0-.033.03l-.001.001a.373.373 0 0 0-.03.034l-.007.01a.326.326 0 0 0-.02.032l-.004.006-2.255 4a.393.393 0 0 0 0 .386l2.204 3.911v12.83c0 .015 0 .031.003.046l.002.012a.436.436 0 0 0 .007.036l.002.01a.42.42 0 0 0 .035.087l.005.008a.351.351 0 0 0 .058.074v.001l.034.03.01.007a.32.32 0 0 0 .03.021c.003 0 .004.003.007.004l3.939 2.29a.383.383 0 0 0 .38 0l3.94-2.29.006-.004a.32.32 0 0 0 .03-.02l.01-.009.033-.028.002-.001c.01-.01.02-.023.029-.034l.007-.01.02-.03.005-.01a.377.377 0 0 0 .035-.085l.003-.011a.436.436 0 0 0 .007-.036l.001-.012c.002-.016.004-.031.004-.047V16.78h4.465c.015 0 .031 0 .046-.003.004 0 .007 0 .012-.002a.418.418 0 0 0 .035-.007l.01-.002a.406.406 0 0 0 .167-.1h.001a.337.337 0 0 0 .056-.075l.004-.007 2.254-4a.393.393 0 0 0 0-.387L15.802 8.39zm-2.917 3.612H6.596a.378.378 0 0 0-.263.089l-.008.007-.018.017h-.001a.391.391 0 0 0-.113.276v6.415l-3.174 1.846V8.779H14.7l-1.816 3.223zm-2.753 8.65l-3.174-1.845v-5.48l3.174 3.225v4.1zm2.753-16.65H5.114L3.297.776h11.406l-1.818 3.224zm-7.771.776h7.771l1.817 3.225H3.297l1.817-3.225zm10.248 2.83L13.548 4.39l1.814-3.22 1.814 3.22-1.814 3.219zM2.637 1.172L4.451 4.39 2.637 7.609.823 4.389l1.814-3.218zm3.94 21.994l-3.17-1.843 3.17-1.843 3.168 1.843-3.169 1.843zm4.096-7.16L7.5 12.78h5.384l1.818 3.224h-4.029zm4.689-.394l-1.814-3.22 1.814-3.219 1.814 3.22-1.814 3.219z"/>
    </g>
</svg>
