<?xml version="1.0" encoding="UTF-8"?>
<svg width="600px" height="595px" viewBox="0 0 600 595" version="1.1" xmlns="http://www.w3.org/2000/svg" xmlns:xlink="http://www.w3.org/1999/xlink">
    <!-- Generator: sketchtool 62 (101010) - https://sketch.com -->
    <title>Spectacle</title>
    <desc>Created with sketchtool.</desc>
    <g id="Finals" stroke="none" stroke-width="1" fill="none" fill-rule="evenodd">
        <g id="The-Good-Badges-for-OSS-usage" transform="translate(-998.000000, -328.000000)">
            <g id="Spex" transform="translate(998.000000, 318.000000)">
                <path d="M342.276968,19.4007702 L538.247998,106.565184 C575.801346,123.268242 600,160.515702 600,201.616141 L600,413.57732 C600,454.677759 575.801346,491.925219 538.247998,508.628277 L342.276968,595.79269 C315.36338,607.763373 284.63662,607.763373 257.723032,595.79269 L61.7520017,508.628277 C24.1986538,491.925219 2.32856136e-14,454.677759 0,413.57732 L0,201.616141 C2.33883573e-14,160.515702 24.1986538,123.268242 61.7520017,106.565184 L257.723032,19.4007702 C284.63662,7.43008735 315.36338,7.43008735 342.276968,19.4007702 Z" id="Polygon-Copy-4" fill="#202020"></path>
                <path d="M553.161391,452.006415 C546.051993,462.934511 535.837361,471.842461 523.416422,477.348491 L332.268654,562.081654 C311.655676,571.219102 288.140981,571.219102 267.528004,562.081654 L76.380235,477.348491 C63.9592965,471.842461 53.744664,462.934511 46.635266,452.006415 C39.5258681,441.078319 35.5217047,428.130077 35.5217047,414.543463 L35.5217047,200.840733 C35.5217047,187.254119 39.5258681,174.305877 46.635266,163.377781 C53.744664,152.449685 63.9592965,143.541735 76.380235,138.035705 L267.528004,53.3025417 C288.140981,44.165094 311.655676,44.165094 332.268654,53.3025417 L523.416422,138.035705 C535.837361,143.541735 546.051993,152.449685 553.161391,163.377781 C560.270789,174.305877 564.274953,187.254119 564.274953,200.840733 L564.274953,414.543463 C564.274953,428.130077 560.270789,441.078319 553.161391,452.006415 Z" id="Polygon-Copy-5" stroke="#FC6986" stroke-width="24.2467521" opacity="0.499209449"></path>
                <path d="M573.140873,463.712451 C563.636714,478.341603 549.980021,490.272968 533.369887,497.660859 L337.398856,584.825272 C313.590683,595.414722 286.409317,595.414722 262.601144,584.825272 L66.6301133,497.660859 C50.0199787,490.272968 36.363286,478.341603 26.859127,463.712451 C17.354968,449.083299 12.0033426,431.75636 12.0033426,413.57732 L12.0033426,201.616141 C12.0033426,183.4371 17.354968,166.110161 26.859127,151.481009 C36.363286,136.851858 50.0199787,124.920493 66.6301133,117.532602 L262.601144,30.3681883 C286.409317,19.7787381 313.590683,19.7787381 337.398856,30.3681883 L533.369887,117.532602 C549.980021,124.920493 563.636714,136.851858 573.140873,151.481009 C582.645032,166.110161 587.996657,183.4371 587.996657,201.616141 L587.996657,413.57732 C587.996657,431.75636 582.645032,449.083299 573.140873,463.712451 Z" id="Polygon-Copy" stroke="#FC6986" stroke-width="24.0066852"></path>
                <text id="SPECTACLE" font-family="Helvetica-Bold, Helvetica" font-size="51" font-weight="bold" line-spacing="51" letter-spacing="2" fill="#FC6986">
                    <tspan x="138.5" y="464">SPECTACLE</tspan>
                </text>
                <g id="Peacock-Glyph" transform="translate(153.000000, 175.000000)" fill="#FC6986">
                    <path d="M130.282493,41.924564 C131.451969,31.315131 137.893081,24.4651275 146.70313,24.4651275 C155.51318,24.4651275 161.954292,31.315131 163.123768,41.924564 L166.854095,72 L176,27.8843633 C176.00959,12.4937663 163.041005,0.00980796886 147.032983,0 L147.002996,0 C130.994973,-0.00979641813 118.010195,12.4591703 118,27.8497673 L118,27.8555333 L126.750077,70.1894772 L130.282493,41.924564 Z" id="Fill-1"></path>
                    <path d="M122,103.855382 L108.747896,36.701945 C102.804851,22.5615447 86.2471136,16.1585704 71.7058718,22.376038 C57.1705436,28.6353942 50.1748994,45.1514774 56.1179445,59.2858935 L116.79614,148 L122,103.855382 Z" id="Fill-4"></path>
                    <path d="M117.406088,160.217966 L117.406088,159.664801 L117.472751,159.117458 L117.569717,158.331381 L47.4395765,64.1011171 C36.5309823,54.6623691 18.9560249,56.3626247 8.10197371,67.9034011 C-2.73389653,79.4441774 -2.69753455,96.4350883 8.19287866,105.891305 L118,166 C117.604866,164.095947 117.406088,162.159286 117.406088,160.217966" id="Fill-6"></path>
                    <path d="M285.974029,67.8402674 L285.974029,67.8402674 C275.251876,56.3730629 257.825379,54.6836463 247.049255,64.0622227 L176.743595,158.947264 L176.743595,159.039835 L176.743595,159.589474 C176.741795,161.746373 176.492332,163.895751 176,166 L285.884078,105.586 C296.660201,96.2363517 296.720169,79.3074718 285.974029,67.8402674" id="Fill-8"></path>
                    <path d="M222.442252,22.3657754 L222.442252,22.3657754 C208.049427,16.1883053 191.618059,22.5256907 185.754315,36.5212438 L172,106.303557 L176.914766,148 L237.912928,58.897545 C243.776671,44.9079147 236.864366,28.5610139 222.442252,22.3657754" id="Fill-10"></path>
                    <path d="M138.702687,43.7146757 L124,161.065055 C124,172.627092 133.850101,182 146,182 C158.150535,182 168,172.627092 168,161.065055 L153.297313,43.7146757 C152.807859,39.2263262 150.754695,34 146,34 C141.245305,34 139.192141,39.2263262 138.702687,43.7146757" id="Fill-12"></path>
                </g>
            </g>
        </g>
    </g>
</svg>