<svg version="1.1" xmlns="http://www.w3.org/2000/svg" xmlns:xlink="http://www.w3.org/1999/xlink" x="0px" y="0px"
	 viewBox="0 0 251.3 105" xml:space="preserve" role="img" aria-labelledby="title"
   style="height:100%;width:auto;max-width:100%;">
<title>Ookla</title>
<g>
	<polygon points="162.9,78.8 123.5,39.4 123.5,46.3 155.9,78.8 	"/>
	<polygon points="153,78.8 123.5,49.3 123.5,56.3 145.9,78.8 	"/>
	<polygon points="142.9,78.8 123.5,59.4 123.5,66.3 136,78.8 	"/>
	<polygon points="162,27.7 162,20.8 134.8,48 138.3,51.5 	"/>
	<polygon points="172,0.8 129.8,43 133.3,46.5 172,7.8 	"/>
	<polygon points="162,0.8 124.8,38 128.3,41.5 162,7.8 	"/>
	<path d="M46.6,53.3c0-11.2-7.6-20.4-19.3-20.4S8,42.1,8,53.3s7.6,20.4,19.3,20.4C39,73.6,46.6,64.5,46.6,53.3 M0.7,53.3
		c0-15.2,11-26.9,26.6-26.9s26.6,11.7,26.6,26.9s-11,26.9-26.6,26.9C11.8,80.1,0.7,68.4,0.7,53.3"/>
	<path d="M103,53.3c0-11.2-7.6-20.4-19.3-20.4s-19.3,9.2-19.3,20.4S72,73.7,83.7,73.7C95.4,73.6,103,64.5,103,53.3 M57,53.3
		c0-15.2,11-26.9,26.6-26.9s26.6,11.7,26.6,26.9s-11,26.9-26.6,26.9C68.1,80.1,57,68.4,57,53.3"/>
	<polygon points="165.1,27.7 172,27.7 172,72.3 197.5,72.3 197.5,78.8 165.1,78.8 	"/>
	<polygon points="224.7,36.7 224.6,36.7 207.4,78.8 199.6,78.8 221.1,27.7 228.6,27.7 249.7,78.8 241.9,78.8 	"/>
	<rect x="114.1" y="27.7" width="7" height="51.1"/>
	<g>
		<path d="M247.3,27.7c0.6,0,1.1,0.1,1.7,0.4s1,0.7,1.3,1.3c0.3,0.6,0.5,1.1,0.5,1.7c0,0.6-0.2,1.2-0.5,1.7s-0.7,1-1.3,1.3
			c-0.5,0.3-1.1,0.5-1.7,0.5s-1.2-0.2-1.7-0.5s-1-0.7-1.3-1.3c-0.3-0.5-0.5-1.1-0.5-1.7c0-0.6,0.2-1.2,0.5-1.7
			c0.3-0.6,0.7-1,1.3-1.3C246.1,27.9,246.7,27.7,247.3,27.7z M247.3,28.3c-0.5,0-1,0.1-1.4,0.4c-0.5,0.2-0.8,0.6-1.1,1.1
			c-0.3,0.5-0.4,0.9-0.4,1.4s0.1,1,0.4,1.4c0.3,0.5,0.6,0.8,1.1,1.1s0.9,0.4,1.4,0.4s1-0.1,1.4-0.4c0.5-0.3,0.8-0.6,1.1-1.1
			c0.3-0.5,0.4-0.9,0.4-1.4s-0.1-1-0.4-1.4c-0.3-0.5-0.6-0.8-1.1-1.1C248.2,28.4,247.7,28.3,247.3,28.3z M245.7,33.1v-3.7h1.3
			c0.4,0,0.8,0,0.9,0.1c0.2,0.1,0.4,0.2,0.5,0.4s0.2,0.4,0.2,0.5c0,0.3-0.1,0.5-0.3,0.7c-0.2,0.2-0.5,0.3-0.8,0.3
			c0.1,0.1,0.2,0.1,0.3,0.2c0.1,0.1,0.3,0.4,0.5,0.7l0.5,0.7h-0.7l-0.3-0.6c-0.3-0.5-0.5-0.8-0.6-0.9c-0.1-0.1-0.3-0.1-0.5-0.1h-0.4
			V33L245.7,33.1L245.7,33.1z M246.3,31h0.7c0.3,0,0.6-0.1,0.7-0.2c0.1-0.1,0.2-0.2,0.2-0.4c0-0.1,0-0.2-0.1-0.3s-0.1-0.2-0.3-0.2
			c-0.1,0-0.3-0.1-0.6-0.1h-0.7L246.3,31L246.3,31z"/>
	</g>
</g>
</svg>
