<?xml version="1.0" encoding="UTF-8"?>
<svg width="127px" height="110px" viewBox="0 0 127 110" version="1.1" xmlns="http://www.w3.org/2000/svg" xmlns:xlink="http://www.w3.org/1999/xlink">
    <!-- Generator: sketchtool 61.2 (101010) - https://sketch.com -->
    <title>CA76DC93-1D42-4EFE-9145-50B69F4BF33A</title>
    <desc>Created with sketchtool.</desc>
    <g id="Wireframe" stroke="none" stroke-width="1" fill="none" fill-rule="evenodd">
        <g id="Desktop-Essentials" transform="translate(-1097.000000, -1702.000000)" fill="#4C2E29">
            <g id="Fans" transform="translate(0.000000, 1568.000000)">
                <g id="logo-usafacts.0ed5725a" transform="translate(1097.000000, 134.000000)">
                    <path d="M113.22887,50 L83.5633065,50 C63.473751,50 53.4189261,39.502518 46.0768694,31.8376704 C41.6268621,27.1917164 38.1121946,23.5223084 33.9121137,23.5223084 C29.7986906,23.5223084 26.8965938,25.5810818 23.5364035,27.9649573 C18.7224959,31.380234 12.7311716,35.6307349 0.77112946,35.6307349 C0.345375573,35.6307349 0,35.289827 0,34.8695807 C0,34.4490243 0.345375573,34.1084264 0.77112946,34.1084264 C12.2344587,34.1084264 17.7604679,30.1876764 22.6365431,26.7290115 C26.2130641,24.1917275 29.3019777,22 33.9121137,22 C38.7762577,22 42.4924988,25.8798411 47.1974561,30.7917031 C54.7448543,38.6713228 64.138128,48.4776916 83.5633065,48.4776916 L113.22887,48.4776916 C113.654624,48.4776916 114,48.8182895 114,49.2388458 C114,49.6590922 113.654624,50 113.22887,50" id="Path"></path>
                    <path d="M43.4234612,58.6465605 C37.8714697,58.6465605 33.7929555,53.1219367 29.0704818,46.7252683 C22.4321425,37.7335058 14.9083983,27.5424858 0.771118631,27.5424858 C0.345370723,27.5424858 0,27.1973734 0,26.7712429 C0,26.3454264 0.345370723,26 0.771118631,26 C15.6864243,26 23.795101,36.9839306 30.3109906,45.8089464 C34.7854253,51.8699231 38.6498098,57.1040747 43.4234612,57.1040747 C48.1983684,57.1040747 50.9829983,54.292304 54.5089194,50.7319002 C59.516167,45.6754862 65.7479108,39.3824457 80.4990084,39.3824457 L114.873756,39.3824457 C115.299818,39.3824457 115.644875,39.7278721 115.644875,40.1536887 C115.644875,40.5798191 115.299818,40.9249315 114.873756,40.9249315 L80.4990084,40.9249315 C66.3909283,40.9249315 60.660286,46.7117653 55.6043726,51.8174811 C51.9754682,55.4818268 48.8416998,58.6465605 43.4234612,58.6465605 M37.9517841,104.940635 L41.150545,97.8028697 L44.4111586,105.125908 L37.8695232,105.125908 L37.9517841,104.940635 Z M44.890282,106.229389 L44.925447,106.307894 L46.4673703,109.788537 L47.8127463,109.788537 L41.7960743,96.4883648 L40.5420646,96.4883648 L34.5253926,109.788537 L35.794159,109.788537 L37.3907137,106.229389 L44.890282,106.229389 L44.890282,106.229389 Z M16.3373854,96.5842679 L15.0814918,96.5842679 L15.0814918,104.282565 C15.0814918,105.761619 14.7069215,106.905608 13.9681422,107.682817 C13.2262231,108.463481 12.1910528,108.859151 10.890889,108.859151 C9.56372349,108.859151 8.51159872,108.446524 7.76340014,107.632574 C7.02053909,106.82302 6.64314309,105.663643 6.64314309,104.186474 L6.64314309,96.5842679 L5.38599365,96.5842679 L5.38599365,104.282565 C5.38599365,106.098252 5.88521133,107.520781 6.86794802,108.509328 C7.85099869,109.498504 9.19103714,110 10.8525842,110 C12.5263764,110 13.8736362,109.495364 14.8566869,108.50085 C15.8394236,107.504766 16.3373854,106.046752 16.3373854,104.167947 L16.3373854,96.5842679 Z M29.6017876,108.96168 C30.4250257,108.291867 30.8426103,107.391246 30.8426103,106.284311 C30.8426103,105.303615 30.5054029,104.518555 29.8397794,103.950171 C29.1619108,103.372053 28.0586084,102.912322 26.5596994,102.583539 C25.1050607,102.269515 24.1402205,101.921577 23.6121173,101.520568 C23.0739669,101.111394 22.8008101,100.538929 22.8008101,99.8194995 C22.8008101,99.1518847 23.0830721,98.5894682 23.6403749,98.1482643 C24.1863746,97.7142834 24.913223,97.494466 25.798628,97.494466 C27.1791689,97.494466 28.4783908,97.9673862 29.6620704,98.9003519 L30.387035,97.9378686 C29.0667769,96.911638 27.5367846,96.3909865 25.8378746,96.3909865 C24.5920283,96.3909865 23.5527763,96.7307598 22.7477486,97.4005732 C21.9486863,98.0628496 21.5439746,98.9220193 21.5439746,99.9542162 C21.5439746,100.998032 21.8874615,101.808213 22.5640742,102.363094 C23.2566994,102.930535 24.3992486,103.390895 25.9612662,103.730668 C27.3527962,104.019884 28.2765059,104.355262 28.7845148,104.756271 C29.302571,105.165444 29.5656806,105.731002 29.5656806,106.437241 C29.5656806,107.157612 29.2705457,107.752688 28.6871831,108.20551 C28.1170074,108.652052 27.3590757,108.877835 26.4344241,108.877835 C25.5075746,108.877835 24.665184,108.719253 23.9292304,108.405543 C23.2274999,108.108163 22.5216877,107.645919 21.8309463,107.030746 L21.0579438,107.943929 C22.6061465,109.296115 24.3951669,109.981316 26.376025,109.981316 C27.685294,109.981316 28.770386,109.638088 29.6017876,108.96168 M56.3816765,99.0620744 L56.3816765,101.854061 L62.6375963,101.854061 L62.6375963,104.476476 L56.3816765,104.476476 L56.3816765,109.553615 L53.4968891,109.553615 L53.4968891,96.4396598 L63.4809288,96.4396598 L63.4809288,99.0620744 M71.7244256,99.8113354 L69.9825012,104.064162 L73.4663499,104.064162 L71.7244256,99.8113354 L71.7244256,99.8113354 Z M75.6952469,109.553615 L74.4964966,106.612467 L68.9523546,106.612467 L67.7536042,109.553615 L64.8129294,109.553615 L70.4321111,96.3463949 L73.0917797,96.3463949 L78.7112753,109.553615 L75.6952469,109.553615 L75.6952469,109.553615 Z M87.6853252,109.777923 C83.8259649,109.777923 80.9606433,106.799091 80.9606433,103.03363 L80.9606433,102.99626 C80.9606433,99.2681683 83.7700776,96.2142846 87.7970997,96.2142846 C90.26964,96.2142846 91.7497106,97.0385975 92.966672,98.2378553 L91.1314974,100.355319 C90.1205029,99.4367991 89.0900427,98.8753237 87.7785758,98.8753237 C85.5678889,98.8753237 83.9763577,100.710794 83.9763577,102.95952 L83.9763577,102.99626 C83.9763577,105.244986 85.5314681,107.11814 87.7785758,107.11814 C89.2768563,107.11814 90.194601,106.518982 91.2250612,105.581934 L93.0611775,107.436873 C91.7120341,108.8795 90.2137527,109.777923 87.6853252,109.777923 M102.952941,99.0996314 L102.952941,109.55349 L100.068153,109.55349 L100.068153,99.0996314 L96.0778655,99.0996314 L96.0778655,96.4398482 L106.942287,96.4398482 L106.942287,99.0996314 M115.186474,109.741307 C113.200906,109.741307 111.196186,109.047942 109.622866,107.642685 L111.328055,105.600273 C112.507653,106.57469 113.74408,107.193002 115.242362,107.193002 C116.422901,107.193002 117.134365,106.725107 117.134365,105.956376 L117.134365,105.919007 C117.134365,105.187959 116.684755,104.813329 114.493221,104.251854 C111.852077,103.576703 110.147515,102.846911 110.147515,100.24271 L110.147515,100.205341 C110.147515,97.8256674 112.058044,96.2517796 114.736864,96.2517796 C116.647078,96.2517796 118.277228,96.8518794 119.607219,97.919875 L118.108938,100.092607 C116.946609,99.2874488 115.804687,98.8000842 114.699187,98.8000842 C113.594001,98.8000842 113.01315,99.3056625 113.01315,99.9431309 L113.01315,99.9798723 C113.01315,100.841868 113.575477,101.122919 115.842051,101.703863 C118.501719,102.397229 120,103.352489 120,105.637642 L120,105.675325 C120,108.279526 118.014433,109.741307 115.186474,109.741307" id="Shape"></path>
                    <path d="M4.0763932,18.9451036 C19.8920772,19.2068524 26.9251295,26.0076267 34.0902373,33.3663394 C42.0836651,29.125131 49.0982546,24.0269767 55.0948901,19.6689832 C56.3991732,18.7206132 57.6571429,17.8063707 58.870364,16.9409713 C55.6556567,13.5316609 51.8858155,11.1161196 45.5850142,11.1161196 L27.1585736,11.1809306 C20.1727734,10.9630153 18.8287485,10.7519881 16.9680798,10.4595557 C15.8493629,10.2842215 14.5810665,10.085092 11.7105798,9.83837178 C9.73381488,9.66836027 9.33608369,9.95891405 9.27662743,10.0187155 C9.20527987,10.0907277 9.23719851,10.4354473 9.26066807,10.6874901 C9.3451586,11.5910873 9.50193541,13.273043 6.6280065,13.6575258 C5.75055694,13.7749371 4.67345945,16.3376339 4.0763932,18.9451036 M61.1863426,17.2024071 C62.1830177,18.363996 63.1349441,19.5910222 64.0978229,20.8324507 C69.3540712,27.6106821 74.7890012,34.6196657 89.9009102,34.6196657 L103.192519,34.6331289 C103.246968,34.6209181 103.303295,34.6149692 103.360561,34.6149692 L114.918549,34.6149692 C114.74863,33.601162 114.533649,31.8280952 114.560873,29.4507516 C114.628778,23.5632805 116.582387,22.3847844 118.305993,21.3453032 C119.547378,20.5963758 120.449235,20.0528398 120.617904,17.5042323 C119.866564,14.1844676 122.122774,11.8221527 123.775658,10.0922932 C124.633393,9.19401864 125.520231,8.26599995 125.44325,7.71181871 C125.393182,7.35113126 124.891246,6.98637356 124.479432,6.74372358 C122.705445,5.69954596 122.27423,4.22924366 121.959112,3.15563494 C121.661205,2.13932291 121.515381,1.79836057 120.929892,1.64932652 C120.039926,1.42233138 119.153401,1.58952503 118.615479,2.08484408 C118.38266,2.29962845 118.123869,2.66501236 118.212114,3.1878839 C118.774133,6.51798085 117.458898,10.8994566 114.353402,12.1715687 C114.312721,12.1881629 114.270476,12.201626 114.227292,12.2110189 C114.20257,12.2166546 111.724182,12.7774109 110.224006,13.9305462 C109.117807,14.8973889 108.266017,16.6504176 107.18892,18.8665163 C106.835311,19.593527 106.470125,20.3458984 106.061441,21.1399117 C104.365372,24.4383859 99.0693821,29.9094384 93.9301687,28.2431375 C91.7008716,27.5079863 89.6608948,24.691055 87.6878852,21.9668003 C87.1233637,21.1868762 86.5898212,20.4504727 86.0559666,19.765417 C86.0008912,19.6946572 85.959272,19.6160699 85.9317347,19.5334123 C82.6982516,15.4105545 78.8245181,11.0835575 73.7306794,11.0835575 C70.5528976,11.0835575 66.342454,13.5883314 61.1863426,17.2024071 M52.8740415,69.9391697 C53.0430225,69.9391697 53.2126293,69.9469972 53.3812975,69.9632782 C54.618301,70.0822549 55.6863236,70.6304873 56.3885336,71.5074713 C56.7221146,71.9242031 57.0879273,72.3493884 57.4415356,72.7607975 C58.5824704,74.0867622 59.7618953,75.4584391 60.3683494,77.069948 C61.19354,79.2647562 62.8151318,80.2184489 64.9956127,80.9748905 C65.1573964,81.0312478 65.3257516,81.1016947 65.4978619,81.1749597 C66.2876916,81.5105993 66.4967274,81.5287585 66.7404981,81.2823518 C66.8331248,81.131752 66.6425518,80.4560894 66.5615034,80.1677272 C66.5352175,80.0744247 66.5092445,79.9826866 66.485462,79.8934545 C65.5050592,76.2255261 67.0784602,72.820599 70.3113173,71.6129849 C71.1355691,71.3048977 71.9329092,70.6802697 72.7771883,70.0193225 C74.1931867,68.9100207 75.7960028,67.6548159 77.9126465,67.7139912 C78.4590184,67.7293329 78.955009,67.7525021 79.4112578,67.7734795 C81.7500804,67.8811849 82.8165381,67.9303411 84.4296807,66.8119595 C87.9181997,64.3923478 96.3231275,62.334363 102.395492,64.9415195 C104.622912,65.8980301 105.788881,67.2102185 106.420995,69.4704639 C107.162947,72.1227064 110.257803,75.3739029 111.903177,76.1876413 C112.567523,76.5163929 113.155514,76.610635 113.476265,76.4396842 C113.674348,76.3332313 113.799833,76.0846325 113.848962,75.7001497 C113.985711,74.6340553 113.911548,72.2216449 112.651074,70.7172151 C106.62252,63.5231913 106.643487,61.6239464 107.243056,58.3367438 C107.627331,56.230542 108.133336,55.5755437 108.971982,54.4906635 C109.000772,54.4530919 109.030187,54.4152071 109.059915,54.3766962 L103.022599,54.3735653 C102.974095,54.3735653 102.925905,54.3691819 102.878026,54.359789 L102.818258,54.3485176 L80.1303657,54.3485176 C58.4353944,54.3485176 47.6049631,48.1116304 39.717618,41.0763467 C32.3497329,46.1513317 22.3479345,51.3484246 6.41020874,51.5857519 C9.32137608,55.0417137 18.856912,64.9039479 32.9108125,64.9706376 C33.2691148,64.9765864 33.623662,64.9675065 33.9825902,64.9643756 C36.7438651,64.942772 39.6033993,64.9167849 41.173671,66.4049337 C41.6993897,66.9030706 42.2041423,67.2834831 42.6919967,67.6510587 C43.5415957,68.2913415 44.3442555,68.8962445 45.1297043,69.9873866 C45.9361192,71.1079599 46.7653779,71.7272652 47.5940107,71.8280823 C48.3647519,71.9238899 49.2159155,71.5751002 50.1306034,70.797681 C50.7664728,70.257276 51.8050801,69.9391697 52.8740415,69.9391697 M66.4022232,83 C65.8248714,83 65.2856969,82.7711264 64.8920336,82.6036196 C64.7527808,82.545071 64.617596,82.4865215 64.4871051,82.4414355 C62.2434127,81.6627643 60.0156797,80.5399989 58.9160515,77.616928 C58.4069179,76.2621584 57.318555,74.9969345 56.2655529,73.7730393 C55.9034955,73.3519242 55.528608,72.9160935 55.177816,72.4780712 C54.6167364,71.7770476 53.8106344,71.5641418 53.2329696,71.5084106 C52.3236014,71.4219959 51.489023,71.6799876 51.1347887,71.9808736 C49.8765061,73.050412 48.6235432,73.5181785 47.4065669,73.3691445 C46.1301344,73.2135355 44.9406959,72.3810112 43.8707957,70.8944279 C43.2230352,69.9942748 42.5446077,69.4829878 41.758846,68.8909219 C41.2365695,68.4973593 40.6961432,68.0903335 40.1072131,67.532082 C38.9909996,66.4750674 36.4522163,66.4951056 33.9957332,66.5167093 C33.6317981,66.5198402 33.2631692,66.5182747 32.9067444,66.5226581 C27.7731638,66.4982365 19.94903,65.153486 11.8100909,58.8846631 C6.95345142,55.1444095 4.31734763,51.4595739 4.20719703,51.304591 C4.04635214,51.0775959 4.01944035,50.7823457 4.13584949,50.5296766 C4.25257156,50.2773206 4.49571647,50.1066829 4.77265756,50.0822613 L5.20199451,50.0446897 C5.22421238,50.0428112 5.24674318,50.0418719 5.26958691,50.0418719 C21.1944827,50.0418719 31.1969069,45.0016405 38.5388189,39.9999201 C36.8596484,38.4328709 35.305023,36.840774 33.7885749,35.2815522 C24.4295302,40.1116956 13.7496174,43.7307808 1.77543509,43.7307808 C1.34703694,43.7307808 1,43.3835566 1,42.9549272 C1,42.5259846 1.34703693,42.1787603 1.77543509,42.1787603 C13.2592595,42.1787603 23.5692917,38.7428367 32.6523341,34.1140144 C25.4227631,26.704267 18.7448839,20.4896098 3.12540562,20.4896098 C2.89509076,20.4896098 2.67666715,20.3869141 2.52959109,20.2100144 C2.38188917,20.0331147 2.32086825,19.7995446 2.36248765,19.5731756 C2.66790517,17.910945 3.86328938,12.4614962 6.42241293,12.1189684 C7.81869677,11.9323628 7.7908462,11.6327292 7.71605646,10.8315146 C7.66442337,10.2748286 7.59307583,9.51212499 8.1757474,8.92538169 C8.78376608,8.31265137 9.88182973,8.12385405 11.8429483,8.29198696 C14.7678845,8.54309054 16.0646573,8.74691653 17.2087212,8.92632099 C19.0133759,9.20967349 20.317659,9.41475191 27.1798527,9.62922319 L45.5825108,9.56409902 C52.5485965,9.56409902 56.7064682,12.3428326 60.1464836,16.0370611 C65.6042573,12.2060093 70.1060366,9.53153697 73.7306794,9.53153697 C79.5974498,9.53153697 83.8091452,14.2943646 87.2960998,18.7591241 C87.3524267,18.8311363 87.3946717,18.9112892 87.4222098,18.9955122 C87.9275877,19.6523891 88.4436058,20.3649973 88.9439775,21.0560018 C90.6869855,23.4630896 92.6628111,26.1907883 94.4123903,26.7675125 C98.6049969,28.1257262 103.242274,23.2285801 104.682055,20.4298083 C105.08229,19.6511367 105.444348,18.9072188 105.793888,18.1877226 C106.953911,15.8009861 107.870164,13.9158306 109.225141,12.7429702 C109.235467,12.7338904 109.246108,12.7254368 109.25706,12.7166701 C110.897427,11.4448711 113.360169,10.8208694 113.820486,10.7119117 C116.068872,9.74005939 117.133765,6.12034797 116.682523,3.44650181 C116.525433,2.51723069 116.846811,1.60486677 117.564667,0.943606462 C118.484049,0.0957404891 119.921013,-0.208902638 121.313229,0.144896676 C122.80433,0.525309216 123.146047,1.69065529 123.44771,2.71855188 C123.742487,3.72390552 124.021306,4.67321484 125.26582,5.40586122 C126.308808,6.01984392 126.869262,6.7039603 126.979726,7.49797364 C127.159972,8.79544655 126.111664,9.89347676 124.897191,11.1643365 C123.315654,12.8203051 121.522578,14.697007 122.151875,17.2518764 C122.170651,17.3267065 122.177535,17.4040414 122.173468,17.4810632 C121.977575,20.943287 120.452677,21.8631652 119.107088,22.6747119 C117.596586,23.5855104 116.169947,24.4459002 116.112056,29.468285 C116.071375,33.0297605 116.609924,35.1760386 116.615557,35.1973292 C116.675013,35.4293339 116.624006,35.6766803 116.47693,35.8664169 C116.330167,36.0555273 116.10392,36.1669898 115.864217,36.1669898 L103.570849,36.1669898 C103.516399,36.1792006 103.460385,36.1851494 103.402806,36.1851494 L89.8999715,36.1716862 C74.0292125,36.1716862 68.1017341,28.5277424 62.8720847,21.7839517 C61.8779131,20.5021337 60.9134696,19.2585134 59.914604,18.1016209 C58.6635187,18.9933204 57.3608003,19.9404381 56.0067617,20.9245012 C50.0592559,25.2471148 43.1254017,30.2867199 35.2202196,34.5279283 C36.7066266,36.0549012 38.2196326,37.5934585 39.8402857,39.0953836 C41.2450186,38.1013014 42.5508663,37.1206825 43.7853665,36.1945423 C48.5731618,32.6001917 52.3555201,29.7616566 56.7371352,29.7616566 C60.9031429,29.7616566 63.7238742,32.2313638 66.9905274,35.0905632 C71.4021836,38.9529245 76.8928148,43.7598989 88.095004,43.7598989 L114.240748,43.7598989 C114.669146,43.7598989 115.016183,44.1071231 115.016183,44.5357525 C115.016183,44.9646951 114.669146,45.3119194 114.240748,45.3119194 L88.095004,45.3119194 C76.3101432,45.3119194 70.5760542,40.2923524 65.9688182,36.2587272 C62.8129414,33.4959615 60.3198456,31.3136772 56.7371352,31.3136772 C52.8727898,31.3136772 49.2731813,34.0157021 44.7160137,37.4362839 C43.5534869,38.3088846 42.3280617,39.2284497 41.0193976,40.1630435 C43.7343592,42.5626169 46.7825889,44.835073 50.5070556,46.7750205 C58.2861278,50.8268054 67.9762501,52.796497 80.1303657,52.796497 L102.891169,52.796497 C102.939986,52.796497 102.98849,52.8011934 103.036055,52.8102732 L103.09645,52.8215447 L110.492811,52.8253018 C110.548199,52.8253018 110.603275,52.8312507 110.657099,52.8431484 L110.742841,52.8616211 C110.996,52.916413 111.204722,53.0936257 111.299853,53.3343972 C111.394982,53.5751686 111.364002,53.8475627 111.217239,54.0604685 C110.81857,54.6387582 110.475288,55.0830425 110.199286,55.4402859 C109.411333,56.4591027 109.085575,56.8808439 108.769205,58.6153999 C108.280725,61.2911246 108.01192,62.7651841 113.839888,69.720002 C115.442391,71.6323969 115.566935,74.5028678 115.387941,75.8974007 C115.242429,77.0314371 114.666643,77.5624492 114.209142,77.8076039 C113.425258,78.2274666 112.362868,78.1466877 111.215675,77.5787302 C109.303999,76.6331781 105.8208,73.0836003 104.927078,69.8887612 C104.424202,68.0903335 103.5721,67.1360146 101.783718,66.3679883 C96.4304616,64.0701713 88.5828583,65.8203821 85.3137022,68.0875156 C83.2690314,69.5055307 81.7898216,69.4379018 79.3399102,69.3239346 C78.8917976,69.3032703 78.404569,69.2810404 77.8682108,69.2653855 C76.3120208,69.218421 75.0603096,70.202171 73.7334957,71.241339 C72.8335153,71.9461198 71.9028681,72.675009 70.8539341,73.0670062 C67.9884542,74.1374839 67.3575918,77.1482222 67.9840732,79.4923776 C68.0059782,79.5747219 68.0300736,79.6598844 68.0541691,79.745986 C68.2779124,80.5393728 68.5845817,81.6255053 67.842317,82.374746 C67.3763675,82.8453306 66.8766218,83 66.4022232,83" id="Shape"></path>
                </g>
            </g>
        </g>
    </g>
</svg>