<svg xmlns="http://www.w3.org/2000/svg" viewBox="0 0 245.4 315.2">
  <g fill="currentColor" fill-rule="nonzero">
    <g>
      <path
        d="M202.4,116.1l25.1-43.9c0.8-1.4,0.8-3.1,0-4.5l-26.4-46.1c0,0,0,0,0-0.1c-0.1-0.1-0.2-0.2-0.2-0.4
        c0,0-0.1-0.1-0.1-0.1c-0.1-0.1-0.2-0.3-0.3-0.4c0,0,0,0,0,0c-0.1-0.1-0.3-0.2-0.4-0.3c0,0-0.1-0.1-0.1-0.1
        c-0.1-0.1-0.2-0.2-0.3-0.2c0,0-0.1,0-0.1-0.1c-0.3-0.2-0.6-0.3-1-0.4c0,0-0.1,0-0.1,0c-0.1,0-0.3-0.1-0.4-0.1c0,0-0.1,0-0.1,0
        c-0.2,0-0.4,0-0.5,0h-149c-0.2,0-0.4,0-0.5,0c0,0-0.1,0-0.1,0c-0.1,0-0.3,0-0.4,0.1c0,0-0.1,0-0.1,0c-0.3,0.1-0.7,0.2-1,0.4
        c0,0-0.1,0-0.1,0.1c-0.1,0.1-0.2,0.1-0.3,0.2c0,0-0.1,0.1-0.1,0.1c-0.1,0.1-0.3,0.2-0.4,0.3c0,0,0,0,0,0c-0.1,0.1-0.2,0.3-0.3,0.4
        c0,0-0.1,0.1-0.1,0.1c-0.1,0.1-0.2,0.2-0.2,0.4c0,0,0,0,0,0.1L17.9,67.7c-0.8,1.4-0.8,3.1,0,4.5l25.8,45.1v147.9c0,0.2,0,0.4,0,0.5
        c0,0,0,0.1,0,0.1c0,0.1,0,0.3,0.1,0.4c0,0,0,0.1,0,0.1c0.1,0.3,0.2,0.7,0.4,1c0,0,0,0.1,0.1,0.1c0.1,0.1,0.1,0.2,0.2,0.3
        c0,0,0.1,0.1,0.1,0.1c0.1,0.1,0.2,0.3,0.3,0.4c0,0,0,0,0,0c0.1,0.1,0.3,0.2,0.4,0.3c0,0,0.1,0.1,0.1,0.1c0.1,0.1,0.2,0.2,0.4,0.2
        c0,0,0,0,0.1,0l46.1,26.4c0.7,0.4,1.5,0.6,2.2,0.6c0.8,0,1.5-0.2,2.2-0.6l46.1-26.4c0,0,0,0,0.1,0c0.1-0.1,0.2-0.2,0.4-0.2
        c0,0,0.1-0.1,0.1-0.1c0.1-0.1,0.3-0.2,0.4-0.3c0,0,0,0,0,0c0.1-0.1,0.2-0.3,0.3-0.4c0,0,0.1-0.1,0.1-0.1c0.1-0.1,0.2-0.2,0.2-0.3
        c0,0,0-0.1,0.1-0.1c0.2-0.3,0.3-0.6,0.4-1c0,0,0-0.1,0-0.1c0-0.1,0.1-0.3,0.1-0.4c0,0,0-0.1,0-0.1c0-0.2,0-0.4,0-0.5v-52.4h52.3
        c0.2,0,0.4,0,0.5,0c0,0,0.1,0,0.1,0c0.1,0,0.3,0,0.4-0.1c0,0,0.1,0,0.1,0c0.3-0.1,0.7-0.2,1-0.4c0,0,0.1,0,0.1-0.1
        c0.1-0.1,0.2-0.1,0.3-0.2c0,0,0.1-0.1,0.1-0.1c0.1-0.1,0.3-0.2,0.4-0.3c0,0,0,0,0,0c0.1-0.1,0.2-0.2,0.3-0.4c0,0,0.1-0.1,0.1-0.1
        c0.1-0.1,0.2-0.2,0.2-0.4c0,0,0,0,0-0.1l26.4-46.1c0.8-1.4,0.8-3.1,0-4.5L202.4,116.1z M168.2,157.7H94.5c-1.1-0.1-2.2,0.3-3.1,1
        c0,0-0.1,0.1-0.1,0.1c-0.1,0.1-0.1,0.1-0.2,0.2c0,0,0,0,0,0c-0.8,0.8-1.3,1.9-1.3,3.2v74l-37.2,21.3V120.5h136.8L168.2,157.7z
        M136,257.4l-37.2-21.3V173l37.2,37.2V257.4z M168.2,65.4h-91L55.9,28.3h133.6L168.2,65.4z M77.2,74.4h91l21.3,37.2H55.9L77.2,74.4
        z M197.2,107L176,69.9l21.2-37.1l21.2,37.1L197.2,107z M48.2,32.8l21.2,37.1L48.2,107L26.9,69.9L48.2,32.8z M94.3,286.4l-37.1-21.2
        l37.1-21.2l37.1,21.2L94.3,286.4z M142.3,203.8l-37.2-37.2h63.1l21.3,37.2H142.3z M197.2,199.3L176,162.2l21.2-37.1l21.2,37.1
        L197.2,199.3z"
      />
    </g>
    <circle cx="223.3" cy="26" r="5.5" fill="none" stroke="currentColor" stroke-width="2"/>
    <path
      fill="currentColor"
      d="M223.1,25.6c0.3,0,0.5-0.1,0.6-0.2c0.1-0.1,0.2-0.3,0.2-0.5c0-0.2-0.1-0.4-0.2-0.5c-0.1-0.1-0.3-0.1-0.6-0.1
      h-0.6v1.3H223.1 M222.5,26.5v2h-1.3v-5.2h2c0.7,0,1.2,0.1,1.5,0.3c0.3,0.2,0.5,0.6,0.5,1.1c0,0.3-0.1,0.6-0.2,0.8
      c-0.2,0.2-0.4,0.4-0.7,0.5c0.2,0,0.3,0.1,0.5,0.3c0.1,0.1,0.3,0.4,0.4,0.7l0.7,1.5h-1.4l-0.6-1.3c-0.1-0.3-0.3-0.4-0.4-0.5
      c-0.1-0.1-0.3-0.1-0.5-0.1H222.5"
    />
  </g>
</svg>
