<?xml version="1.0" encoding="UTF-8"?>
<svg width="280px" height="280px" viewBox="0 0 280 280" version="1.1" xmlns="http://www.w3.org/2000/svg" xmlns:xlink="http://www.w3.org/1999/xlink">
    <!-- Generator: sketchtool 61.2 (101010) - https://sketch.com -->
    <title>Flexible</title>
    <desc>Created with sketchtool.</desc>
    <defs>
        <rect id="path-1" x="0" y="0" width="280" height="280"></rect>
        <filter x="-10.7%" y="-3.6%" width="114.3%" height="114.3%" filterUnits="objectBoundingBox" id="filter-3">
            <feOffset dx="-20" dy="20" in="SourceAlpha" result="shadowOffsetOuter1"></feOffset>
            <feColorMatrix values="0 0 0 0 0.737254902   0 0 0 0 0.321568627   0 0 0 0 0.250980392  0 0 0 1 0" type="matrix" in="shadowOffsetOuter1"></feColorMatrix>
        </filter>
    </defs>
    <g id="Wireframe" stroke="none" stroke-width="1" fill="none" fill-rule="evenodd">
        <g id="Desktop-Essentials" transform="translate(-580.000000, -1047.000000)">
            <g id="Features" transform="translate(220.000000, 954.000000)">
                <g id="Feature-2" transform="translate(360.000000, 93.000000)">
                    <mask id="mask-2" fill="white">
                        <use xlink:href="#path-1"></use>
                    </mask>
                    <g id="Mask-Copy-2">
                        <use fill="black" fill-opacity="1" filter="url(#filter-3)" xlink:href="#path-1"></use>
                        <use fill="#FF684F" fill-rule="evenodd" xlink:href="#path-1"></use>
                    </g>
                    <path d="M110.318803,51.4088578 C111.659709,51.0491026 113.032403,51.5992655 113.773228,52.685942 C113.844067,52.7898519 133.965223,73.1764725 174.136695,113.845804 C174.745469,114.343549 175.343247,114.853711 175.931546,115.377778 L175.931546,115.377778 L180.436131,119.882362 C181.885449,121.509319 186.055864,125.845016 192.947375,132.889453 C207.589637,147.710825 224.263889,164.588605 242.969311,183.521098 C266.436324,207.167222 296.446279,237.326585 333,274 L333,274 L278.482694,294.130045 C283.237667,298.83676 288.076769,303.626745 293,308.5 L293,308.5 L271.618532,296.672 L222,315 C150.090184,242.699098 110.14246,202.55192 102.156828,194.558466 L101.707848,194.109246 C91.4785548,183.879953 85.8430458,170.280186 85.8430458,155.813908 C85.8430458,143.924524 89.6496547,132.620441 96.6845624,123.291725 C82.0319957,108.689101 74.0159627,100.700842 72.6352034,99.3244814 L58.9047397,85.5946387 C57.6591298,84.3490287 57.6591298,82.3356643 58.9047397,81.0900544 C60.1503497,79.8444444 62.1637141,79.8444444 63.409324,81.0900544 L63.409324,81.0900544 L76.9262626,94.606993 C77.199668,94.8803984 85.1905776,102.79251 100.898991,118.343329 L101.252893,117.978843 L101.252893,117.978843 L101.707848,117.51857 C105.667952,113.558466 110.133991,110.286794 114.960362,107.764239 C99.8726023,92.593841 92.2732369,84.9755124 92.160061,84.9073709 C91.7136071,84.6385677 91.3272388,84.2560922 91.0484848,83.7724165 L91.0484848,83.7724165 L81.4913753,67.216317 C80.6089355,65.6935509 81.1313908,63.7470862 82.6573427,62.8646465 C84.1737374,61.9885781 86.1265734,62.504662 87.0090132,64.0306138 L87.0090132,64.0306138 L126.5917,103.320549 C130.921021,102.22256 135.417027,101.656954 140,101.656954 C140.03301,101.656954 140.066014,101.656984 140.099014,101.657043 C123.147266,84.4235948 114.615117,75.7750681 114.49879,75.7081526 C113.791423,75.3012471 113.239318,74.6240131 113.010723,73.7724942 L113.010723,73.7724942 L108.066511,55.3081585 C107.610956,53.6101787 108.617638,51.8612277 110.318803,51.4088578 Z M141,47.5 C141.452092,47.5 148.419025,54.3789057 161.900799,68.136717 L165.781896,53.66115 C166.234266,51.9599845 167.989588,50.956488 169.681197,51.4088578 C170.129312,51.5280196 176.661916,57.8758203 189.279008,70.4522599 L192.990987,64.0306138 C193.870241,62.5110334 195.823077,61.9885781 197.342657,62.8646465 C197.780644,63.1179287 204.064061,69.3256996 216.192911,81.4879591 L216.590676,81.0900544 C217.836286,79.8444444 219.84965,79.8444444 221.09526,81.0900544 C221.544667,81.5394616 245.179581,105.17611 292,152 C292.200029,154.287563 292.356124,156.433613 292.468286,158.43815 C293.304357,159.284614 294.149401,160.139478 295,161 L295,161 L292.598001,169.108828 C292.416788,172.74403 291.945983,175.446436 291.185589,177.216046 L298.612412,209.902811 C303.939905,215.459291 309.402434,221.158354 315,227 L315,227 L310,246 C195.874514,130.541514 138.649667,72.7120821 138.32546,72.511704 C137.417964,71.9508202 136.814297,70.946947 136.814297,69.7999223 L136.814297,69.7999223 L136.814297,50.6857032 C136.814297,48.9240093 139,47.5 141,47.5 Z" id="Combined-Shape-Copy" fill="#BC5240" fill-rule="nonzero" mask="url(#mask-2)"></path>
                    <path d="M140,101.656954 C153.395882,101.656954 166.011267,106.540637 175.931546,115.377778 L175.931546,115.377778 L137.747708,153.561616 C136.502098,154.807226 136.502098,156.820591 137.747708,158.0662 C138.36892,158.687413 139.18446,158.999611 140,158.999611 C140.81554,158.999611 141.63108,158.687413 142.252292,158.0662 L142.252292,158.0662 L180.436131,119.882362 C189.273271,129.802642 194.156954,142.418026 194.156954,155.813908 C194.156954,170.280186 188.524631,183.879953 178.295338,194.109246 C168.066045,204.335354 154.466278,209.970862 140,209.970862 C125.533722,209.970862 111.933955,204.335354 101.707848,194.109246 C91.4785548,183.879953 85.8430458,170.280186 85.8430458,155.813908 C85.8430458,141.34763 91.4785548,127.747863 101.707848,117.51857 C111.933955,107.292463 125.533722,101.656954 140,101.656954 Z M216.590676,81.0900544 C217.836286,79.8444444 219.84965,79.8444444 221.09526,81.0900544 C222.34087,82.3356643 222.34087,84.3490287 221.09526,85.5946387 L221.09526,85.5946387 L207.578322,99.1115773 C206.95711,99.7327894 206.14157,100.044988 205.32603,100.044988 C204.51049,100.044988 203.694949,99.7327894 203.073737,99.1115773 C201.828127,97.8691531 201.828127,95.852603 203.073737,94.606993 L203.073737,94.606993 Z M58.9047397,81.0900544 C60.1503497,79.8444444 62.1637141,79.8444444 63.409324,81.0900544 L63.409324,81.0900544 L76.9262626,94.606993 C78.1718726,95.852603 78.1718726,97.8691531 76.9262626,99.1115773 C76.3050505,99.7327894 75.4895105,100.044988 74.6739705,100.044988 C73.8584305,100.044988 73.0428904,99.7327894 72.4216783,99.1115773 L72.4216783,99.1115773 L58.9047397,85.5946387 C57.6591298,84.3490287 57.6591298,82.3356643 58.9047397,81.0900544 Z M192.990987,64.0306138 C193.870241,62.5110334 195.823077,61.9885781 197.342657,62.8646465 C198.868609,63.7470862 199.391064,65.6935509 198.508625,67.216317 L198.508625,67.216317 L188.951515,83.7724165 C188.36216,84.7918415 187.291764,85.3652681 186.18951,85.3652681 C185.647941,85.3652681 185.1,85.2282828 184.599845,84.9383838 C183.073893,84.0591298 182.551437,82.1094794 183.433877,80.5867133 L183.433877,80.5867133 Z M82.6573427,62.8646465 C84.1737374,61.9885781 86.1265734,62.504662 87.0090132,64.0306138 L87.0090132,64.0306138 L96.5661228,80.5867133 C97.4485625,82.1094794 96.9261072,84.0591298 95.4001554,84.9383838 C94.9,85.2282828 94.3520591,85.3652681 93.8104895,85.3652681 C92.7082362,85.3652681 91.6378399,84.7950272 91.0484848,83.7724165 L91.0484848,83.7724165 L81.4913753,67.216317 C80.6089355,65.6935509 81.1313908,63.7470862 82.6573427,62.8646465 Z M165.781896,53.66115 C166.234266,51.9599845 167.989588,50.956488 169.681197,51.4088578 C171.382362,51.8612277 172.389044,53.6101787 171.933489,55.3081585 L171.933489,55.3081585 L166.989277,73.7724942 C166.606993,75.1933178 165.319969,76.1331002 163.915074,76.1331002 L163.915074,76.1331002 L163.086791,76.0247863 C161.388811,75.5724165 160.382129,73.8234654 160.834499,72.1222999 L160.834499,72.1222999 Z M110.318803,51.4088578 C112.016783,50.9533023 113.765734,51.9567988 114.218104,53.66115 L114.218104,53.66115 L119.165501,72.1222999 C119.617871,73.8234654 118.611189,75.5724165 116.913209,76.0247863 L116.913209,76.0247863 L116.084926,76.1331002 C114.680031,76.1331002 113.393007,75.1965035 113.010723,73.7724942 L113.010723,73.7724942 L108.066511,55.3081585 C107.610956,53.6101787 108.617638,51.8612277 110.318803,51.4088578 Z M140,47.5 C141.761694,47.5 143.185703,48.9240093 143.185703,50.6857032 L143.185703,50.6857032 L143.185703,69.7999223 C143.185703,71.5616162 141.761694,72.9856255 140,72.9856255 C138.238306,72.9856255 136.814297,71.5616162 136.814297,69.7999223 L136.814297,69.7999223 L136.814297,50.6857032 C136.814297,48.9240093 138.238306,47.5 140,47.5 Z" id="Combined-Shape" fill="#FFFFFF" fill-rule="nonzero" mask="url(#mask-2)"></path>
                </g>
            </g>
        </g>
    </g>
</svg>