<?xml version="1.0" standalone="no"?>
<!DOCTYPE svg PUBLIC "-//W3C//DTD SVG 20010904//EN"
 "http://www.w3.org/TR/2001/REC-SVG-20010904/DTD/svg10.dtd">
<svg version="1.0" xmlns="http://www.w3.org/2000/svg"
 width="91.000000pt" height="91.000000pt" viewBox="0 0 91.000000 91.000000"
 preserveAspectRatio="xMidYMid meet">
<metadata>
Created by potrace 1.11, written by Peter Selinger 2001-2013
</metadata>
<g transform="translate(0.000000,91.000000) scale(0.100000,-0.100000)"
fill="#000000" stroke="none">
<path d="M426 902 c-18 -4 -251 -105 -337 -147 -20 -9 -48 -36 -63 -58 -26
-41 -26 -42 -26 -234 0 -206 6 -240 50 -281 26 -24 33 -27 257 -126 151 -66
144 -66 349 25 171 75 213 101 237 144 15 26 18 398 4 440 -19 57 -55 82 -231
158 -172 76 -204 86 -240 79z"/>
</g>
</svg>
